<svg width="225" height="225" viewBox="0 0 225 225" fill="none" xmlns="http://www.w3.org/2000/svg">
<rect x="0.5" y="0.5" width="224" height="224" rx="4.5" fill="url(#paint0_linear_7_1010)"/>
<mask id="mask0_7_1010" style="mask-type:alpha" maskUnits="userSpaceOnUse" x="113" y="25" width="112" height="200">
<path d="M225 25L113 110.333V225H220C222.761 225 225 222.761 225 220V25Z" fill="#7B2020"/>
</mask>
<g mask="url(#mask0_7_1010)">
<g filter="url(#filter0_f_7_1010)">
<rect x="45" y="120" width="225" height="105" fill="url(#paint1_linear_7_1010)"/>
</g>
<path d="M124.774 178.93C125.194 179.312 125.591 179.689 125.952 180.064C127.894 182.101 133.201 189.866 135.874 193.821C136.827 195.242 137.444 196.163 137.444 196.163C137.444 196.163 144.609 203.527 147.208 204.087C148.824 204.435 155.182 199.15 159.673 194.591C162.388 191.824 164.418 189.337 164.305 188.516C164.305 188.516 163.388 181.479 162.888 180.148C162.389 178.817 159.606 176.755 155.986 178.505L155.975 178.479C155.791 178.246 154.304 176.382 153.52 175.879C153.064 175.593 151.873 175.372 150.624 175.415C149.556 175.449 148.454 175.678 147.741 176.221C146.564 177.121 146.288 179.48 146.227 180.544C146.208 180.834 146.203 181.025 146.203 181.071C146.114 180.803 144.366 175.214 143.832 173.386C143.696 172.919 143.573 172.441 143.453 171.97C143.446 171.961 143.442 171.951 143.441 171.941C143.437 171.932 143.433 171.924 143.431 171.915L143.422 171.892C143.081 170.506 142.813 169.257 142.598 168.907C142.339 168.488 141.776 166.763 141.208 165.226C141.125 165.013 141.044 164.808 140.973 164.6C140.34 162.947 139.205 159.313 138.322 157.351C137.439 155.389 135.685 153.483 135.196 153.425C134.707 153.367 131.65 154.038 130.945 155.472C130.28 156.832 133.054 164.61 135.832 169.901C135.992 170.208 136.15 170.506 136.308 170.794C136.308 170.794 136.744 172.048 137.357 173.85C137.357 173.85 137.379 173.906 137.418 174.006L137.514 174.287L137.626 174.616C137.646 174.668 137.667 174.72 137.689 174.777C139.228 179.302 141.52 186.127 141.475 186.721C141.424 187.611 140.626 188.379 139.896 188.076C139.166 187.773 132.346 178.84 131.525 177.345C131.063 176.504 130.247 175.519 129.431 174.603C128.799 173.887 128.175 173.206 127.715 172.655C126.964 171.752 124.337 167.863 122.431 165.53C122.431 165.53 122.422 165.51 122.419 165.501C122.416 165.492 122.419 165.501 122.414 165.489L122.411 165.48L122.406 165.468C121.666 164.562 121.036 163.901 120.684 163.75C119.421 163.246 115.475 164.416 117.274 169.563C118.805 174.006 122.186 176.549 124.774 178.93Z" fill="url(#paint2_linear_7_1010)"/>
<g style="mix-blend-mode:multiply" opacity="0.5">
<path d="M136.023 186.267L140.449 196.644L156.124 196.305L159.669 194.597C162.388 191.824 164.418 189.337 164.305 188.516C164.305 188.516 163.388 181.479 162.888 180.148L161.431 181.753L160.877 179.69L160.441 181.579C160.441 181.579 160.289 183.007 160.066 183.214C159.844 183.42 155.832 185.155 154.506 183.148C154.506 183.148 155.233 179.619 155.986 178.505L155.976 178.479C155.791 178.246 154.305 176.382 153.521 175.879C153.521 175.879 153.294 179.203 153.362 180.756C153.43 182.309 147.736 184.039 146.358 183.06L146.227 180.544L143.448 171.938C143.449 171.949 143.453 171.959 143.46 171.967C143.63 172.797 144.996 179.566 144.782 180.462C144.554 181.409 141.429 182.436 140.569 181.616C139.905 180.982 138.363 176.699 137.687 174.772C139.226 179.297 141.519 186.122 141.473 186.716C141.422 187.606 140.624 188.374 139.894 188.071C139.164 187.768 132.344 178.835 131.523 177.34C131.061 176.498 130.245 175.514 129.429 174.597L136.023 186.267Z" fill="#D87290"/>
</g>
<g style="mix-blend-mode:multiply" opacity="0.31">
<path d="M124.774 178.93C125.194 179.312 125.591 179.689 125.952 180.064C127.895 182.101 133.201 189.866 135.875 193.821L145.699 189.81L146.227 180.544C146.208 180.834 146.203 181.025 146.203 181.071C146.115 180.803 144.366 175.214 143.832 173.386C143.696 172.919 143.573 172.441 143.453 171.97C143.446 171.961 143.442 171.951 143.441 171.941C143.437 171.933 143.433 171.924 143.431 171.915L143.422 171.892C143.081 170.506 142.813 169.257 142.598 168.907C142.339 168.488 141.776 166.763 141.208 165.226L141.127 165.182C141.127 165.182 141.923 168.612 141.184 169.618C140.445 170.624 137.993 172.059 135.888 169.937L135.836 169.896C135.996 170.202 136.154 170.501 136.312 170.788C136.312 170.788 136.747 172.042 137.361 173.845C137.361 173.845 137.383 173.9 137.422 174.001L137.518 174.282L137.63 174.611C137.65 174.663 137.671 174.714 137.693 174.771C139.232 179.297 141.524 186.122 141.479 186.715C141.428 187.606 140.63 188.374 139.9 188.071C139.17 187.768 132.35 178.835 131.529 177.34C131.067 176.498 130.251 175.514 129.435 174.597C128.803 173.881 128.179 173.201 127.719 172.649C126.968 171.747 124.341 167.857 122.434 165.525C122.962 166.367 128.823 175.633 128.827 176.803C128.825 177.827 126.681 179.347 124.774 178.93Z" fill="#D87290"/>
</g>
<path d="M135.675 204.481C136.307 205.39 138.14 206.687 139.597 207.194C141.074 207.702 150.634 208.773 152.405 210.237C153.551 211.184 156.252 218.663 158.028 223.867C159.009 226.743 162.153 234.087 162.153 234.087C168.395 234.572 174.899 227.948 174.899 227.948C174.899 227.948 163.691 206.102 163.726 205.646C163.761 205.19 166.23 202.362 166.383 201.194C166.433 200.72 166.447 200.243 166.424 199.766C166.388 198.315 166.17 196.874 165.776 195.477C165.456 194.442 165.05 192.463 164.738 190.877C164.487 189.571 164.307 188.537 164.307 188.537C163.065 190.576 154.385 195.31 154.385 195.31C152.833 194.732 149.969 194.417 147.34 194.22C146.744 194.174 146.16 194.132 145.607 194.099C145.594 194.105 145.581 194.098 145.566 194.1C143.385 193.968 141.702 193.898 141.633 193.807C141.495 193.582 140.5 191.38 140.5 191.38C140.5 191.38 143.795 190.505 145.173 189.744C146.552 188.983 149.792 184.575 149.421 183.465C149.133 182.611 148.365 181.474 147.714 181.047L147.667 181.014C147.526 180.916 147.355 180.87 147.184 180.883C146.501 181.006 144.152 182.845 140.877 184.229C137.602 185.612 135.515 186.453 134.806 186.861C134.097 187.269 133.147 188.919 133.17 189.234C133.194 189.55 134.596 194.139 134.937 196.315C135.163 197.76 135.142 200.49 135.289 202.425C135.349 203.399 135.464 204.179 135.675 204.481Z" fill="url(#paint3_linear_7_1010)"/>
<g style="mix-blend-mode:multiply" opacity="0.31">
<path d="M154.385 195.31C152.833 194.732 149.969 194.417 147.34 194.22C151.622 194.758 155.442 196.9 155.442 196.9C160.805 196.737 164.581 198.583 166.42 199.756C166.384 198.305 166.166 196.864 165.772 195.467C165.452 194.432 165.046 192.453 164.734 190.867C164.483 189.561 164.303 188.527 164.303 188.527C163.065 190.576 154.385 195.31 154.385 195.31Z" fill="#D87290"/>
</g>
<g style="mix-blend-mode:multiply" opacity="0.31">
<path d="M147.342 194.219C146.767 194.146 146.189 194.106 145.609 194.099C146.157 194.134 146.746 194.173 147.342 194.219Z" fill="#D87290"/>
</g>
<g style="mix-blend-mode:multiply" opacity="0.31">
<path d="M135.276 202.422C138.131 200.401 141.735 194.75 141.735 194.75C142.959 194.29 144.26 194.068 145.567 194.097C143.386 193.966 141.703 193.896 141.634 193.805C141.496 193.58 140.501 191.378 140.501 191.378C140.501 191.378 143.796 190.503 145.174 189.742C146.553 188.981 149.793 184.573 149.422 183.463C149.134 182.609 148.366 181.472 147.715 181.045C148.003 181.273 149.334 182.415 148.561 184.235C147.701 186.272 140.427 190.596 138.883 190.621C137.339 190.646 133.159 189.227 133.159 189.227C133.182 189.539 134.585 194.131 134.926 196.307C135.149 197.758 135.129 200.487 135.276 202.422Z" fill="#D87290"/>
</g>
<g style="mix-blend-mode:multiply" opacity="0.5">
<path d="M140.501 191.378L137.759 191.89L140.838 192.153L140.501 191.378Z" fill="#D87290"/>
</g>
<g style="mix-blend-mode:multiply" opacity="0.5">
<path d="M140.5 191.379L141.632 193.806C141.632 193.806 146.851 191.747 154.385 195.31C154.385 195.31 158.979 192.961 161.38 191.057L162.069 188.229L161.422 181.756L160.868 179.693L160.628 182.62C160.628 182.62 160.92 185.341 160.906 186.219C160.892 187.097 159.688 188.989 159.064 189.267C158.439 189.544 156.315 189.401 155.92 189.083C155.525 188.765 154.506 183.146 154.506 183.146C154.506 183.146 155.321 179.696 155.994 178.501C155.994 178.501 153.994 181.186 153.797 181.887C153.6 182.587 154.46 187.945 153.822 188.834C153.185 189.722 151.027 190.18 150.301 190.02C149.576 189.861 147.694 187.107 147.694 187.107C147.694 187.107 145.875 189.323 145.186 189.737C144.497 190.152 140.5 191.379 140.5 191.379Z" fill="#D87290"/>
</g>
<g style="mix-blend-mode:soft-light" opacity="0.97">
<path d="M146.759 181.039C147.156 180.837 148.241 182.357 147.733 183.062C147.225 183.766 142.766 185.648 141.323 185.252C139.879 184.857 142.38 183.276 146.759 181.039Z" fill="#F5AF8F"/>
</g>
<path d="M147.594 183.206C147.594 183.206 146.649 184.142 144.415 184.938C142.182 185.734 140.385 185.546 140.111 185.205C139.836 184.864 142.118 183.651 142.118 183.651C142.118 183.651 140.761 184.599 141.042 185.049C141.323 185.499 145.363 184.953 147.594 183.206Z" fill="#E86C7C"/>
<g style="mix-blend-mode:soft-light" opacity="0.97">
<path d="M146.26 181.278C146.759 181.907 147.118 182.636 147.312 183.416C147.495 183.303 147.655 183.155 147.781 182.981C147.956 182.724 147.726 181.246 146.761 181.035L146.26 181.278Z" fill="#F5D3D2"/>
</g>
<g style="mix-blend-mode:soft-light" opacity="0.97">
<path d="M142.118 183.651C142.118 183.651 142.624 183.728 142.689 184.062C142.753 184.395 141.499 185.189 141.499 185.189C141.499 185.189 141.048 185.238 141.007 184.889C140.967 184.541 142.118 183.651 142.118 183.651Z" fill="#F5D3D2"/>
</g>
<g style="mix-blend-mode:soft-light" opacity="0.97">
<path d="M156.068 188.834C156.068 188.834 156.667 189.748 158.833 189.207C158.929 189.182 158.974 189.057 158.992 188.859C159.039 188.243 158.727 187.011 158.225 186.341L158.165 186.269C158.138 186.231 158.108 186.196 158.077 186.162C158.077 186.162 158.071 186.146 158.059 186.145C157.584 185.689 156.592 185.884 156.111 186.658C155.845 187.084 155.735 187.685 155.945 188.448C155.948 188.452 155.95 188.456 155.95 188.462C155.982 188.588 156.021 188.712 156.068 188.834Z" fill="#F5AF8F"/>
</g>
<g style="mix-blend-mode:soft-light" opacity="0.97">
<path d="M149.994 189.672C150.049 189.736 150.114 189.792 150.186 189.836C150.572 190.054 152.214 190.22 153.143 188.995C153.168 188.962 153.188 188.926 153.204 188.888C153.276 188.663 153.281 188.422 153.219 188.195L153.214 188.183C153.025 187.29 152.258 186.028 151.467 185.406C151.249 185.222 150.988 185.096 150.708 185.039C149.659 184.904 148.912 185.68 148.742 186.503C148.738 186.514 148.736 186.526 148.737 186.537C148.708 186.677 148.697 186.82 148.704 186.962C148.704 186.998 148.707 187.034 148.714 187.07C148.815 187.927 149.543 189.197 149.994 189.672Z" fill="#F5AF8F"/>
</g>
<g style="mix-blend-mode:multiply" opacity="0.5">
<path d="M148.735 186.506L148.72 186.785C148.88 186.067 149.905 184.812 151.109 185.454C152.391 186.149 153.099 187.893 153.205 188.18C152.954 187.001 151.692 185.167 150.699 185.036C149.658 184.905 148.905 185.682 148.735 186.506Z" fill="#D87290"/>
</g>
<g style="mix-blend-mode:multiply" opacity="0.5">
<path d="M148.705 187.073L148.72 186.785C148.702 186.843 148.693 186.904 148.695 186.966C148.695 187.002 148.699 187.038 148.705 187.073Z" fill="#D87290"/>
</g>
<g style="mix-blend-mode:multiply" opacity="0.5">
<path d="M155.945 188.448C155.898 188.088 155.747 186.445 157.181 186.286C158.765 186.112 158.985 188.77 158.983 188.862C159.035 188.192 158.66 186.767 158.068 186.165C157.354 185.422 155.343 186.276 155.945 188.448Z" fill="#D87290"/>
</g>
<g style="mix-blend-mode:soft-light" opacity="0.97">
<path d="M156.068 188.834C156.068 188.834 156.667 189.748 158.833 189.207C158.929 189.182 158.974 189.057 158.992 188.859C158.992 188.859 157.397 189.433 156.068 188.834Z" fill="#F5D3D2"/>
</g>
<g style="mix-blend-mode:soft-light" opacity="0.97">
<path d="M149.994 189.672C150.049 189.736 150.114 189.792 150.186 189.837C150.571 190.054 152.214 190.22 153.143 188.995C153.168 188.962 153.188 188.926 153.204 188.888C152.772 189.132 151.348 189.859 149.994 189.672Z" fill="#F5D3D2"/>
</g>
<path d="M147.682 187.112C147.682 187.112 146.02 189.689 145.27 190.213C144.52 190.736 140.913 191.503 141.634 193.805L140.501 191.378C140.501 191.378 144.078 190.359 145.174 189.742C146.27 189.125 147.682 187.112 147.682 187.112Z" fill="#AB3D52"/>
<path d="M150.187 189.989C150.187 189.989 150.467 190.328 153.115 190.054C155.763 189.78 158.638 189.754 159.289 189.472C159.94 189.19 160.872 186.519 160.872 186.519C160.872 186.519 159.647 189.155 159.064 189.267C158.48 189.379 156.427 189.381 155.92 189.083C155.413 188.785 154.822 184.798 154.822 184.798C154.822 184.798 154.672 187.166 153.974 188.384C153.276 189.603 151.103 190.389 150.187 189.989Z" fill="#AB3D52"/>
<path d="M149.422 183.463C149.422 183.463 149.651 184.861 148.046 187.627L146.795 188.229C146.795 188.229 148.812 186.085 149.422 183.463Z" fill="#AB3D52"/>
<g style="mix-blend-mode:multiply" opacity="0.6">
<path d="M158.031 223.85C157.933 223.129 155.723 207.817 152.721 207.056C149.719 206.295 139.898 207.141 139.603 207.194C141.08 207.702 150.64 208.772 152.41 210.237C153.558 211.186 156.252 218.647 158.031 223.85Z" fill="#F3BAC0"/>
</g>
<g style="mix-blend-mode:multiply" opacity="0.6">
<path d="M158.036 223.872C159.017 226.748 162.161 234.092 162.161 234.092C168.403 234.577 174.906 227.953 174.906 227.953C174.906 227.953 163.691 206.102 163.726 205.646C163.761 205.19 166.23 202.362 166.383 201.195C166.383 201.195 164.095 203.024 159.139 204.699C154.182 206.374 139.603 207.196 139.603 207.196C141.08 207.703 150.64 208.774 152.411 210.239C153.558 211.186 156.259 218.664 158.034 223.868L158.036 223.872Z" fill="#F3BAC0"/>
</g>
<g style="mix-blend-mode:multiply" opacity="0.5">
<path d="M139.604 207.196C141.081 207.703 150.641 208.774 152.411 210.239L152.721 207.056C149.689 206.289 139.899 207.14 139.604 207.196Z" fill="#D87290"/>
</g>
<path style="mix-blend-mode:screen" d="M159.319 200.642C160.314 202.101 148.806 206.308 142.577 205.217C138.233 204.46 137.289 202.828 137.069 201.937C136.85 201.047 139.937 196.294 143.428 195.147C146.919 194 156.47 196.475 159.319 200.642Z" fill="url(#paint4_linear_7_1010)"/>
<g style="mix-blend-mode:multiply" opacity="0.3">
<path d="M159.787 183.365C158.971 184.021 158.016 184.481 156.995 184.709C155.285 185.097 154.657 183.344 154.657 183.344C154.657 183.344 156.283 184.856 159.787 183.365Z" fill="#D87290"/>
</g>
<g style="mix-blend-mode:multiply" opacity="0.3">
<path d="M152.836 181.64C152.836 181.64 150.86 183.39 149.415 183.931C149.409 183.667 149.359 183.405 149.268 183.156C149.268 183.156 150.152 183.052 152.836 181.64Z" fill="#D87290"/>
</g>
<g style="mix-blend-mode:soft-light" opacity="0.97">
<path d="M160.279 183.922L160.055 187.617C160.055 187.617 160.736 186.395 160.675 186.112C160.615 185.829 160.279 183.922 160.279 183.922Z" fill="#F5A995"/>
</g>
<g style="mix-blend-mode:soft-light" opacity="0.97">
<path d="M143.87 205.995C143.87 205.995 140.748 206.759 139.937 206.488C139.126 206.217 136.332 205.203 135.848 204.239C135.364 203.274 135.203 197.364 135.203 197.364C135.203 197.364 135.733 202.582 136.755 203.803C137.778 205.024 140.868 206.256 143.87 205.995Z" fill="#F5FFFF"/>
</g>
<g style="mix-blend-mode:soft-light" opacity="0.97">
<path d="M171.001 230.449C171.001 230.449 173.573 228.264 173.874 227.386C174.175 226.507 163.513 206.689 163.513 206.689C163.513 206.689 172.76 225.792 172.489 227.327C172.217 228.861 171.001 230.449 171.001 230.449Z" fill="#F5FFFF"/>
</g>
<g style="mix-blend-mode:soft-light" opacity="0.97">
<path d="M164.008 190.676C164.008 190.676 166.096 197.201 166.106 199.56C166.116 201.918 163.711 204.572 163.711 204.572C164.715 202.879 165.231 200.942 165.202 198.974C165.13 195.735 164.008 190.676 164.008 190.676Z" fill="#F5FFFF"/>
</g>
<g style="mix-blend-mode:soft-light" opacity="0.97">
<path d="M135.629 154.222C135.629 154.222 136.829 155.254 138.034 158.007C139.24 160.76 142.241 169.237 142.241 169.237C142.241 169.237 136.05 155.025 135.629 154.222Z" fill="#F5FFFF"/>
</g>
<g style="mix-blend-mode:soft-light" opacity="0.97">
<path d="M117.682 169.041C117.682 169.041 121.97 175.996 125.589 178.745C125.589 178.745 122.084 176.585 119.879 173.603C117.673 170.62 117.682 169.041 117.682 169.041Z" fill="#F5FFFF"/>
</g>
<g style="mix-blend-mode:soft-light" opacity="0.97">
<path d="M153.904 211.318C153.904 211.318 161.427 229.453 162.463 233.414C162.463 233.414 158.156 218.432 153.904 211.318Z" fill="#F5FFFF"/>
</g>
<g style="mix-blend-mode:soft-light" opacity="0.97">
<path d="M139.794 184.771C139.794 184.771 137.727 186.269 136.499 186.666C135.272 187.064 134.795 186.853 134.795 186.853L139.794 184.771Z" fill="#F5FFFF"/>
</g>
<g style="mix-blend-mode:soft-light" opacity="0.97">
<path d="M133.159 189.227C133.159 189.227 134.346 189.005 134.988 188.326C135.629 187.647 134.795 186.853 134.795 186.853C134.795 186.853 133.875 187.625 133.159 189.227Z" fill="#F5AF8F"/>
</g>
<g style="mix-blend-mode:multiply" opacity="0.5">
<path d="M149.422 183.463L148.863 182.985C148.863 182.985 148.126 181.205 147.173 180.876C147.173 180.876 148.343 180.75 149.422 183.463Z" fill="#D87290"/>
</g>
<path d="M218.865 173.897L218.855 173.894C217.319 175.898 215.801 178.015 215.314 179.327C214.213 182.307 212.224 190.671 209.856 193.562C209.819 193.606 209.783 193.648 209.742 193.692L209.74 193.701L209.614 193.826C209.57 193.867 209.526 193.909 209.48 193.947C209.431 193.988 209.381 194.029 209.329 194.067C209.277 194.105 209.224 194.147 209.168 194.186C208.932 194.347 208.685 194.49 208.427 194.614C208.36 194.648 208.292 194.682 208.221 194.713C208.092 194.774 207.958 194.832 207.818 194.888C207.582 194.988 207.322 195.079 207.06 195.165C206.927 195.209 206.793 195.25 206.657 195.291C206.521 195.331 206.356 195.379 206.204 195.422C206.081 195.455 205.956 195.486 205.825 195.529L205.384 195.619L205.163 195.666C205.089 195.684 205.014 195.699 204.942 195.713C204.869 195.727 204.794 195.742 204.721 195.758C204.424 195.816 204.123 195.871 203.821 195.92C203.747 195.931 203.671 195.942 203.602 195.957C203.533 195.972 203.447 195.982 203.369 195.993C203.222 196.014 203.072 196.036 202.935 196.058C202.861 196.069 202.785 196.078 202.717 196.091L202.501 196.121C202.432 196.129 202.361 196.137 202.285 196.146C202.21 196.155 202.105 196.167 202.016 196.177C201.746 196.206 201.478 196.241 201.22 196.259C201.09 196.272 200.962 196.284 200.833 196.295L200.709 196.306C200.594 196.317 200.479 196.326 200.366 196.333L199.86 196.372L199.631 196.386L199.52 196.394L199.095 196.422C198.16 196.472 197.458 196.486 197.169 196.49L197.116 196.492L197.02 196.492C196.661 197.235 196.376 198.011 196.168 198.81L196.125 198.968C196.111 199.02 196.096 199.077 196.081 199.133L196.033 199.312C196.002 199.427 195.97 199.547 195.955 199.681L195.864 200.184L195.807 200.522C195.778 200.706 195.748 200.898 195.72 201.095L195.646 201.621C195.602 201.949 195.56 202.291 195.52 202.643L195.497 202.845C195.481 202.985 195.464 203.126 195.45 203.269L195.379 203.934L195.318 204.543L195.305 204.59C195.251 204.907 193.167 221.247 193.135 221.54C193.091 222 193.051 222.456 193.016 222.91L192.997 223.136L192.948 223.722L192.926 224.014C192.912 224.186 192.898 224.353 192.889 224.521L192.869 224.756L192.855 224.942L192.802 225.691L192.799 225.745L192.775 226.082L192.738 226.663L192.713 226.998L192.703 227.035L192.688 227.261L192.684 227.332L192.682 227.392L192.67 227.437L192.663 227.466L192.618 228.195L192.604 228.416L192.588 228.702L192.583 228.776L192.546 229.412L192.546 229.458L192.54 229.542C190.191 231.538 182.976 230.715 178.391 227.557C178.926 224.005 179.563 220.375 180.161 217.232C181.173 212.047 184.094 192.138 184.094 192.138L179.777 186.111C179.563 183.657 180.834 177.995 181.998 173.481C182.031 173.356 182.062 173.241 182.091 173.134C182.964 169.75 183.76 167.091 183.76 167.091L186.401 157.32C186.401 157.32 186.042 154.93 186.658 152.757C187.274 150.584 188.222 147.645 188.588 147.111C189.402 145.934 194.042 146.56 193.849 147.365L192.597 152.036L189.034 165.209L191.308 165.971L191.32 165.926L195.574 152.562C195.567 151.078 195.732 149.599 196.067 148.154C196.077 148.156 196.077 148.156 196.071 148.138C196.302 147.161 196.582 146.197 196.91 145.249C196.919 145.218 196.932 145.189 196.948 145.161C196.951 145.137 196.957 145.113 196.967 145.091C198.167 141.717 199.505 139.666 199.505 139.666C200.321 138.25 202.634 138.934 203.247 139.487C203.719 138.378 205.23 136.735 205.23 136.735C206.409 136.094 209.169 137.031 209.047 138.288C208.616 141.993 206.906 147.556 205.761 153.417C204.159 161.66 202.489 169.434 202.489 169.434L203.436 169.731L206.956 158.928C206.956 158.928 206.97 158.742 206.985 158.423C207.072 157.07 207.35 153.373 208.033 151.942C208.872 150.181 211.294 144.94 211.925 144.2C212.841 143.115 216.223 144.667 216.022 145.308C215.8 147.092 214.969 150.755 213.911 155.056C213.911 155.056 213.894 155.116 213.863 155.233C213.845 155.285 213.831 155.338 213.82 155.393C212.46 160.962 210.696 167.535 209.349 172.515C208.82 174.444 208.361 176.14 208.001 177.439L207.246 180.171L209.81 180.618L211.341 177.823C211.341 177.823 210.909 172.806 211.332 171.849C211.755 170.892 215.51 166.849 217.927 166.984C220.344 167.118 222.467 168.394 222.406 168.947C222.37 169.261 220.822 171.364 218.865 173.897Z" fill="url(#paint5_linear_7_1010)"/>
<path d="M218.865 173.897L218.855 173.894C217.319 175.898 215.801 178.015 215.314 179.327C214.367 181.887 212.767 188.418 210.833 192.042C210.849 187.147 207.257 180.174 207.257 180.174L209.81 180.618L211.341 177.823C211.341 177.823 210.909 172.806 211.332 171.849C211.755 170.892 215.51 166.849 217.927 166.984C220.343 167.118 222.467 168.394 222.406 168.947C222.37 169.261 220.822 171.364 218.865 173.897Z" fill="url(#paint6_linear_7_1010)"/>
<path d="M189.033 165.219L183.758 167.091L186.399 157.32C186.399 157.32 186.04 154.93 186.656 152.757C187.272 150.584 188.285 147.681 188.586 147.111C189.688 145.043 194.305 145.742 193.847 147.365C193.51 148.557 193.083 150.216 192.595 152.035L189.033 165.219Z" fill="url(#paint7_linear_7_1010)"/>
<path d="M196.072 148.138C196.302 147.161 196.582 146.197 196.91 145.249C196.919 145.218 196.932 145.189 196.948 145.161C196.951 145.137 196.957 145.113 196.967 145.091C198.168 141.717 199.505 139.666 199.505 139.666C200.321 138.25 202.634 138.934 203.247 139.487C203.706 138.383 203.739 137.13 206.09 136.396C208.419 135.667 210.032 136.979 209.913 138.234C209.479 141.939 206.909 147.546 205.764 153.407C204.162 161.65 202.492 169.424 202.492 169.424L191.333 165.923L195.574 152.562C195.567 151.078 195.732 149.599 196.067 148.154C196.087 148.151 196.087 148.151 196.072 148.138Z" fill="url(#paint8_linear_7_1010)"/>
<path d="M206.974 158.426C206.452 156.876 208.754 144.979 211.783 143.924C214.29 143.054 216.223 144.667 216.022 145.308C215.8 147.092 214.969 150.755 213.911 155.056C213.911 155.056 213.894 155.116 213.863 155.233C213.845 155.285 213.831 155.338 213.82 155.393L213.809 155.433C212.455 160.987 210.685 167.544 209.353 172.516L203.424 169.734L206.945 158.931C206.987 158.855 207.012 158.769 207.017 158.682C207.022 158.594 207.007 158.507 206.974 158.426Z" fill="url(#paint9_linear_7_1010)"/>
<g style="mix-blend-mode:multiply" opacity="0.6">
<path fill-rule="evenodd" clip-rule="evenodd" d="M193.454 183.7C193.454 183.7 200.709 179.792 207.248 180.18L208.004 177.45C208.004 177.45 194.144 170.455 188.491 172.286C188.491 172.286 187.428 177.424 188.192 179.466C188.957 181.509 193.454 183.7 193.454 183.7Z" fill="#F3BAC0"/>
</g>
<path style="mix-blend-mode:multiply" opacity="0.6" fill-rule="evenodd" clip-rule="evenodd" d="M213.863 155.233C213.894 155.116 213.911 155.056 213.911 155.056L213.82 155.393C213.831 155.338 213.845 155.285 213.863 155.233Z" fill="url(#paint10_linear_7_1010)"/>
<g style="mix-blend-mode:multiply" opacity="0.2">
<path fill-rule="evenodd" clip-rule="evenodd" d="M209.301 172.448L204.267 170.077L203.392 169.663L206.24 160.899L206.904 158.858C206.904 158.858 206.917 158.671 206.931 158.352C207.121 158.469 209.538 159.901 211.008 160.097C212.271 160.265 213.425 156.573 213.769 155.36L209.301 172.448Z" fill="#F3BAC0"/>
</g>
<g style="mix-blend-mode:multiply" opacity="0.2">
<path fill-rule="evenodd" clip-rule="evenodd" d="M202.441 169.358L191.282 165.855L195.389 152.942L195.531 152.49C195.526 151.007 195.694 149.528 196.034 148.084C195.903 149.184 196.06 150.299 196.489 151.32L199.799 151.477C199.799 151.477 202.029 141.229 203.217 139.412C203.217 139.412 200.998 147.022 200.634 151.738C200.634 151.738 203.062 155.503 205.718 153.343C205.393 155.018 205.064 156.671 204.748 158.249C203.499 164.428 202.441 169.358 202.441 169.358Z" fill="#D87290"/>
</g>
<path style="mix-blend-mode:multiply" opacity="0.6" fill-rule="evenodd" clip-rule="evenodd" d="M196.982 145.089C196.958 145.139 196.939 145.191 196.924 145.244C196.982 145.12 197.026 145.036 197.048 145L196.982 145.089Z" fill="url(#paint11_linear_7_1010)"/>
<g style="mix-blend-mode:multiply" opacity="0.2">
<path fill-rule="evenodd" clip-rule="evenodd" d="M189.034 165.219L187.929 165.612L183.758 167.091L186.399 157.32L188.854 158.076L192.592 152.04L191.577 155.829C190.284 160.607 189.034 165.219 189.034 165.219Z" fill="#F3BAC0"/>
</g>
<g style="mix-blend-mode:multiply" opacity="0.3">
<path fill-rule="evenodd" clip-rule="evenodd" d="M207.248 180.18C207.248 180.18 200.046 179.564 195.037 182.94C195.037 182.94 199.389 177.913 208.005 177.446L207.248 180.18Z" fill="#D87290"/>
</g>
<g style="mix-blend-mode:multiply" opacity="0.6">
<path d="M196.119 198.814C195.466 201.141 192.916 223.834 192.692 227.334C192.714 225.966 194.275 199.988 195.485 196.454C195.719 195.776 196.015 195.332 196.387 195.236C196.538 195.197 196.697 195.21 196.84 195.271C198.323 195.848 203.603 195.415 207.803 194.905C203.936 196.478 196.97 196.499 196.97 196.499C196.957 196.548 196.923 196.591 196.904 196.638C196.576 197.338 196.313 198.066 196.119 198.814Z" fill="#F3BAC0"/>
</g>
<g style="mix-blend-mode:multiply" opacity="0.5">
<path d="M207.804 194.901C203.937 196.474 196.971 196.495 196.971 196.495C196.958 196.544 196.388 195.232 196.388 195.232C196.539 195.193 196.699 195.206 196.842 195.268C198.324 195.844 203.605 195.409 207.804 194.901Z" fill="#D87290"/>
</g>
<path style="mix-blend-mode:screen" d="M189.79 187.764C189.04 188.91 199.191 192.066 204.448 191.151C208.105 190.515 208.161 189.27 208.287 188.574C208.413 187.877 207.477 183.697 204.401 182.84C201.325 181.982 191.935 184.49 189.79 187.764Z" fill="url(#paint12_linear_7_1010)"/>
<path style="mix-blend-mode:screen" d="M201.892 170.494C202.36 169.994 194.146 167.248 189.976 166.705C187.76 166.413 183.148 169.272 185.273 169.841C188.32 170.66 200.544 171.92 201.892 170.494Z" fill="url(#paint13_linear_7_1010)"/>
<g style="mix-blend-mode:soft-light" opacity="0.97">
<path d="M200.734 194.565C200.734 194.565 204.942 194.491 205.768 194.293C206.595 194.096 208.856 193.869 209.356 193.015C209.856 192.16 212.688 185.44 212.688 185.44C212.688 185.44 209.578 191.852 208.531 192.91C207.484 193.969 200.734 194.565 200.734 194.565Z" fill="#F5FFFF"/>
</g>
<g style="mix-blend-mode:soft-light" opacity="0.97">
<path d="M183.7 227.897C183.7 227.897 180.529 226.497 179.966 225.773C179.403 225.048 184.927 194.027 184.927 194.027C184.927 194.027 180.552 224.092 181.297 225.416C182.041 226.739 183.7 227.897 183.7 227.897Z" fill="#F5FFFF"/>
</g>
<g style="mix-blend-mode:soft-light" opacity="0.97">
<path d="M182.99 176.12C182.99 176.12 180.841 182.01 180.829 184.186C180.817 186.363 183.254 188.968 183.254 188.968C182.255 187.394 181.731 185.566 181.745 183.702C181.828 180.729 182.99 176.12 182.99 176.12Z" fill="#F5FFFF"/>
</g>
<g style="mix-blend-mode:soft-light" opacity="0.97">
<path d="M210.275 146.774C210.275 146.774 208.08 153.902 208.336 157.99C208.336 157.99 207.749 154.343 208.475 151.049C209.201 147.754 210.275 146.774 210.275 146.774Z" fill="#F5FFFF"/>
</g>
<g style="mix-blend-mode:soft-light" opacity="0.97">
<path d="M189.013 148.187C189.013 148.187 187.291 153.773 187.49 156.983C187.49 156.983 187.032 154.123 187.6 151.537C188.168 148.951 189.013 148.187 189.013 148.187Z" fill="#F5FFFF"/>
</g>
<g style="mix-blend-mode:soft-light" opacity="0.97">
<path d="M199.855 140.384C199.855 140.384 197.073 146.58 196.494 150.454C196.494 150.454 196.716 147.003 197.929 143.874C199.143 140.746 199.855 140.384 199.855 140.384Z" fill="#F5FFFF"/>
</g>
<g style="mix-blend-mode:soft-light" opacity="0.97">
<path d="M220.967 169.454C220.967 169.454 217.183 173.863 214.136 175.276C214.136 175.276 217.059 174.287 218.977 172.46C220.895 170.634 220.967 169.454 220.967 169.454Z" fill="#F5FFFF"/>
</g>
<g style="mix-blend-mode:soft-light" opacity="0.97">
<path d="M195.518 196.127C195.518 196.127 191.658 224.817 191.616 228.594C191.616 228.594 193.076 203.304 195.518 196.127Z" fill="#F5FFFF"/>
</g>
<path fill-rule="evenodd" clip-rule="evenodd" d="M199.543 156.128L197.181 167.776L196.356 167.517C197.912 164.622 198.4 160.581 199.543 156.128Z" fill="#B24D61"/>
<g style="mix-blend-mode:multiply" opacity="0.3">
<path fill-rule="evenodd" clip-rule="evenodd" d="M199.543 156.128L197.181 167.776L194.147 166.823C194.494 166.174 196.152 165.746 196.152 165.746L200.319 150.974L199.543 156.128Z" fill="#D87290"/>
</g>
<g style="mix-blend-mode:multiply" opacity="0.3">
<path fill-rule="evenodd" clip-rule="evenodd" d="M206.13 171.008L204.31 170.151L203.424 169.734L206.945 158.931C205.961 163.99 204.81 169.288 206.13 171.008Z" fill="#D87290"/>
</g>
<g style="mix-blend-mode:multiply" opacity="0.3">
<path fill-rule="evenodd" clip-rule="evenodd" d="M191.572 155.838C190.294 160.61 189.034 165.219 189.034 165.219L187.929 165.612C189.093 163.145 190.324 159.631 191.572 155.838Z" fill="#D87290"/>
</g>
<g style="mix-blend-mode:multiply" opacity="0.3">
<path fill-rule="evenodd" clip-rule="evenodd" d="M192.843 166.415L191.304 165.932L195.41 153.019C194.244 157.419 193.386 161.895 192.843 166.415Z" fill="#D87290"/>
</g>
<g style="mix-blend-mode:multiply" opacity="0.31">
<path fill-rule="evenodd" clip-rule="evenodd" d="M215.302 179.333C214.201 182.312 212.212 190.677 209.844 193.567C209.807 193.611 209.771 193.654 209.73 193.697L209.728 193.707L209.602 193.832C209.558 193.872 209.514 193.914 209.468 193.952C209.419 193.993 209.369 194.034 209.317 194.072C209.265 194.11 209.212 194.152 209.156 194.192C208.92 194.353 208.673 194.495 208.415 194.619C208.348 194.653 208.28 194.687 208.209 194.718C208.08 194.779 207.946 194.837 207.806 194.894C207.571 194.993 207.31 195.084 207.048 195.17C206.915 195.214 206.781 195.255 206.645 195.296C206.509 195.336 206.344 195.384 206.192 195.427L205.813 195.534L205.372 195.624L205.151 195.671C205.077 195.689 205.002 195.704 204.93 195.718C204.857 195.732 204.782 195.748 204.709 195.764C204.412 195.822 204.111 195.877 203.809 195.925C203.735 195.936 203.659 195.947 203.59 195.962C203.521 195.977 203.435 195.987 203.357 195.998C203.21 196.019 203.06 196.041 202.923 196.063C202.849 196.074 202.773 196.083 202.705 196.096L202.489 196.126C202.42 196.135 202.349 196.143 202.273 196.152C202.198 196.161 202.093 196.172 202.005 196.182C201.734 196.211 201.466 196.246 201.209 196.265C201.078 196.278 200.95 196.289 200.821 196.301L200.698 196.311C200.582 196.322 200.467 196.331 200.355 196.338L199.848 196.378L199.619 196.391L199.508 196.399L199.083 196.427C198.148 196.477 197.446 196.491 197.157 196.495L197.104 196.498L197.008 196.497C196.649 197.24 196.364 198.017 196.156 198.815L196.113 198.973C196.099 199.025 196.084 199.082 196.069 199.138L196.021 199.317C195.99 199.432 195.958 199.553 195.943 199.686L195.852 200.19L195.795 200.527C195.767 200.711 195.736 200.903 195.708 201.1L195.634 201.627C195.59 201.955 195.548 202.296 195.508 202.648L195.485 202.851L195.439 203.274L195.367 203.939L195.306 204.548L195.293 204.595C195.251 204.907 193.167 221.247 193.135 221.54C193.091 222 193.051 222.456 193.016 222.91L192.997 223.136L192.948 223.722L192.926 224.014C192.912 224.186 192.898 224.353 192.888 224.521L192.869 224.756L192.855 224.942L192.802 225.691L192.798 225.745L192.775 226.082L192.738 226.663L192.713 226.998L192.703 227.035L192.688 227.261L192.684 227.332L192.682 227.392L192.67 227.437L192.662 227.466L192.617 228.195L192.604 228.416L192.588 228.702L192.583 228.776L192.546 229.412L192.546 229.458L192.54 229.542C190.191 231.538 182.976 230.715 178.391 227.557C178.926 224.005 179.562 220.375 180.161 217.232C181.173 212.047 184.094 192.138 184.094 192.138L179.777 186.111C179.563 183.657 180.834 177.995 181.998 173.481C181.209 176.773 180.801 183.207 180.801 183.207C180.801 183.207 184.069 187.359 191.481 189.992C198.893 192.624 207.925 191.43 207.925 191.43C210.718 186.547 207.246 180.179 207.246 180.179L209.81 180.618L211.341 177.823C211.341 177.823 210.909 172.806 211.332 171.849C211.362 173.605 213.546 175.852 214.121 176.017C214.697 176.182 218.613 174.042 218.859 173.903C217.317 175.906 215.803 178.023 215.302 179.333Z" fill="#D87290"/>
</g>
<g style="mix-blend-mode:multiply" opacity="0.3">
<path fill-rule="evenodd" clip-rule="evenodd" d="M202.441 169.358L198.031 167.968C198.251 167.768 200.633 167.831 200.633 167.831L202.475 164.716L204.744 158.233C203.499 164.428 202.441 169.358 202.441 169.358Z" fill="#D87290"/>
</g>
</g>
<mask id="mask1_7_1010" style="mask-type:alpha" maskUnits="userSpaceOnUse" x="0" y="25" width="113" height="200">
<path d="M0 25L113 110.333V225H5C2.23858 225 0 222.761 0 220V25Z" fill="#FF5D5D"/>
</mask>
<g mask="url(#mask1_7_1010)">
<g filter="url(#filter1_f_7_1010)">
<rect x="-56" y="127" width="192" height="98" fill="url(#paint14_linear_7_1010)"/>
</g>
<g clip-path="url(#clip0_7_1010)">
<path d="M61.2776 112.277C61.2776 112.277 62.7972 115.489 63.8607 118.285L63.8662 118.297C64.5009 119.96 64.9624 121.478 64.8577 122.144C64.5637 124.022 62.3869 130.264 50.7372 136.952C41.5033 142.252 34.2377 143.339 30.7653 143.196C30.7269 143.198 30.6959 143.195 30.6767 143.196C29.6719 143.155 28.9947 143.004 28.7242 142.825C26.2959 141.215 21.4849 134.629 21.4849 134.629L61.2776 112.277Z" fill="url(#paint15_linear_7_1010)"/>
<path d="M21.4831 134.625C22.8577 138.676 36.3741 135.003 46.9406 128.839C56.391 123.314 63.8839 115.296 60.6717 111.166C53.8832 102.405 18.3658 125.402 21.4831 134.625Z" fill="url(#paint16_linear_7_1010)"/>
<path d="M55.8674 115.723C56.3934 121.976 33.303 134.227 27.8746 132.466C27.6225 132.41 27.3892 132.289 27.1973 132.116C27.0054 131.944 26.8615 131.724 26.7796 131.479C24.6764 124.735 50.2576 108.216 55.3104 114.376C55.6314 114.756 55.8261 115.227 55.8674 115.723Z" fill="url(#paint17_linear_7_1010)"/>
<path d="M55.8674 115.723C56.3934 121.976 33.3031 134.227 27.8747 132.466C27.427 125.674 50.1804 111.075 55.8674 115.723Z" fill="#FFB300"/>
<g style="mix-blend-mode:multiply" opacity="0.2">
<path d="M27.9083 136.13C26.5506 136.4 31.5347 142.073 32.8529 142.547C34.1711 143.022 40.9835 141.573 43.8375 140.025C46.6915 138.477 43.2095 131.978 42.5084 131.746C41.8073 131.514 37.2392 134.251 27.9083 136.13Z" fill="#BA40A4"/>
</g>
<path d="M59.4924 130.583C58.6972 131.325 56.6972 123.632 56.632 122.638C56.5669 121.644 60.2862 118.819 61.33 114.448C61.33 114.448 64.0023 120.835 63.9878 123.362C63.9656 125.833 60.206 129.917 59.4924 130.583Z" fill="#FF9000"/>
<path style="mix-blend-mode:soft-light" d="M25.1283 126.758C22.1827 130.7 32.7381 122.265 34.1139 120.907C35.4898 119.548 30.7369 119.238 25.1283 126.758Z" fill="url(#paint18_linear_7_1010)"/>
<g style="mix-blend-mode:multiply" opacity="0.5">
<path d="M43.7563 115.243C41.4407 116.322 37.7723 120.959 37.4046 121.238C37.037 121.517 45.82 115.478 53.9264 114.922C53.9182 114.926 52.9727 110.94 43.7563 115.243Z" fill="#D340A4"/>
</g>
<g style="mix-blend-mode:multiply" opacity="0.5">
<path d="M63.858 118.301C64.4927 119.963 64.9541 121.482 64.8494 122.148C64.5554 124.026 62.3786 130.268 50.7289 136.956C41.5032 142.252 34.2376 143.339 30.7652 143.196C31.9188 143.14 41.6165 142.46 52.5625 135.036C64.3695 127.032 64.0016 120.209 63.858 118.301Z" fill="#D340A4"/>
</g>
<path style="mix-blend-mode:soft-light" d="M55.9864 122.529C55.0164 123.733 58.1054 129.775 58.4053 130.293C58.7052 130.811 60.4558 128.137 61.1918 126.995C61.9278 125.852 59.8525 119.953 59.3801 119.446C58.9076 118.939 56.5643 121.808 55.9864 122.529Z" fill="url(#paint19_linear_7_1010)"/>
<path style="mix-blend-mode:soft-light" d="M23.1062 136.757C23.1062 136.757 24.5361 137.529 26.8413 139.468C29.0917 141.367 29.2492 142.911 28.4886 142.657C27.7281 142.402 24.281 138.354 23.1062 136.757Z" fill="url(#paint20_linear_7_1010)"/>
</g>
<g clip-path="url(#clip1_7_1010)">
<path d="M92.1159 188.409C92.1159 188.409 89.2219 191.88 86.5642 194.602L86.553 194.615C84.9742 196.237 83.4688 197.581 82.6443 197.816C80.3199 198.481 71.9535 199.307 58.0073 189.44C46.9544 181.619 41.8145 173.817 40.1235 169.733C40.1001 169.69 40.0873 169.653 40.0756 169.631C39.5856 168.45 39.3982 167.588 39.4603 167.18C40.0193 163.517 45.0466 154.444 45.0466 154.444L92.1159 188.409Z" fill="url(#paint21_linear_7_1010)"/>
<path d="M45.0504 154.44C41.1102 158.192 52.5768 171.825 65.3387 180.722C76.7678 188.672 90.026 193.031 93.0736 187.116C99.5533 174.598 54.0253 145.911 45.0504 154.44Z" fill="url(#paint22_linear_7_1010)"/>
<path d="M85.2469 184.009C78.3124 187.959 51.8294 167.866 50.9591 160.66C50.889 160.339 50.9031 160.006 51 159.692C51.0969 159.378 51.2733 159.095 51.5122 158.869C58.17 152.836 90.909 173.522 86.5036 182.646C86.2364 183.219 85.7972 183.696 85.2469 184.009Z" fill="url(#paint23_linear_7_1010)"/>
<path d="M85.2469 184.009C78.3123 187.959 51.8294 167.866 50.9591 160.66C58.5566 156.512 87.5695 174.961 85.2469 184.009Z" fill="#FFB300"/>
<g style="mix-blend-mode:multiply" opacity="0.2">
<path d="M46.7493 162.658C45.711 161.237 41.8307 170.021 41.9881 171.795C42.1455 173.57 47.4592 180.657 50.7719 183.122C54.0845 185.587 59.7216 178.095 59.6143 177.162C59.507 176.229 53.9068 172.421 46.7493 162.658Z" fill="#BA40A4"/>
</g>
<path d="M70.038 196.137C68.756 195.617 76.5639 189.195 77.676 188.589C78.7882 187.982 84.0372 190.763 89.6387 189.63C89.6387 189.63 83.6974 196.129 80.7742 197.464C77.9111 198.759 71.1884 196.605 70.038 196.137Z" fill="#FF9000"/>
<path style="mix-blend-mode:soft-light" d="M56.077 154.439C49.9533 153.148 65.3298 160.818 67.6336 161.679C69.9374 162.54 67.7532 156.89 56.077 154.439Z" fill="url(#paint24_linear_7_1010)"/>
<g style="mix-blend-mode:multiply" opacity="0.5">
<path d="M79.3246 169.777C76.8413 167.682 69.5291 165.929 69.0107 165.653C68.4923 165.378 80.1568 172.284 85.1331 181.341C85.1244 181.333 89.2181 178.111 79.3246 169.777Z" fill="#D340A4"/>
</g>
<g style="mix-blend-mode:multiply" opacity="0.5">
<path d="M86.5443 194.608C84.9655 196.229 83.4601 197.573 82.6356 197.809C80.3113 198.474 71.9449 199.299 57.9986 189.433C46.9544 181.619 41.8144 173.817 40.1234 169.733C40.8045 171.035 46.775 181.861 61.1945 190.522C76.7435 199.866 84.4194 195.794 86.5443 194.608Z" fill="#D340A4"/>
</g>
<path style="mix-blend-mode:soft-light" d="M77.4566 187.785C75.5493 187.31 70.2293 194.105 69.7914 194.728C69.3535 195.351 73.3753 195.941 75.0872 196.18C76.799 196.418 82.4961 190.869 82.829 190.053C83.1618 189.236 78.5978 188.067 77.4566 187.785Z" fill="url(#paint25_linear_7_1010)"/>
<path style="mix-blend-mode:soft-light" d="M43.4575 157.453C43.4575 157.453 43.3314 159.515 42.3268 163.212C41.3385 166.824 39.6407 167.832 39.5276 166.818C39.4146 165.804 42.2431 159.662 43.4575 157.453Z" fill="url(#paint26_linear_7_1010)"/>
</g>
</g>
<mask id="mask2_7_1010" style="mask-type:alpha" maskUnits="userSpaceOnUse" x="0" y="0" width="225" height="111">
<path d="M5 0H220C222.761 0 225 2.23858 225 5V25L113 110.5L0 25V5C0 2.23858 2.23858 0 5 0Z" fill="#B86868"/>
</mask>
<g mask="url(#mask2_7_1010)">
<g filter="url(#filter2_f_7_1010)">
<rect y="25" width="225" height="84" fill="url(#paint27_linear_7_1010)"/>
</g>
<path d="M160.909 48.2527C167.053 57.7021 170.29 68.7471 170.217 80.0185C170.143 91.2899 166.764 102.292 160.497 111.661C154.23 121.029 145.351 128.353 134.961 132.723C124.571 137.093 113.127 138.318 102.047 136.245C90.9677 134.172 80.7402 128.894 72.6326 121.063C64.5249 113.233 58.8937 103.195 56.437 92.1945C53.9804 81.1939 54.8063 69.7141 58.8125 59.1785C62.8186 48.6428 69.8288 39.5146 78.9739 32.9255C79.7201 32.3649 80.4766 31.8729 81.2525 31.3685C82.0283 30.864 82.7945 30.3658 83.5952 29.9207C96.3698 22.4599 111.526 20.202 125.92 23.6152C140.315 27.0283 152.844 35.8506 160.909 48.2527Z" fill="url(#paint28_linear_7_1010)"/>
<path d="M143.542 127.167C169.791 110.099 177.234 74.9843 160.167 48.7352C143.099 22.4862 107.984 15.0431 81.7351 32.1106C55.4861 49.1781 48.043 84.293 65.1104 110.542C82.1779 136.791 117.293 144.234 143.542 127.167Z" fill="url(#paint29_radial_7_1010)"/>
<path d="M160.453 89.7712C166.051 63.3622 149.18 37.4155 122.771 31.8177C96.3622 26.22 70.4156 43.0908 64.8178 69.4999C59.22 95.9089 76.0909 121.856 102.5 127.453C128.909 133.051 154.856 116.18 160.453 89.7712Z" fill="url(#paint30_linear_7_1010)"/>
<path d="M159.551 89.5865C160.829 83.591 160.941 77.4055 159.881 71.3676L112.638 79.6386L152.461 106.373C155.878 101.283 158.284 95.5843 159.551 89.5865ZM102.689 126.559C108.685 127.835 114.87 127.947 120.908 126.889L112.634 79.6417L85.9074 119.466C90.9961 122.885 96.6951 125.292 102.694 126.556L102.689 126.559ZM65.7162 69.6969C64.4412 75.6919 64.3307 81.8761 65.3908 87.9127L112.638 79.6386L72.8137 52.9124C69.3954 58.0011 66.9884 63.7002 65.7242 69.6986L65.7162 69.6969ZM122.578 32.7244C116.583 31.4463 110.397 31.3342 104.359 32.3941L112.635 79.6338L139.361 39.8091C134.273 36.3958 128.577 33.9922 122.582 32.7292L122.578 32.7244Z" fill="url(#paint31_radial_7_1010)"/>
<path d="M152.513 106.62L112.898 80.0386L121.118 127.034L120.941 127.067C108.702 129.192 96.1142 126.518 85.7959 119.601L85.6424 119.502L112.239 79.8779L65.2417 88.1262L65.2135 87.9458C63.0861 75.7131 65.753 63.1311 72.6603 52.8134L72.7593 52.6599L112.388 79.2531L104.154 32.2467L104.334 32.2185C116.567 30.0911 129.149 32.758 139.467 39.6653L139.62 39.7643L139.518 39.913L113.034 79.3817L160.04 71.1478L160.068 71.3283C162.194 83.5719 159.518 96.1639 152.596 106.484L152.513 106.62ZM113.101 79.7491L152.402 106.123C159.152 95.9629 161.772 83.61 159.727 71.5843L113.101 79.7491ZM86.1583 119.42C96.3202 126.168 108.674 128.785 120.699 126.737L112.537 80.1157L86.1583 119.42ZM65.5383 87.7071L112.161 79.5375L72.8603 53.1633C66.1088 63.3249 63.4899 75.6802 65.5383 87.7071ZM112.735 79.1646L139.117 39.8653C128.955 33.1138 116.6 30.4949 104.573 32.5432L112.735 79.1646Z" fill="url(#paint32_linear_7_1010)"/>
<path d="M160.214 73.578C159.298 66.4153 156.778 59.5516 152.842 53.4977C148.906 47.4439 143.654 42.3559 137.479 38.6126C138.121 38.9978 138.751 39.3972 139.364 39.814L112.638 79.6386L159.881 71.3677C160.013 72.0978 160.122 72.8356 160.214 73.578Z" fill="url(#paint33_radial_7_1010)"/>
<path d="M65.0431 85.7118C65.963 92.8734 68.4845 99.7357 72.4205 105.789C76.3564 111.842 81.6056 116.931 87.7781 120.677C87.1368 120.292 86.5117 119.889 85.8931 119.476L112.624 79.648L65.3909 87.9127C65.2638 87.1795 65.1495 86.4448 65.0431 85.7118Z" fill="url(#paint34_radial_7_1010)"/>
<path d="M106.563 32.0512C99.4028 32.9706 92.5413 35.4916 86.4888 39.427C80.4363 43.3625 75.3483 48.6111 71.6029 54.783C71.9913 54.1466 72.3907 53.5166 72.8075 52.9028L112.632 79.629L104.356 32.3893C105.093 32.2671 105.83 32.1575 106.563 32.0512Z" fill="url(#paint35_radial_7_1010)"/>
<path d="M152.461 106.373L112.638 79.6386L120.913 126.886C120.179 127.013 119.457 127.147 118.702 127.22C125.863 126.3 132.724 123.779 138.777 119.844C144.829 115.908 149.917 110.66 153.663 104.488C153.278 105.129 152.875 105.754 152.461 106.373Z" fill="url(#paint36_radial_7_1010)"/>
<path d="M64.81 57.2527C65.1337 57.3899 65.4095 57.62 65.6023 57.914C65.7951 58.208 65.8963 58.5526 65.8931 58.9041C65.89 59.2557 65.7825 59.5984 65.5844 59.8888C65.3864 60.1793 65.1065 60.4044 64.7804 60.5357C64.4543 60.667 64.0965 60.6985 63.7524 60.6264C63.4084 60.5542 63.0934 60.3815 62.8476 60.1302C62.6017 59.8789 62.436 59.5603 62.3713 59.2147C62.3066 58.8692 62.346 58.5122 62.4844 58.189C62.6693 57.757 63.0179 57.416 63.4538 57.2405C63.8897 57.065 64.3774 57.0694 64.81 57.2527Z" fill="url(#paint37_radial_7_1010)"/>
<path d="M59.8836 77.2603C60.2351 77.2636 60.5776 77.3712 60.8678 77.5693C61.1581 77.7674 61.3831 78.0472 61.5143 78.3732C61.6455 78.6992 61.677 79.0568 61.6049 79.4008C61.5328 79.7447 61.3603 80.0595 61.1092 80.3054C60.858 80.5513 60.5396 80.7171 60.1942 80.7819C59.8488 80.8467 59.492 80.8076 59.1688 80.6696C58.8456 80.5315 58.5707 80.3006 58.3788 80.0062C58.1868 79.7118 58.0866 79.3671 58.0906 79.0157C58.0961 78.5453 58.2879 78.0963 58.6241 77.7672C58.9602 77.4381 59.4132 77.2558 59.8836 77.2603Z" fill="url(#paint38_radial_7_1010)"/>
<path d="M62.9868 97.6279C63.3128 97.4971 63.6704 97.466 64.0142 97.5384C64.358 97.6109 64.6725 97.7837 64.9181 98.0349C65.1637 98.2862 65.3292 98.6047 65.3937 98.95C65.4583 99.2954 65.419 99.6521 65.2807 99.9751C65.1425 100.298 64.9116 100.573 64.6172 100.765C64.3228 100.956 63.9781 101.056 63.6268 101.052C63.2755 101.048 62.9333 100.94 62.6436 100.741C62.3538 100.543 62.1294 100.262 61.9989 99.9362C61.824 99.4991 61.8298 99.0104 62.015 98.5776C62.2002 98.1447 62.5498 97.8031 62.9868 97.6279Z" fill="url(#paint39_radial_7_1010)"/>
<path d="M160.462 102.028C160.138 101.891 159.863 101.662 159.669 101.369C159.476 101.076 159.374 100.732 159.376 100.381C159.378 100.03 159.484 99.6878 159.68 99.3969C159.877 99.106 160.155 98.8799 160.48 98.7471C160.805 98.6142 161.162 98.5806 161.506 98.6506C161.85 98.7205 162.165 98.8908 162.413 99.1399C162.66 99.389 162.828 99.7058 162.895 100.05C162.962 100.395 162.926 100.752 162.791 101.075C162.702 101.292 162.57 101.488 162.404 101.653C162.238 101.818 162.042 101.949 161.825 102.037C161.608 102.126 161.376 102.171 161.143 102.169C160.909 102.167 160.677 102.119 160.462 102.028Z" fill="url(#paint40_radial_7_1010)"/>
<path d="M165.388 82.0201C165.037 82.0161 164.695 81.9079 164.405 81.7092C164.115 81.5105 163.89 81.2302 163.76 80.9039C163.629 80.5775 163.598 80.2198 163.671 79.8759C163.744 79.5321 163.917 79.2175 164.169 78.9722C164.421 78.7269 164.739 78.5617 165.085 78.4977C165.431 78.4337 165.788 78.4737 166.11 78.6126C166.433 78.7515 166.708 78.9831 166.899 79.278C167.09 79.573 167.19 79.918 167.185 80.2695C167.178 80.7396 166.985 81.1878 166.648 81.516C166.312 81.8442 165.859 82.0254 165.388 82.0201Z" fill="url(#paint41_radial_7_1010)"/>
<path d="M162.279 61.6429C161.953 61.7737 161.595 61.8048 161.252 61.7323C160.908 61.6599 160.593 61.4871 160.348 61.2358C160.102 60.9845 159.937 60.6661 159.872 60.3207C159.807 59.9754 159.847 59.6186 159.985 59.2956C160.123 58.9726 160.354 58.6979 160.649 58.5061C160.943 58.3144 161.288 58.2143 161.639 58.2184C161.99 58.2226 162.332 58.3309 162.622 58.5295C162.912 58.7282 163.136 59.0083 163.267 59.3345C163.442 59.7716 163.436 60.2603 163.251 60.6932C163.065 61.126 162.716 61.4676 162.279 61.6429Z" fill="url(#paint42_radial_7_1010)"/>
<path d="M151.618 44.0232C151.367 44.2664 151.049 44.4298 150.705 44.4927C150.361 44.5556 150.006 44.5152 149.685 44.3766C149.364 44.238 149.091 44.0074 148.901 43.7139C148.711 43.4204 148.612 43.0772 148.616 42.7275C148.621 42.3778 148.729 42.0374 148.927 41.7491C149.125 41.4608 149.404 41.2376 149.729 41.1076C150.053 40.9777 150.409 40.9468 150.751 41.0189C151.094 41.0909 151.407 41.2627 151.651 41.5126C151.815 41.6793 151.943 41.8767 152.03 42.0933C152.117 42.3099 152.16 42.5416 152.157 42.7749C152.154 43.0082 152.104 43.2386 152.012 43.4529C151.919 43.6671 151.785 43.8609 151.618 44.0232Z" fill="url(#paint43_radial_7_1010)"/>
<path d="M135.023 31.8182C134.884 32.1409 134.653 32.4153 134.359 32.6068C134.064 32.7983 133.72 32.8982 133.369 32.8939C133.018 32.8896 132.676 32.7814 132.386 32.5828C132.096 32.3842 131.872 32.1042 131.742 31.7783C131.611 31.4523 131.58 31.0949 131.652 30.7513C131.725 30.4077 131.898 30.0933 132.149 29.8478C132.4 29.6024 132.718 29.4369 133.063 29.3722C133.408 29.3076 133.765 29.3467 134.088 29.4846C134.303 29.5757 134.498 29.7085 134.662 29.8753C134.825 30.0422 134.954 30.2398 135.041 30.4567C135.128 30.6737 135.171 30.9057 135.168 31.1393C135.165 31.373 135.115 31.6037 135.023 31.8182Z" fill="url(#paint44_radial_7_1010)"/>
<path d="M115.02 26.8887C115.016 27.2401 114.909 27.5826 114.711 27.8729C114.513 28.1632 114.233 28.3881 113.907 28.5193C113.581 28.6505 113.223 28.6821 112.879 28.61C112.535 28.5379 112.221 28.3653 111.975 28.1142C111.729 27.8631 111.563 27.5447 111.498 27.1993C111.433 26.8539 111.472 26.497 111.611 26.1738C111.749 25.8507 111.979 25.5757 112.274 25.3838C112.568 25.1919 112.913 25.0916 113.264 25.0957C113.735 25.1011 114.184 25.293 114.513 25.6291C114.842 25.9653 115.024 26.4183 115.02 26.8887Z" fill="url(#paint45_radial_7_1010)"/>
<path d="M94.638 30.0011C94.7671 30.3261 94.7971 30.6821 94.7241 31.0241C94.6511 31.3661 94.4785 31.6789 94.228 31.9229C93.9775 32.1669 93.6604 32.3313 93.3166 32.3953C92.9727 32.4592 92.6177 32.4199 92.2962 32.2824C91.9747 32.1448 91.7011 31.915 91.51 31.6222C91.3189 31.3293 91.2189 30.9864 91.2224 30.6367C91.226 30.287 91.3331 29.9462 91.5301 29.6573C91.7272 29.3683 92.0054 29.1443 92.3296 29.0133C92.7667 28.8384 93.2554 28.8442 93.6883 29.0294C94.1211 29.2146 94.4627 29.5641 94.638 30.0011Z" fill="url(#paint46_radial_7_1010)"/>
<path d="M77.0199 40.6544C77.2656 40.9054 77.4314 41.2236 77.4964 41.5688C77.5613 41.9139 77.5225 42.2706 77.3847 42.5937C77.2469 42.9168 77.0165 43.1918 76.7224 43.384C76.4284 43.5761 76.084 43.6767 75.7328 43.6731C75.3815 43.6695 75.0393 43.5619 74.7492 43.3638C74.4592 43.1657 74.2344 42.8861 74.1032 42.5602C73.9721 42.2344 73.9405 41.877 74.0125 41.5332C74.0845 41.1894 74.2567 40.8747 74.5076 40.6288C74.6742 40.4655 74.8713 40.3366 75.0878 40.2494C75.3042 40.1623 75.5357 40.1187 75.769 40.1211C76.0023 40.1235 76.2329 40.1718 76.4475 40.2633C76.6621 40.3548 76.8566 40.4877 77.0199 40.6544Z" fill="url(#paint47_radial_7_1010)"/>
<path style="mix-blend-mode:color-burn" opacity="0.3" d="M159.548 89.5793C165.04 63.6703 148.488 38.2149 122.579 32.7231C96.6703 27.2313 71.2149 43.7828 65.7231 69.6918C60.2313 95.6009 76.7827 121.056 102.692 126.548C128.601 132.04 154.056 115.488 159.548 89.5793Z" fill="url(#paint48_radial_7_1010)"/>
<path d="M89.7984 44.5222L89.3482 35.9637L82.1633 40.6354L89.7984 44.5222Z" fill="url(#paint49_radial_7_1010)"/>
<path style="mix-blend-mode:multiply" opacity="0.6" d="M115.9 86.0883C118.59 84.3388 119.353 80.7393 117.604 78.0487C115.854 75.3581 112.255 74.5951 109.564 76.3446C106.874 78.0941 106.111 81.6935 107.86 84.3842C109.61 87.0748 113.209 87.8378 115.9 86.0883Z" fill="url(#paint50_radial_7_1010)"/>
<path d="M114.747 82.8817C116.538 81.7171 117.046 79.3211 115.881 77.53C114.717 75.7389 112.321 75.231 110.53 76.3956C108.739 77.5602 108.231 79.9562 109.395 81.7473C110.56 83.5384 112.956 84.0463 114.747 82.8817Z" fill="url(#paint51_linear_7_1010)"/>
<path d="M115.231 77.9529C115.566 78.4664 115.742 79.0678 115.735 79.681C115.728 80.2942 115.539 80.8916 115.193 81.3975C114.846 81.9034 114.357 82.2951 113.788 82.5229C113.218 82.7508 112.594 82.8045 111.994 82.6773C111.394 82.5502 110.846 82.2478 110.418 81.8086C109.99 81.3694 109.702 80.8131 109.59 80.21C109.479 79.607 109.549 78.9845 109.791 78.4212C110.034 77.858 110.438 77.3794 110.953 77.0461C111.64 76.599 112.477 76.4434 113.28 76.6134C114.082 76.7835 114.784 77.2653 115.231 77.9529Z" fill="url(#paint52_radial_7_1010)"/>
</g>
<rect x="0.5" y="0.5" width="224" height="224" rx="4.5" stroke="url(#paint53_linear_7_1010)"/>
<defs>
<filter id="filter0_f_7_1010" x="-5" y="70" width="325" height="205" filterUnits="userSpaceOnUse" color-interpolation-filters="sRGB">
<feFlood flood-opacity="0" result="BackgroundImageFix"/>
<feBlend mode="normal" in="SourceGraphic" in2="BackgroundImageFix" result="shape"/>
<feGaussianBlur stdDeviation="25" result="effect1_foregroundBlur_7_1010"/>
</filter>
<filter id="filter1_f_7_1010" x="-106" y="77" width="292" height="198" filterUnits="userSpaceOnUse" color-interpolation-filters="sRGB">
<feFlood flood-opacity="0" result="BackgroundImageFix"/>
<feBlend mode="normal" in="SourceGraphic" in2="BackgroundImageFix" result="shape"/>
<feGaussianBlur stdDeviation="25" result="effect1_foregroundBlur_7_1010"/>
</filter>
<filter id="filter2_f_7_1010" x="-50" y="-25" width="325" height="184" filterUnits="userSpaceOnUse" color-interpolation-filters="sRGB">
<feFlood flood-opacity="0" result="BackgroundImageFix"/>
<feBlend mode="normal" in="SourceGraphic" in2="BackgroundImageFix" result="shape"/>
<feGaussianBlur stdDeviation="25" result="effect1_foregroundBlur_7_1010"/>
</filter>
<linearGradient id="paint0_linear_7_1010" x1="112.5" y1="-24.6951" x2="112.5" y2="225" gradientUnits="userSpaceOnUse">
<stop stop-color="#3D3737" stop-opacity="0.25"/>
<stop offset="1" stop-color="#404550" stop-opacity="0.1"/>
</linearGradient>
<linearGradient id="paint1_linear_7_1010" x1="157.5" y1="120" x2="157.5" y2="225" gradientUnits="userSpaceOnUse">
<stop stop-color="white" stop-opacity="0"/>
<stop offset="1" stop-color="#D87290"/>
</linearGradient>
<linearGradient id="paint2_linear_7_1010" x1="158.284" y1="203.609" x2="135.669" y2="157.015" gradientUnits="userSpaceOnUse">
<stop stop-color="#FF8777"/>
<stop offset="0.98" stop-color="#FFB880"/>
</linearGradient>
<linearGradient id="paint3_linear_7_1010" x1="173.082" y1="235.065" x2="148.604" y2="184.632" gradientUnits="userSpaceOnUse">
<stop offset="0.02" stop-color="#FFB880"/>
<stop offset="1" stop-color="#FF8777"/>
</linearGradient>
<linearGradient id="paint4_linear_7_1010" x1="162.266" y1="197.579" x2="143.617" y2="206.631" gradientUnits="userSpaceOnUse">
<stop/>
<stop offset="0.04" stop-color="#0C0300"/>
<stop offset="0.4" stop-color="#6B1F00"/>
<stop offset="0.69" stop-color="#B03300"/>
<stop offset="0.89" stop-color="#DB3F00"/>
<stop offset="1" stop-color="#EC4400"/>
</linearGradient>
<linearGradient id="paint5_linear_7_1010" x1="179.176" y1="241.676" x2="211.684" y2="138.07" gradientUnits="userSpaceOnUse">
<stop offset="0.02" stop-color="#FFB880"/>
<stop offset="1" stop-color="#FF8777"/>
</linearGradient>
<linearGradient id="paint6_linear_7_1010" x1="199.578" y1="187.036" x2="219.849" y2="176.448" gradientUnits="userSpaceOnUse">
<stop stop-color="#FF8777"/>
<stop offset="0.98" stop-color="#FFB880"/>
</linearGradient>
<linearGradient id="paint7_linear_7_1010" x1="185.17" y1="167.547" x2="191.986" y2="145.824" gradientUnits="userSpaceOnUse">
<stop stop-color="#FF8777"/>
<stop offset="0.98" stop-color="#FFB880"/>
</linearGradient>
<linearGradient id="paint8_linear_7_1010" x1="196.509" y1="167.579" x2="206.495" y2="135.753" gradientUnits="userSpaceOnUse">
<stop stop-color="#FF8777"/>
<stop offset="0.98" stop-color="#FFB880"/>
</linearGradient>
<linearGradient id="paint9_linear_7_1010" x1="205.681" y1="171.388" x2="214.326" y2="143.837" gradientUnits="userSpaceOnUse">
<stop stop-color="#FF8777"/>
<stop offset="0.98" stop-color="#FFB880"/>
</linearGradient>
<linearGradient id="paint10_linear_7_1010" x1="213.832" y1="155.411" x2="213.936" y2="155.078" gradientUnits="userSpaceOnUse">
<stop offset="0.01" stop-color="#B060F4"/>
<stop offset="1" stop-color="#FFEADB"/>
</linearGradient>
<linearGradient id="paint11_linear_7_1010" x1="196.675" y1="143.113" x2="196.755" y2="142.855" gradientUnits="userSpaceOnUse">
<stop stop-color="#FFEADB"/>
<stop offset="0.99" stop-color="#B060F4"/>
</linearGradient>
<linearGradient id="paint12_linear_7_1010" x1="191.675" y1="183.325" x2="207.77" y2="190.12" gradientUnits="userSpaceOnUse">
<stop/>
<stop offset="0.04" stop-color="#0C0300"/>
<stop offset="0.4" stop-color="#6B1F00"/>
<stop offset="0.69" stop-color="#B03300"/>
<stop offset="0.89" stop-color="#DB3F00"/>
<stop offset="1" stop-color="#EC4400"/>
</linearGradient>
<linearGradient id="paint13_linear_7_1010" x1="209.642" y1="177.868" x2="194.678" y2="171.371" gradientUnits="userSpaceOnUse">
<stop/>
<stop offset="0.04" stop-color="#0C0300"/>
<stop offset="0.4" stop-color="#6B1F00"/>
<stop offset="0.69" stop-color="#B03300"/>
<stop offset="0.89" stop-color="#DB3F00"/>
<stop offset="1" stop-color="#EC4400"/>
</linearGradient>
<linearGradient id="paint14_linear_7_1010" x1="40" y1="127" x2="40" y2="225" gradientUnits="userSpaceOnUse">
<stop stop-color="white" stop-opacity="0"/>
<stop offset="1" stop-color="#FF9D2B"/>
</linearGradient>
<linearGradient id="paint15_linear_7_1010" x1="26.4227" y1="142.178" x2="64.5313" y2="117.26" gradientUnits="userSpaceOnUse">
<stop stop-color="#FF5900"/>
<stop offset="1" stop-color="#FF9019"/>
</linearGradient>
<linearGradient id="paint16_linear_7_1010" x1="45.5694" y1="129.801" x2="36.8458" y2="116.459" gradientUnits="userSpaceOnUse">
<stop stop-color="#FFCA00"/>
<stop offset="1" stop-color="#FFCE19"/>
</linearGradient>
<linearGradient id="paint17_linear_7_1010" x1="43.9186" y1="127.366" x2="37.992" y2="118.303" gradientUnits="userSpaceOnUse">
<stop stop-color="#FF5900"/>
<stop offset="1" stop-color="#FF9019"/>
</linearGradient>
<linearGradient id="paint18_linear_7_1010" x1="24.1331" y1="126.999" x2="34.3147" y2="120.342" gradientUnits="userSpaceOnUse">
<stop stop-color="#FFCA00"/>
<stop offset="1" stop-color="#FFCE19"/>
</linearGradient>
<linearGradient id="paint19_linear_7_1010" x1="61.3085" y1="128.569" x2="56.4305" y2="121.109" gradientUnits="userSpaceOnUse">
<stop stop-color="#FFCA00"/>
<stop offset="1" stop-color="#FFCE19"/>
</linearGradient>
<linearGradient id="paint20_linear_7_1010" x1="28.3501" y1="142.927" x2="23.9495" y2="136.197" gradientUnits="userSpaceOnUse">
<stop stop-color="#FFCA00"/>
<stop offset="1" stop-color="#FFCE19"/>
</linearGradient>
<linearGradient id="paint21_linear_7_1010" x1="38.9757" y1="164.178" x2="88.106" y2="194.828" gradientUnits="userSpaceOnUse">
<stop stop-color="#FF5900"/>
<stop offset="1" stop-color="#FF9019"/>
</linearGradient>
<linearGradient id="paint22_linear_7_1010" x1="63.4959" y1="179.654" x2="74.226" y2="162.454" gradientUnits="userSpaceOnUse">
<stop stop-color="#FFCA00"/>
<stop offset="1" stop-color="#FFCE19"/>
</linearGradient>
<linearGradient id="paint23_linear_7_1010" x1="65.4224" y1="176.447" x2="72.7121" y2="164.762" gradientUnits="userSpaceOnUse">
<stop stop-color="#FF5900"/>
<stop offset="1" stop-color="#FF9019"/>
</linearGradient>
<linearGradient id="paint24_linear_7_1010" x1="55.2665" y1="153.42" x2="68.3928" y2="161.609" gradientUnits="userSpaceOnUse">
<stop stop-color="#FFCA00"/>
<stop offset="1" stop-color="#FFCE19"/>
</linearGradient>
<linearGradient id="paint25_linear_7_1010" x1="73.3332" y1="197.156" x2="79.3332" y2="187.538" gradientUnits="userSpaceOnUse">
<stop stop-color="#FFCA00"/>
<stop offset="1" stop-color="#FFCE19"/>
</linearGradient>
<linearGradient id="paint26_linear_7_1010" x1="39.1415" y1="166.803" x2="44.5543" y2="158.126" gradientUnits="userSpaceOnUse">
<stop stop-color="#FFCA00"/>
<stop offset="1" stop-color="#FFCE19"/>
</linearGradient>
<linearGradient id="paint27_linear_7_1010" x1="112.5" y1="25" x2="112.5" y2="109" gradientUnits="userSpaceOnUse">
<stop stop-color="white" stop-opacity="0"/>
<stop offset="1" stop-color="#C0008A"/>
</linearGradient>
<linearGradient id="paint28_linear_7_1010" x1="124.12" y1="25.469" x2="99.8587" y2="139.911" gradientUnits="userSpaceOnUse">
<stop stop-color="#F9DF7B"/>
<stop offset="0.2" stop-color="#B57E10"/>
<stop offset="0.26" stop-color="#B78114"/>
<stop offset="0.32" stop-color="#BF8C1F"/>
<stop offset="0.38" stop-color="#CB9E33"/>
<stop offset="0.44" stop-color="#DDB64E"/>
<stop offset="0.49" stop-color="#F3D671"/>
<stop offset="0.51" stop-color="#F9DF7B"/>
<stop offset="0.52" stop-color="#FFF3A6"/>
<stop offset="0.59" stop-color="#F9DF7B"/>
<stop offset="0.84" stop-color="#B57E10"/>
<stop offset="0.95" stop-color="#E5C35C"/>
<stop offset="1" stop-color="#F9DF7B"/>
</linearGradient>
<radialGradient id="paint29_radial_7_1010" cx="0" cy="0" r="1" gradientUnits="userSpaceOnUse" gradientTransform="translate(112.638 79.6386) rotate(-33.0325) scale(56.6916 56.6916)">
<stop stop-color="#5C573A"/>
<stop offset="0.85" stop-color="#580043"/>
<stop offset="1" stop-color="#300025"/>
</radialGradient>
<linearGradient id="paint30_linear_7_1010" x1="67.7617" y1="70.1298" x2="156.253" y2="88.8867" gradientUnits="userSpaceOnUse">
<stop stop-color="#F9DF7B"/>
<stop offset="0.2" stop-color="#B57E10"/>
<stop offset="0.26" stop-color="#B78114"/>
<stop offset="0.32" stop-color="#BF8C1F"/>
<stop offset="0.38" stop-color="#CB9E33"/>
<stop offset="0.44" stop-color="#DDB64E"/>
<stop offset="0.49" stop-color="#F3D671"/>
<stop offset="0.51" stop-color="#F9DF7B"/>
<stop offset="0.52" stop-color="#FFF3A6"/>
<stop offset="0.59" stop-color="#F9DF7B"/>
<stop offset="0.84" stop-color="#B57E10"/>
<stop offset="0.95" stop-color="#E5C35C"/>
<stop offset="1" stop-color="#F9DF7B"/>
</linearGradient>
<radialGradient id="paint31_radial_7_1010" cx="0" cy="0" r="1" gradientUnits="userSpaceOnUse" gradientTransform="translate(112.638 79.6386) rotate(-33.0325) scale(52.3749 52.3749)">
<stop stop-color="#5C573A"/>
<stop offset="0.85" stop-color="#580043"/>
<stop offset="1" stop-color="#5C573A"/>
</radialGradient>
<linearGradient id="paint32_linear_7_1010" x1="75.4467" y1="103.821" x2="149.825" y2="55.4592" gradientUnits="userSpaceOnUse">
<stop stop-color="#F9DF7B"/>
<stop offset="0.2" stop-color="#B57E10"/>
<stop offset="0.26" stop-color="#B78114"/>
<stop offset="0.32" stop-color="#BF8C1F"/>
<stop offset="0.38" stop-color="#CB9E33"/>
<stop offset="0.44" stop-color="#DDB64E"/>
<stop offset="0.49" stop-color="#F3D671"/>
<stop offset="0.51" stop-color="#F9DF7B"/>
<stop offset="0.52" stop-color="#FFF3A6"/>
<stop offset="0.59" stop-color="#F9DF7B"/>
<stop offset="0.84" stop-color="#B57E10"/>
<stop offset="0.95" stop-color="#E5C35C"/>
<stop offset="1" stop-color="#F9DF7B"/>
</linearGradient>
<radialGradient id="paint33_radial_7_1010" cx="0" cy="0" r="1" gradientUnits="userSpaceOnUse" gradientTransform="translate(112.489 79.3452) rotate(-33.0325) scale(56.2663 56.2663)">
<stop stop-color="#F5D919"/>
<stop offset="0.85" stop-color="#F16922"/>
<stop offset="1" stop-color="#F5D919"/>
</radialGradient>
<radialGradient id="paint34_radial_7_1010" cx="0" cy="0" r="1" gradientUnits="userSpaceOnUse" gradientTransform="translate(112.489 79.3452) rotate(-33.0325) scale(56.2663 56.2663)">
<stop stop-color="#F5D919"/>
<stop offset="0.85" stop-color="#F16922"/>
<stop offset="1" stop-color="#F5D919"/>
</radialGradient>
<radialGradient id="paint35_radial_7_1010" cx="0" cy="0" r="1" gradientUnits="userSpaceOnUse" gradientTransform="translate(112.46 79.364) rotate(-33.0325) scale(56.3582 56.3582)">
<stop stop-color="#F5D919"/>
<stop offset="0.85" stop-color="#F16922"/>
<stop offset="1" stop-color="#F5D919"/>
</radialGradient>
<radialGradient id="paint36_radial_7_1010" cx="0" cy="0" r="1" gradientUnits="userSpaceOnUse" gradientTransform="translate(112.455 79.3671) rotate(-33.0325) scale(56.2835 56.2835)">
<stop stop-color="#F5D919"/>
<stop offset="0.85" stop-color="#F16922"/>
<stop offset="1" stop-color="#F5D919"/>
</radialGradient>
<radialGradient id="paint37_radial_7_1010" cx="0" cy="0" r="1" gradientUnits="userSpaceOnUse" gradientTransform="translate(64.8383 58.6717) rotate(-67.04) scale(2.71065)">
<stop stop-color="#F5D919"/>
<stop offset="0.85" stop-color="#F16922"/>
<stop offset="1" stop-color="#F5D919"/>
</radialGradient>
<radialGradient id="paint38_radial_7_1010" cx="0" cy="0" r="1" gradientUnits="userSpaceOnUse" gradientTransform="translate(60.7775 76.158) rotate(-89.502) scale(2.6956)">
<stop stop-color="#F5D919"/>
<stop offset="0.85" stop-color="#F16922"/>
<stop offset="1" stop-color="#F5D919"/>
</radialGradient>
<radialGradient id="paint39_radial_7_1010" cx="0" cy="0" r="1" gradientUnits="userSpaceOnUse" gradientTransform="translate(65.3352 97.1151) rotate(-112.06) scale(2.70252)">
<stop stop-color="#F5D919"/>
<stop offset="0.85" stop-color="#F16922"/>
<stop offset="1" stop-color="#F5D919"/>
</radialGradient>
<radialGradient id="paint40_radial_7_1010" cx="0" cy="0" r="1" gradientUnits="userSpaceOnUse" gradientTransform="translate(163.571 97.641) rotate(112.96) scale(2.71064 2.71065)">
<stop stop-color="#F5D919"/>
<stop offset="0.85" stop-color="#F16922"/>
<stop offset="1" stop-color="#F5D919"/>
</radialGradient>
<radialGradient id="paint41_radial_7_1010" cx="0" cy="0" r="1" gradientUnits="userSpaceOnUse" gradientTransform="translate(161.53 77.976) rotate(90.4979) scale(2.6956 2.69559)">
<stop stop-color="#F5D919"/>
<stop offset="0.85" stop-color="#F16922"/>
<stop offset="1" stop-color="#F5D919"/>
</radialGradient>
<radialGradient id="paint42_radial_7_1010" cx="0" cy="0" r="1" gradientUnits="userSpaceOnUse" gradientTransform="translate(160.105 57.2599) rotate(67.9398) scale(2.70252)">
<stop stop-color="#F5D919"/>
<stop offset="0.85" stop-color="#F16922"/>
<stop offset="1" stop-color="#F5D919"/>
</radialGradient>
<radialGradient id="paint43_radial_7_1010" cx="0" cy="0" r="1" gradientUnits="userSpaceOnUse" gradientTransform="translate(151.211 42.8115) rotate(45.6575) scale(2.70726 2.70727)">
<stop stop-color="#F5D919"/>
<stop offset="0.85" stop-color="#F16922"/>
<stop offset="1" stop-color="#F5D919"/>
</radialGradient>
<radialGradient id="paint44_radial_7_1010" cx="0" cy="0" r="1" gradientUnits="userSpaceOnUse" gradientTransform="translate(133.687 28.7903) rotate(22.9601) scale(2.71065)">
<stop stop-color="#F5D919"/>
<stop offset="0.85" stop-color="#F16922"/>
<stop offset="1" stop-color="#F5D919"/>
</radialGradient>
<radialGradient id="paint45_radial_7_1010" cx="0" cy="0" r="1" gradientUnits="userSpaceOnUse" gradientTransform="translate(112.066 26.6897) rotate(0.497996) scale(2.6956)">
<stop stop-color="#F5D919"/>
<stop offset="0.85" stop-color="#F16922"/>
<stop offset="1" stop-color="#F5D919"/>
</radialGradient>
<radialGradient id="paint46_radial_7_1010" cx="0" cy="0" r="1" gradientUnits="userSpaceOnUse" gradientTransform="translate(92.7952 29.8065) rotate(-22.0602) scale(2.70252 2.70252)">
<stop stop-color="#F5D919"/>
<stop offset="0.85" stop-color="#F16922"/>
<stop offset="1" stop-color="#F5D919"/>
</radialGradient>
<radialGradient id="paint47_radial_7_1010" cx="0" cy="0" r="1" gradientUnits="userSpaceOnUse" gradientTransform="translate(75.816 41.0478) rotate(-44.3425) scale(2.70726)">
<stop stop-color="#F5D919"/>
<stop offset="0.85" stop-color="#F16922"/>
<stop offset="1" stop-color="#F5D919"/>
</radialGradient>
<radialGradient id="paint48_radial_7_1010" cx="0" cy="0" r="1" gradientUnits="userSpaceOnUse" gradientTransform="translate(112.64 79.6383) rotate(-33.0325) scale(50.3919)">
<stop offset="0.92" stop-color="#5C573A"/>
<stop offset="1" stop-color="#4D4D4D"/>
</radialGradient>
<radialGradient id="paint49_radial_7_1010" cx="0" cy="0" r="1" gradientUnits="userSpaceOnUse" gradientTransform="translate(91.7236 46.8082) rotate(-33.0325) scale(15.3067 15.3067)">
<stop stop-color="#5C573A"/>
<stop offset="0.85" stop-color="#580043"/>
<stop offset="1" stop-color="#300025"/>
</radialGradient>
<radialGradient id="paint50_radial_7_1010" cx="0" cy="0" r="1" gradientUnits="userSpaceOnUse" gradientTransform="translate(112.732 81.2164) rotate(-33.0325) scale(5.81113)">
<stop offset="0.59" stop-color="#5F3E41"/>
<stop offset="0.74" stop-color="#A39092"/>
<stop offset="0.86" stop-color="#D4CCCD"/>
<stop offset="0.95" stop-color="#F3F1F1"/>
<stop offset="1" stop-color="white"/>
</radialGradient>
<linearGradient id="paint51_linear_7_1010" x1="109.166" y1="78.9069" x2="117.286" y2="80.6278" gradientUnits="userSpaceOnUse">
<stop stop-color="#F9DF7B"/>
<stop offset="0.2" stop-color="#B57E10"/>
<stop offset="0.26" stop-color="#B78114"/>
<stop offset="0.32" stop-color="#BF8C1F"/>
<stop offset="0.38" stop-color="#CB9E33"/>
<stop offset="0.44" stop-color="#DDB64E"/>
<stop offset="0.49" stop-color="#F3D671"/>
<stop offset="0.51" stop-color="#F9DF7B"/>
<stop offset="0.52" stop-color="#FFF3A6"/>
<stop offset="0.59" stop-color="#F9DF7B"/>
<stop offset="0.84" stop-color="#B57E10"/>
<stop offset="0.95" stop-color="#E5C35C"/>
<stop offset="1" stop-color="#F9DF7B"/>
</linearGradient>
<radialGradient id="paint52_radial_7_1010" cx="0" cy="0" r="1" gradientUnits="userSpaceOnUse" gradientTransform="translate(112.638 79.6386) rotate(-33.0325) scale(3.09237)">
<stop stop-color="#5C573A"/>
<stop offset="0.85" stop-color="#580043"/>
<stop offset="1" stop-color="#300025"/>
</radialGradient>
<linearGradient id="paint53_linear_7_1010" x1="112.5" y1="-16.4634" x2="112.5" y2="225" gradientUnits="userSpaceOnUse">
<stop stop-color="white" stop-opacity="0.6"/>
<stop offset="1" stop-color="white" stop-opacity="0"/>
</linearGradient>
<clipPath id="clip0_7_1010">
<rect width="45.476" height="25.3419" fill="white" transform="translate(17 124.663) rotate(-24.2297)"/>
</clipPath>
<clipPath id="clip1_7_1010">
<rect width="57.8352" height="32.2292" fill="white" transform="translate(54.1477 143.94) rotate(40.9077)"/>
</clipPath>
</defs>
</svg>
