<svg width="225" height="225" viewBox="0 0 225 225" fill="none" xmlns="http://www.w3.org/2000/svg">
<rect x="0.5" y="0.5" width="224" height="224" rx="4.5" fill="url(#paint0_linear_7_1427)"/>
<mask id="mask0_7_1427" style="mask-type:alpha" maskUnits="userSpaceOnUse" x="113" y="25" width="112" height="200">
<path d="M225 25L113 110.333V225H220C222.761 225 225 222.761 225 220V25Z" fill="#7B2020"/>
</mask>
<g mask="url(#mask0_7_1427)">
<g filter="url(#filter0_f_7_1427)">
<rect x="72" y="141" width="225" height="84" fill="url(#paint1_linear_7_1427)"/>
</g>
<path d="M237.909 175.253C244.053 184.702 247.29 195.747 247.217 207.019C247.143 218.29 243.764 229.292 237.497 238.661C231.23 248.029 222.351 255.353 211.961 259.723C201.571 264.093 190.127 265.318 179.047 263.245C167.968 261.173 157.74 255.894 149.633 248.063C141.525 240.233 135.894 230.195 133.437 219.195C130.98 208.194 131.806 196.714 135.812 186.179C139.819 175.643 146.829 166.515 155.974 159.926C156.72 159.365 157.477 158.873 158.252 158.369C159.028 157.864 159.794 157.366 160.595 156.921C173.37 149.46 188.526 147.202 202.92 150.615C217.315 154.028 229.844 162.851 237.909 175.253Z" fill="url(#paint2_linear_7_1427)"/>
<path d="M220.542 254.167C246.791 237.099 254.234 201.984 237.167 175.735C220.099 149.486 184.984 142.043 158.735 159.111C132.486 176.178 125.043 211.293 142.11 237.542C159.178 263.791 194.293 271.234 220.542 254.167Z" fill="url(#paint3_radial_7_1427)"/>
<path d="M237.453 216.771C243.051 190.362 226.18 164.415 199.771 158.818C173.362 153.22 147.416 170.091 141.818 196.5C136.22 222.909 153.091 248.856 179.5 254.453C205.909 260.051 231.856 243.18 237.453 216.771Z" fill="url(#paint4_linear_7_1427)"/>
<path d="M236.551 216.586C237.829 210.591 237.941 204.405 236.881 198.368L189.638 206.639L229.461 233.373C232.878 228.283 235.284 222.584 236.551 216.586ZM179.689 253.559C185.685 254.835 191.87 254.947 197.908 253.889L189.634 206.642L162.907 246.466C167.996 249.885 173.695 252.292 179.694 253.556L179.689 253.559ZM142.716 196.697C141.441 202.692 141.331 208.876 142.391 214.913L189.638 206.639L149.814 179.912C146.395 185.001 143.988 190.7 142.724 196.699L142.716 196.697ZM199.578 159.724C193.583 158.446 187.397 158.334 181.359 159.394L189.635 206.634L216.361 166.809C211.273 163.396 205.577 160.992 199.582 159.729L199.578 159.724Z" fill="url(#paint5_radial_7_1427)"/>
<path d="M229.513 233.62L189.898 207.039L198.118 254.034L197.941 254.067C185.702 256.192 173.114 253.518 162.796 246.601L162.642 246.502L189.239 206.878L142.242 215.126L142.213 214.946C140.086 202.713 142.753 190.131 149.66 179.813L149.759 179.66L189.388 206.253L181.154 159.247L181.334 159.218C193.567 157.091 206.149 159.758 216.467 166.665L216.62 166.764L216.518 166.913L190.034 206.382L237.04 198.148L237.068 198.328C239.194 210.572 236.518 223.164 229.596 233.484L229.513 233.62ZM190.101 206.749L229.402 233.123C236.152 222.963 238.772 210.61 236.727 198.584L190.101 206.749ZM163.158 246.42C173.32 253.168 185.674 255.785 197.699 253.737L189.537 207.116L163.158 246.42ZM142.538 214.707L189.161 206.537L149.86 180.163C143.109 190.325 140.49 202.68 142.538 214.707ZM189.735 206.165L216.117 166.865C205.955 160.114 193.6 157.495 181.573 159.543L189.735 206.165Z" fill="url(#paint6_linear_7_1427)"/>
<path d="M237.214 200.578C236.298 193.415 233.778 186.552 229.842 180.498C225.906 174.444 220.654 169.356 214.479 165.613C215.121 165.998 215.751 166.397 216.364 166.814L189.638 206.639L236.881 198.368C237.013 199.098 237.122 199.836 237.214 200.578Z" fill="url(#paint7_radial_7_1427)"/>
<path d="M142.043 212.712C142.963 219.873 145.485 226.736 149.42 232.789C153.356 238.842 158.606 243.931 164.778 247.677C164.137 247.292 163.512 246.889 162.893 246.476L189.624 206.648L142.391 214.913C142.264 214.179 142.149 213.445 142.043 212.712Z" fill="url(#paint8_radial_7_1427)"/>
<path d="M183.563 159.051C176.403 159.971 169.541 162.492 163.489 166.427C157.436 170.362 152.348 175.611 148.603 181.783C148.991 181.147 149.391 180.517 149.807 179.903L189.632 206.629L181.356 159.389C182.093 159.267 182.83 159.158 183.563 159.051Z" fill="url(#paint9_radial_7_1427)"/>
<path d="M229.461 233.373L189.638 206.639L197.913 253.886C197.179 254.013 196.457 254.147 195.702 254.22C202.863 253.3 209.724 250.779 215.777 246.844C221.829 242.908 226.917 237.66 230.663 231.488C230.278 232.129 229.875 232.754 229.461 233.373Z" fill="url(#paint10_radial_7_1427)"/>
<path d="M141.81 184.253C142.134 184.39 142.409 184.62 142.602 184.914C142.795 185.208 142.896 185.553 142.893 185.904C142.89 186.256 142.783 186.598 142.584 186.889C142.386 187.179 142.107 187.404 141.78 187.536C141.454 187.667 141.097 187.698 140.752 187.626C140.408 187.554 140.093 187.381 139.848 187.13C139.602 186.879 139.436 186.56 139.371 186.215C139.307 185.869 139.346 185.512 139.484 185.189C139.669 184.757 140.018 184.416 140.454 184.24C140.89 184.065 141.377 184.069 141.81 184.253Z" fill="url(#paint11_radial_7_1427)"/>
<path d="M136.884 204.26C137.235 204.264 137.578 204.371 137.868 204.569C138.158 204.767 138.383 205.047 138.514 205.373C138.646 205.699 138.677 206.057 138.605 206.401C138.533 206.745 138.36 207.059 138.109 207.305C137.858 207.551 137.54 207.717 137.194 207.782C136.849 207.847 136.492 207.808 136.169 207.669C135.846 207.531 135.571 207.301 135.379 207.006C135.187 206.712 135.087 206.367 135.091 206.016C135.096 205.545 135.288 205.096 135.624 204.767C135.96 204.438 136.413 204.256 136.884 204.26Z" fill="url(#paint12_radial_7_1427)"/>
<path d="M139.987 224.628C140.313 224.497 140.67 224.466 141.014 224.538C141.358 224.611 141.673 224.784 141.918 225.035C142.164 225.286 142.329 225.605 142.394 225.95C142.458 226.295 142.419 226.652 142.281 226.975C142.143 227.298 141.912 227.573 141.617 227.764C141.323 227.956 140.978 228.056 140.627 228.052C140.276 228.048 139.933 227.94 139.644 227.741C139.354 227.542 139.129 227.262 138.999 226.936C138.824 226.499 138.83 226.01 139.015 225.577C139.2 225.145 139.55 224.803 139.987 224.628Z" fill="url(#paint13_radial_7_1427)"/>
<path d="M228.618 171.023C228.367 171.267 228.049 171.43 227.705 171.493C227.361 171.556 227.006 171.515 226.685 171.377C226.364 171.238 226.091 171.008 225.901 170.714C225.711 170.421 225.612 170.077 225.616 169.728C225.621 169.378 225.729 169.037 225.927 168.749C226.125 168.461 226.404 168.238 226.729 168.108C227.053 167.978 227.409 167.947 227.751 168.019C228.094 168.091 228.407 168.263 228.651 168.513C228.815 168.679 228.943 168.877 229.03 169.093C229.117 169.31 229.16 169.542 229.157 169.775C229.154 170.008 229.104 170.239 229.012 170.453C228.919 170.667 228.785 170.861 228.618 171.023Z" fill="url(#paint14_radial_7_1427)"/>
<path d="M212.023 158.818C211.884 159.141 211.653 159.415 211.359 159.607C211.064 159.798 210.72 159.898 210.369 159.894C210.018 159.89 209.676 159.781 209.386 159.583C209.096 159.384 208.872 159.104 208.742 158.778C208.611 158.452 208.58 158.095 208.652 157.751C208.725 157.408 208.898 157.093 209.149 156.848C209.4 156.602 209.718 156.437 210.063 156.372C210.408 156.308 210.765 156.347 211.088 156.485C211.303 156.576 211.498 156.709 211.662 156.875C211.825 157.042 211.954 157.24 212.041 157.457C212.128 157.674 212.171 157.906 212.168 158.139C212.165 158.373 212.115 158.604 212.023 158.818Z" fill="url(#paint15_radial_7_1427)"/>
<path d="M192.02 153.889C192.016 154.24 191.909 154.583 191.711 154.873C191.513 155.163 191.233 155.388 190.907 155.519C190.581 155.651 190.223 155.682 189.879 155.61C189.535 155.538 189.221 155.365 188.975 155.114C188.729 154.863 188.563 154.545 188.498 154.199C188.433 153.854 188.472 153.497 188.611 153.174C188.749 152.851 188.979 152.576 189.274 152.384C189.568 152.192 189.913 152.092 190.264 152.096C190.735 152.101 191.184 152.293 191.513 152.629C191.842 152.965 192.024 153.418 192.02 153.889Z" fill="url(#paint16_radial_7_1427)"/>
<path d="M171.638 157.001C171.767 157.326 171.797 157.682 171.724 158.024C171.651 158.366 171.479 158.679 171.228 158.923C170.978 159.167 170.66 159.331 170.317 159.395C169.973 159.459 169.618 159.42 169.296 159.282C168.975 159.145 168.701 158.915 168.51 158.622C168.319 158.329 168.219 157.986 168.222 157.637C168.226 157.287 168.333 156.946 168.53 156.657C168.727 156.368 169.005 156.144 169.33 156.013C169.767 155.838 170.255 155.844 170.688 156.03C171.121 156.215 171.463 156.564 171.638 157.001Z" fill="url(#paint17_radial_7_1427)"/>
<path d="M154.02 167.654C154.266 167.905 154.431 168.224 154.496 168.569C154.561 168.914 154.522 169.271 154.385 169.594C154.247 169.917 154.016 170.192 153.722 170.384C153.428 170.576 153.084 170.677 152.733 170.673C152.382 170.669 152.039 170.562 151.749 170.364C151.459 170.166 151.234 169.886 151.103 169.56C150.972 169.234 150.941 168.877 151.012 168.533C151.084 168.189 151.257 167.875 151.508 167.629C151.674 167.465 151.871 167.336 152.088 167.249C152.304 167.162 152.536 167.119 152.769 167.121C153.002 167.123 153.233 167.172 153.448 167.263C153.662 167.355 153.857 167.488 154.02 167.654Z" fill="url(#paint18_radial_7_1427)"/>
<path style="mix-blend-mode:color-burn" opacity="0.3" d="M236.548 216.579C242.04 190.67 225.488 165.215 199.579 159.723C173.67 154.231 148.215 170.783 142.723 196.692C137.231 222.601 153.783 248.056 179.692 253.548C205.601 259.04 231.056 242.488 236.548 216.579Z" fill="url(#paint19_radial_7_1427)"/>
<path d="M166.798 171.522L166.348 162.964L159.163 167.635L166.798 171.522Z" fill="url(#paint20_radial_7_1427)"/>
<path style="mix-blend-mode:multiply" opacity="0.6" d="M192.9 213.088C195.59 211.339 196.353 207.739 194.604 205.049C192.854 202.358 189.255 201.595 186.564 203.345C183.874 205.094 183.111 208.694 184.86 211.384C186.61 214.075 190.209 214.838 192.9 213.088Z" fill="url(#paint21_radial_7_1427)"/>
<path d="M191.747 209.882C193.538 208.717 194.046 206.321 192.881 204.53C191.717 202.739 189.321 202.231 187.53 203.395C185.739 204.56 185.231 206.956 186.395 208.747C187.56 210.538 189.956 211.046 191.747 209.882Z" fill="url(#paint22_linear_7_1427)"/>
<path d="M192.231 204.953C192.566 205.466 192.742 206.068 192.735 206.681C192.728 207.294 192.539 207.892 192.193 208.398C191.846 208.903 191.357 209.295 190.788 209.523C190.218 209.751 189.594 209.804 188.994 209.677C188.394 209.55 187.846 209.248 187.418 208.809C186.99 208.369 186.702 207.813 186.59 207.21C186.479 206.607 186.549 205.984 186.791 205.421C187.034 204.858 187.438 204.379 187.953 204.046C188.64 203.599 189.477 203.443 190.28 203.613C191.082 203.784 191.784 204.265 192.231 204.953Z" fill="url(#paint23_radial_7_1427)"/>
</g>
<mask id="mask1_7_1427" style="mask-type:alpha" maskUnits="userSpaceOnUse" x="0" y="25" width="113" height="200">
<path d="M0 25L113 110.333V225H5C2.23858 225 0 222.761 0 220V25Z" fill="#FF5D5D"/>
</mask>
<g mask="url(#mask1_7_1427)">
<g filter="url(#filter1_f_7_1427)">
<rect x="-66" y="120" width="225" height="105" fill="url(#paint24_linear_7_1427)"/>
</g>
<path d="M54.3968 143.376C55.8051 139.846 53.5078 135.299 50.0138 133.916C45.7385 132.226 41.2569 134.79 39.8553 138.977C38.7028 142.431 38.8545 145.614 36.6027 148.68C34.867 151.08 32.3407 152.791 29.468 153.513C25.2275 154.498 19.6359 150.862 18.389 146.769C16.9598 141.972 19.524 136.263 24.1338 134.291C24.7849 134.013 25.2537 134.998 24.5693 135.266C23.0081 135.981 21.6733 137.112 20.7102 138.534C19.7472 139.956 19.1928 141.615 19.1075 143.33C18.8091 147.528 21.6427 150.409 25.2889 152.012C29.0961 153.685 33.372 151.103 35.6371 148.041C38.0765 144.762 37.5835 140.873 39.2262 137.362C41.297 133.128 46.6306 131.023 50.9273 133.127C54.633 134.945 56.9818 139.806 55.4333 143.73C55.1795 144.382 54.1411 144.034 54.3968 143.376Z" fill="#534741"/>
<path d="M45.5635 140.646L51.3757 151.408L62.8003 145.256L62.4356 144.579L56.9941 134.474C56.749 134.023 56.3356 133.687 55.844 133.54C55.3524 133.393 54.8225 133.445 54.3697 133.687L46.3648 137.975C46.1328 138.094 45.9273 138.258 45.7605 138.458C45.5936 138.658 45.4691 138.89 45.3942 139.14C45.3193 139.389 45.2957 139.651 45.3248 139.91C45.3539 140.169 45.4351 140.42 45.5635 140.646Z" fill="url(#paint25_linear_7_1427)"/>
<path style="mix-blend-mode:multiply" opacity="0.25" d="M45.5636 140.646L51.3758 151.408L62.8004 145.256L62.4357 144.579C57.4766 143.222 53.1732 140.122 50.3149 135.848L46.3649 137.975C46.1329 138.094 45.9273 138.258 45.7605 138.458C45.5937 138.658 45.4691 138.89 45.3943 139.14C45.3194 139.389 45.2958 139.651 45.3249 139.91C45.354 140.169 45.4352 140.42 45.5636 140.646Z" fill="url(#paint26_linear_7_1427)"/>
<path d="M47.9661 188.861C36.6715 177.798 36.4841 159.673 47.5476 148.378C58.6111 137.084 76.7359 136.896 88.0305 147.96C99.3251 159.023 99.5125 177.148 88.449 188.443C77.3855 199.737 59.2607 199.925 47.9661 188.861Z" fill="url(#paint27_linear_7_1427)"/>
<path style="mix-blend-mode:multiply" opacity="0.25" d="M39.3805 168.417C39.2576 176.006 42.1543 183.332 47.4333 188.785C52.7124 194.238 59.9414 197.371 67.5301 197.493C75.1187 197.616 82.4453 194.72 87.8982 189.441C93.3511 184.161 96.4835 176.932 96.6064 169.344C93.6818 175.071 88.9116 179.644 83.0667 182.325C77.2218 185.006 70.6437 185.638 64.3953 184.119C58.1469 182.6 52.5933 179.018 48.6318 173.953C44.6703 168.888 42.5324 162.635 42.5636 156.204C42.5588 155.897 42.5708 155.589 42.5996 155.283C40.4744 159.334 39.3694 163.842 39.3805 168.417Z" fill="url(#paint28_linear_7_1427)"/>
<g style="mix-blend-mode:screen" opacity="0.55">
<path d="M71.1813 161.287C74.6674 168.156 80.9889 172.003 85.3208 169.816C89.6528 167.629 90.3318 160.27 86.847 153.372C83.3622 146.475 77.0394 142.656 72.7074 144.843C68.3755 147.031 67.6965 154.39 71.1813 161.287Z" fill="#C5B097"/>
</g>
<g style="mix-blend-mode:screen" opacity="0.55">
<path d="M50.0512 186.787C52.2357 189.43 55.3463 190.465 57.0011 189.098C58.6559 187.731 58.2331 184.481 56.0239 181.824C53.8148 179.167 50.7335 178.155 49.0721 179.52C47.4106 180.885 47.8735 184.147 50.0512 186.787Z" fill="#C5B097"/>
</g>
<g filter="url(#filter2_d_7_1427)">
<path d="M22.5395 126.148L23.4722 131.64L27.2258 127.524L25.0417 132.648L30.4242 131.216L25.8167 134.345L31.1193 136.05L25.5512 136.192L29.0904 140.493L24.3295 137.602L24.9815 143.134L22.5395 138.127L20.0974 143.134L20.7494 137.602L15.9885 140.493L19.5277 136.192L13.9596 136.05L19.2622 134.345L14.6547 131.216L20.0372 132.648L17.8531 127.524L21.6067 131.64L22.5395 126.148Z" fill="url(#paint29_radial_7_1427)" shape-rendering="crispEdges"/>
</g>
</g>
<mask id="mask2_7_1427" style="mask-type:alpha" maskUnits="userSpaceOnUse" x="0" y="0" width="225" height="111">
<path d="M5 0H220C222.761 0 225 2.23858 225 5V25L113 110.5L0 25V5C0 2.23858 2.23858 0 5 0Z" fill="#B86868"/>
</mask>
<g mask="url(#mask2_7_1427)">
<g filter="url(#filter3_f_7_1427)">
<rect y="14" width="225" height="105" fill="url(#paint30_linear_7_1427)"/>
</g>
<path d="M103.306 20.5007L63.6642 35.7132C63.6642 35.7132 62.0172 36.3967 62.8612 38.5961L84.2222 94.2604C85.0669 96.4615 86.7459 95.8666 86.7459 95.8666L126.39 80.6535C126.39 80.6535 128.035 79.9706 127.191 77.7713L105.83 22.107C104.986 19.9076 103.306 20.5007 103.306 20.5007Z" fill="white"/>
<path style="mix-blend-mode:multiply" d="M99.7943 59.0949L74.4617 68.826L84.222 94.2603C85.0667 96.4614 86.7457 95.8666 86.7457 95.8666L126.39 80.6534C126.39 80.6534 128.035 79.9705 127.191 77.7712L117.427 52.3266L99.7943 59.0949Z" fill="url(#paint31_radial_7_1427)"/>
<path style="mix-blend-mode:multiply" d="M73.5172 66.3643L84.3638 62.202C94.7879 58.2097 105.21 54.2137 115.63 50.2138L116.493 49.8825L105.833 22.1056C104.989 19.9045 103.31 20.4993 103.31 20.4993L63.6642 35.7132C63.6642 35.7132 62.0172 36.3967 62.8612 38.5961L73.5172 66.3643Z" fill="url(#paint32_radial_7_1427)"/>
<path d="M105.744 22.14L127.075 77.7283C127.919 79.9259 126.271 80.6119 126.271 80.6119L86.5888 95.8396C86.3182 95.9203 86.0322 95.9356 85.7544 95.8845C86.0812 95.9744 86.4265 95.9722 86.7521 95.878L126.394 80.6654C126.394 80.6654 128.039 79.9826 127.195 77.7832L105.83 22.1068C104.985 19.9057 103.306 20.5005 103.306 20.5005L103.216 20.535C103.216 20.535 104.9 19.9406 105.744 22.14Z" fill="url(#paint33_radial_7_1427)"/>
<path style="mix-blend-mode:screen" d="M84.3116 94.23L62.9824 38.6486C62.1391 36.4509 63.7854 35.7657 63.7854 35.7657L103.465 20.5386C103.737 20.4588 104.024 20.4438 104.302 20.4948C103.978 20.406 103.636 20.4072 103.313 20.498L63.6642 35.7132C63.6642 35.7132 62.0172 36.3967 62.8612 38.5961L84.2222 94.2604C85.0669 96.4615 86.7459 95.8666 86.7459 95.8666L86.8339 95.8329C86.8339 95.8329 85.1549 96.4277 84.3116 94.23Z" fill="url(#paint34_radial_7_1427)"/>
<path d="M63.668 40.6987L83.5722 92.5668L83.5379 92.2195L64.1153 41.6065C63.9654 41.3035 63.8179 41.0017 63.668 40.6987Z" fill="url(#paint35_radial_7_1427)"/>
<path d="M70.0007 46.9971C70.1987 47.7088 70.2005 48.4609 70.0061 49.1736L71.4597 48.6158C70.8365 48.2174 70.3324 47.6581 70.0007 46.9971Z" fill="black"/>
<path d="M70.5645 45.3288C70.4251 45.3824 70.2979 45.4635 70.1906 45.5674L70.178 45.5603C70.3039 45.358 70.3621 45.1208 70.3443 44.8832C70.3264 44.6456 70.2334 44.4198 70.0786 44.2386C69.9239 44.0573 69.7154 43.9301 69.4835 43.8752C69.2516 43.8203 69.0083 43.8406 68.7887 43.9333C68.5691 44.0259 68.3848 44.186 68.2623 44.3905C68.1398 44.5949 68.0855 44.833 68.1074 45.0703C68.1292 45.3076 68.226 45.5318 68.3838 45.7104C68.5415 45.889 68.752 46.0128 68.9848 46.0638C68.7434 46.04 68.5007 46.0949 68.293 46.2204C68.0854 46.3459 67.9239 46.5353 67.8327 46.7601C67.7415 46.985 67.7255 47.2333 67.7871 47.468C67.8487 47.7027 67.9845 47.9111 68.1744 48.0622C68.3642 48.2133 68.5979 48.299 68.8404 48.3063C69.0829 48.3137 69.3213 48.2424 69.52 48.1031C69.7186 47.9638 69.8669 47.764 69.9426 47.5335C70.0183 47.303 70.0175 47.0541 69.9401 46.8242C70.0281 47.0261 70.1734 47.1977 70.3581 47.3178C70.5428 47.4378 70.7586 47.501 70.9789 47.4994C71.1991 47.4978 71.4141 47.4315 71.597 47.3088C71.7799 47.1862 71.9228 47.0124 72.0078 46.8093C72.0929 46.6061 72.1164 46.3824 72.0754 46.166C72.0344 45.9496 71.9308 45.75 71.7773 45.5919C71.6239 45.4339 71.4274 45.3245 71.2123 45.2771C70.9972 45.2298 70.7729 45.2467 70.5673 45.3258L70.5645 45.3288Z" fill="black"/>
<path d="M69.0238 42.5828L68.9529 42.3981C69.0426 42.3451 69.1251 42.2809 69.1984 42.2069C69.2465 42.1571 69.2782 42.0938 69.2892 42.0254C69.2959 41.9452 69.2827 41.8645 69.2506 41.7907C69.2137 41.697 69.1673 41.6073 69.1122 41.523C69.045 41.415 68.972 41.3108 68.8934 41.2108L68.5722 40.7815L66.8027 41.4605L66.8163 41.8831C66.8188 42.0417 66.8299 42.2001 66.8498 42.3575C66.8648 42.4508 66.8886 42.5424 66.9211 42.6311C66.939 42.694 66.9701 42.7524 67.0122 42.8025C67.0542 42.8526 67.1064 42.8932 67.1653 42.9217C67.2983 42.9636 67.4409 42.9648 67.5746 42.925L67.6461 43.1115L66.0216 43.7349L65.9508 43.5502C66.0204 43.5069 66.0807 43.4501 66.1281 43.3833C66.1756 43.3165 66.2093 43.2408 66.2272 43.1609C66.2838 42.9204 66.3076 42.6734 66.298 42.4266L66.2705 37.6224L66.8713 37.3918L69.7877 41.131C69.8912 41.2681 70.0034 41.3984 70.1235 41.5211C70.1987 41.5982 70.2894 41.6586 70.3896 41.6982C70.4929 41.7313 70.6026 41.7395 70.7096 41.722L70.7812 41.9084L69.0238 42.5828ZM66.778 41.0917L68.3662 40.4822L66.7114 38.3068L66.778 41.0917Z" fill="black"/>
<path d="M119.874 69.2581C119.676 68.546 119.675 67.7937 119.87 67.0809L118.422 67.6367C119.044 68.0359 119.545 68.5963 119.874 69.2581Z" fill="black"/>
<path d="M119.311 70.9258C119.451 70.8721 119.578 70.7917 119.686 70.689L119.698 70.6943C119.571 70.8967 119.512 71.1342 119.53 71.3724C119.547 71.6106 119.64 71.8371 119.794 72.019C119.949 72.2009 120.158 72.3289 120.39 72.3843C120.622 72.4397 120.866 72.4197 121.086 72.3272C121.307 72.2346 121.492 72.0744 121.615 71.8697C121.738 71.665 121.792 71.4264 121.771 71.1886C121.749 70.9508 121.652 70.726 121.494 70.5469C121.336 70.3678 121.125 70.2437 120.892 70.1926C121.133 70.2163 121.376 70.1614 121.583 70.036C121.791 69.9105 121.952 69.7213 122.044 69.4966C122.135 69.2718 122.151 69.0236 122.09 68.789C122.028 68.5543 121.892 68.3458 121.703 68.1946C121.513 68.0434 121.28 67.9576 121.037 67.95C120.795 67.9424 120.556 68.0134 120.358 68.1524C120.159 68.2915 120.01 68.491 119.934 68.7214C119.858 68.9517 119.859 69.2005 119.936 69.4305C119.848 69.2285 119.703 69.0569 119.518 68.9369C119.333 68.8168 119.117 68.7537 118.897 68.7553C118.677 68.7568 118.462 68.8231 118.279 68.9458C118.096 69.0685 117.953 69.2422 117.868 69.4454C117.783 69.6485 117.76 69.8722 117.801 70.0886C117.842 70.3051 117.945 70.5047 118.099 70.6627C118.252 70.8207 118.449 70.9302 118.664 70.9775C118.879 71.0248 119.103 71.0079 119.309 70.9288L119.311 70.9258Z" fill="black"/>
<path d="M120.851 73.6724L120.922 73.8588C120.832 73.9129 120.748 73.977 120.673 74.0497C120.624 74.0994 120.593 74.1628 120.582 74.2311C120.575 74.3119 120.589 74.3931 120.621 74.4676C120.658 74.5607 120.704 74.6498 120.759 74.7336C120.825 74.8385 120.897 74.9398 120.974 75.0371L121.302 75.4737L123.073 74.794L123.06 74.3714C123.058 74.2129 123.047 74.0547 123.025 73.8977C123.011 73.8041 122.988 73.7121 122.955 73.6234C122.937 73.5607 122.907 73.5024 122.865 73.4526C122.823 73.4028 122.77 73.3626 122.711 73.3346C122.579 73.291 122.436 73.2893 122.302 73.3295L122.23 73.1431L123.853 72.5203L123.924 72.7068C123.855 72.7501 123.794 72.8068 123.747 72.8736C123.699 72.9405 123.666 73.0161 123.648 73.0961C123.591 73.3334 123.567 73.5772 123.576 73.821L123.606 78.6339L123.005 78.8644L120.089 75.1252C119.984 74.9891 119.872 74.8589 119.753 74.7352C119.678 74.6581 119.587 74.5977 119.487 74.558C119.385 74.5232 119.275 74.5142 119.168 74.5319L119.097 74.3455L120.851 73.6724ZM123.096 75.1635L121.51 75.7723L123.172 77.9468L123.096 75.1635Z" fill="black"/>
<path d="M95.4485 59.305C95.8426 60.7192 95.8467 62.2137 95.4604 63.63L98.333 62.5276C97.0984 61.7333 96.1017 60.6198 95.4485 59.305Z" fill="black"/>
<path d="M96.5667 55.9941C96.2903 56.1001 96.038 56.2602 95.8245 56.4651C95.8152 56.4625 95.8064 56.4585 95.7982 56.4534C96.0475 56.0514 96.1625 55.5805 96.1265 55.1088C96.0906 54.6371 95.9055 54.189 95.5982 53.8294C95.2908 53.4698 94.877 53.2172 94.4167 53.1082C93.9563 52.9992 93.4733 53.0395 93.0373 53.2231C92.6013 53.4068 92.235 53.7243 91.9914 54.1298C91.7478 54.5353 91.6394 55.0078 91.682 55.479C91.7246 55.9501 91.9159 56.3955 92.2283 56.7508C92.5406 57.1061 92.9579 57.3528 93.4197 57.4553C92.941 57.4084 92.4599 57.5175 92.0482 57.7664C91.6366 58.0154 91.3165 58.3908 91.1357 58.8366C90.9549 59.2824 90.9231 59.7747 91.0451 60.24C91.167 60.7054 91.4362 61.1188 91.8124 61.4186C92.1886 61.7184 92.6517 61.8885 93.1326 61.9036C93.6134 61.9186 94.0862 61.7777 94.4804 61.502C94.8746 61.2263 95.1691 60.8304 95.3198 60.3736C95.4706 59.9168 95.4696 59.4234 95.317 58.9672C95.4918 59.368 95.7805 59.7085 96.1472 59.9465C96.5139 60.1845 96.9425 60.3094 97.3797 60.3058C97.8168 60.3021 98.2433 60.1701 98.606 59.926C98.9687 59.682 99.2517 59.3367 99.4198 58.9331C99.5878 58.5296 99.6336 58.0855 99.5513 57.6561C99.469 57.2267 99.2623 56.831 98.957 56.5182C98.6516 56.2053 98.261 55.9891 97.8337 55.8965C97.4065 55.8038 96.9614 55.8388 96.5539 55.9971L96.5667 55.9941Z" fill="black"/>
<path d="M161.95 18.2094L114.428 13.2099C114.428 13.2099 112.427 13.0535 112.152 15.6737L105.175 81.9907C104.899 84.613 106.886 84.8741 106.886 84.8741L154.411 89.8738C154.411 89.8738 156.409 90.03 156.685 87.4098L163.662 21.0928C163.937 18.4726 161.95 18.2094 161.95 18.2094Z" fill="white"/>
<path style="mix-blend-mode:multiply" d="M138.736 54.8739L108.362 51.6889L105.175 81.9905C104.899 84.6128 106.886 84.8739 106.886 84.8739L154.411 89.8737C154.411 89.8737 156.409 90.0299 156.685 87.4096L159.874 57.0956L138.736 54.8739Z" fill="url(#paint36_radial_7_1427)"/>
<path style="mix-blend-mode:multiply" d="M108.671 48.7561L121.674 50.124C134.166 51.4466 146.658 52.7643 159.15 54.0771L160.184 54.1859L163.666 21.0933C163.942 18.471 161.954 18.2099 161.954 18.2099L114.428 13.2099C114.428 13.2099 112.427 13.0535 112.152 15.6737L108.671 48.7561Z" fill="url(#paint37_radial_7_1427)"/>
<path d="M163.558 21.0819L156.591 87.3083C156.315 89.9265 154.312 89.7719 154.312 89.7719L106.743 84.7674C106.43 84.7101 106.135 84.5801 105.883 84.3879C106.165 84.6436 106.512 84.8169 106.887 84.8886L154.409 89.8882C154.409 89.8882 156.408 90.0443 156.683 87.4241L163.662 21.0928C163.938 18.4704 161.95 18.2094 161.95 18.2094L161.842 18.198C161.842 18.198 163.834 18.4616 163.558 21.0819Z" fill="url(#paint38_radial_7_1427)"/>
<path style="mix-blend-mode:screen" d="M105.28 82.0059L112.246 15.7877C112.522 13.1695 114.523 13.3238 114.523 13.3238L162.09 18.3282C162.404 18.3867 162.699 18.5175 162.952 18.7099C162.673 18.4569 162.329 18.2841 161.958 18.2103L114.428 13.2099C114.428 13.2099 112.427 13.0535 112.152 15.6737L105.175 81.9907C104.899 84.613 106.886 84.8741 106.886 84.8741L106.992 84.8852C106.992 84.8852 105.004 84.6241 105.28 82.0059Z" fill="url(#paint39_radial_7_1427)"/>
<path d="M111.888 18.1787L105.387 79.9729C105.435 79.8511 105.482 79.7292 105.53 79.6095L111.874 19.3085C111.878 18.9325 111.882 18.5565 111.888 18.1787Z" fill="url(#paint40_radial_7_1427)"/>
<path d="M117.13 27.0441C115.902 26.1891 115.086 23.9031 115.06 23.8297C115.02 23.8962 113.746 25.9622 112.368 26.5431C113.594 27.3999 114.411 29.6858 114.436 29.7593C114.477 29.6928 115.751 27.6267 117.13 27.0461L117.13 27.0441Z" fill="#FF2601"/>
<path d="M115.951 22.0602C116.072 22.0745 116.193 22.0782 116.314 22.0714C116.394 22.0662 116.471 22.0431 116.541 22.0037C116.602 21.9656 116.653 21.9131 116.689 21.8509C116.727 21.7863 116.779 21.6857 116.842 21.5488L117.229 21.5895L117.013 22.9039L113.265 22.5097L113.288 22.2916C113.468 21.9662 113.679 21.6589 113.918 21.3743C114.248 20.9921 114.605 20.6335 114.985 20.3013C115.378 19.9516 115.662 19.6855 115.837 19.503C115.999 19.3417 116.146 19.1666 116.277 18.9795C116.369 18.8457 116.445 18.7024 116.504 18.5521C116.555 18.4176 116.588 18.2771 116.603 18.1341C116.629 17.9295 116.615 17.7216 116.56 17.5224C116.509 17.3484 116.407 17.1931 116.268 17.0758C116.107 16.9576 115.914 16.8896 115.714 16.8802C115.144 16.8203 114.731 17.0929 114.466 17.6993L113.916 17.6414L114.008 16.7631C114.356 16.6394 114.716 16.5505 115.082 16.4977C115.372 16.4559 115.665 16.4478 115.957 16.4733C116.521 16.5327 116.936 16.7003 117.199 16.9762C117.333 17.1269 117.432 17.3055 117.487 17.4988C117.542 17.6921 117.553 17.8953 117.519 18.0933C117.505 18.2414 117.473 18.3874 117.425 18.5284C117.375 18.6634 117.309 18.7919 117.228 18.9111C117.133 19.0515 117.026 19.1835 116.908 19.3058C116.777 19.4438 116.632 19.5845 116.477 19.7242C116.322 19.8638 116.053 20.0955 115.671 20.4234C115.142 20.8572 114.66 21.3452 114.233 21.8795L115.951 22.0602Z" fill="#FF2601"/>
<path d="M151.189 75.8309C152.417 76.6859 153.231 78.9716 153.259 79.0453C153.299 78.9788 154.573 76.9128 155.951 76.3319C154.724 75.4772 153.908 73.1912 153.883 73.1178C153.84 73.184 152.568 75.2503 151.189 75.8309Z" fill="#FF2601"/>
<path d="M152.378 80.8159C152.257 80.8017 152.136 80.7979 152.015 80.8047C151.935 80.8099 151.858 80.833 151.788 80.8724C151.727 80.9105 151.676 80.963 151.64 81.0252C151.602 81.0899 151.55 81.1904 151.487 81.3273L151.1 81.2866L151.316 79.9722L155.064 80.3665L155.041 80.5845C154.861 80.9099 154.65 81.2172 154.411 81.5018C154.081 81.8841 153.724 82.2426 153.344 82.5748C152.951 82.9224 152.668 83.19 152.492 83.3731C152.329 83.534 152.182 83.7092 152.052 83.8966C151.96 84.0302 151.884 84.1735 151.825 84.324C151.774 84.4585 151.741 84.599 151.726 84.742C151.7 84.947 151.716 85.1552 151.773 85.3541C151.823 85.5282 151.924 85.6836 152.063 85.8005C152.222 85.9224 152.414 85.9947 152.614 86.0083C153.181 86.0679 153.597 85.7949 153.862 85.1892L154.412 85.2471L154.321 86.115C153.973 86.2387 153.613 86.3277 153.247 86.3805C152.957 86.4222 152.663 86.4304 152.372 86.4049C151.807 86.3455 151.393 86.1772 151.13 85.8999C150.996 85.7496 150.897 85.5714 150.842 85.3784C150.787 85.1854 150.776 84.9826 150.81 84.7849C150.824 84.6368 150.856 84.4908 150.903 84.3498C150.952 84.2148 151.017 84.0862 151.096 83.9666C151.191 83.8259 151.298 83.6938 151.416 83.5719C151.548 83.434 151.69 83.293 151.847 83.1536C152.004 83.0141 152.271 82.7823 152.654 82.4523C153.183 82.0197 153.665 81.5322 154.091 80.9982L152.378 80.8159Z" fill="#FF2601"/>
<path d="M136.884 73.5359C134.447 71.8384 132.83 67.2993 132.778 67.1545C132.697 67.2854 130.171 71.3886 127.434 72.5417C129.871 74.2392 131.488 78.7783 131.54 78.9231C131.621 78.7923 134.147 74.689 136.884 73.5359Z" fill="#FF2601"/>
<path d="M141.406 30.5442C138.969 28.8467 137.352 24.3076 137.301 24.1628C137.22 24.2937 134.694 28.3969 131.957 29.5501C134.394 31.2475 136.011 35.7866 136.063 35.9314C136.143 35.8006 138.669 31.6973 141.406 30.5442Z" fill="#FF2601"/>
</g>
<rect x="0.5" y="0.5" width="224" height="224" rx="4.5" stroke="url(#paint41_linear_7_1427)"/>
<defs>
<filter id="filter0_f_7_1427" x="22" y="91" width="325" height="184" filterUnits="userSpaceOnUse" color-interpolation-filters="sRGB">
<feFlood flood-opacity="0" result="BackgroundImageFix"/>
<feBlend mode="normal" in="SourceGraphic" in2="BackgroundImageFix" result="shape"/>
<feGaussianBlur stdDeviation="25" result="effect1_foregroundBlur_7_1427"/>
</filter>
<filter id="filter1_f_7_1427" x="-116" y="70" width="325" height="205" filterUnits="userSpaceOnUse" color-interpolation-filters="sRGB">
<feFlood flood-opacity="0" result="BackgroundImageFix"/>
<feBlend mode="normal" in="SourceGraphic" in2="BackgroundImageFix" result="shape"/>
<feGaussianBlur stdDeviation="25" result="effect1_foregroundBlur_7_1427"/>
</filter>
<filter id="filter2_d_7_1427" x="3.95947" y="116.148" width="37.1599" height="36.9851" filterUnits="userSpaceOnUse" color-interpolation-filters="sRGB">
<feFlood flood-opacity="0" result="BackgroundImageFix"/>
<feColorMatrix in="SourceAlpha" type="matrix" values="0 0 0 0 0 0 0 0 0 0 0 0 0 0 0 0 0 0 127 0" result="hardAlpha"/>
<feOffset/>
<feGaussianBlur stdDeviation="5"/>
<feComposite in2="hardAlpha" operator="out"/>
<feColorMatrix type="matrix" values="0 0 0 0 1 0 0 0 0 0.542683 0 0 0 0 0.00583345 0 0 0 0.25 0"/>
<feBlend mode="normal" in2="BackgroundImageFix" result="effect1_dropShadow_7_1427"/>
<feBlend mode="normal" in="SourceGraphic" in2="effect1_dropShadow_7_1427" result="shape"/>
</filter>
<filter id="filter3_f_7_1427" x="-50" y="-36" width="325" height="205" filterUnits="userSpaceOnUse" color-interpolation-filters="sRGB">
<feFlood flood-opacity="0" result="BackgroundImageFix"/>
<feBlend mode="normal" in="SourceGraphic" in2="BackgroundImageFix" result="shape"/>
<feGaussianBlur stdDeviation="25" result="effect1_foregroundBlur_7_1427"/>
</filter>
<linearGradient id="paint0_linear_7_1427" x1="112.5" y1="-24.6951" x2="112.5" y2="225" gradientUnits="userSpaceOnUse">
<stop stop-color="#3D3737" stop-opacity="0.25"/>
<stop offset="1" stop-color="#404550" stop-opacity="0.1"/>
</linearGradient>
<linearGradient id="paint1_linear_7_1427" x1="184.5" y1="141" x2="184.5" y2="225" gradientUnits="userSpaceOnUse">
<stop stop-color="white" stop-opacity="0"/>
<stop offset="1" stop-color="#C0008A"/>
</linearGradient>
<linearGradient id="paint2_linear_7_1427" x1="201.12" y1="152.469" x2="176.859" y2="266.911" gradientUnits="userSpaceOnUse">
<stop stop-color="#F9DF7B"/>
<stop offset="0.2" stop-color="#B57E10"/>
<stop offset="0.26" stop-color="#B78114"/>
<stop offset="0.32" stop-color="#BF8C1F"/>
<stop offset="0.38" stop-color="#CB9E33"/>
<stop offset="0.44" stop-color="#DDB64E"/>
<stop offset="0.49" stop-color="#F3D671"/>
<stop offset="0.51" stop-color="#F9DF7B"/>
<stop offset="0.52" stop-color="#FFF3A6"/>
<stop offset="0.59" stop-color="#F9DF7B"/>
<stop offset="0.84" stop-color="#B57E10"/>
<stop offset="0.95" stop-color="#E5C35C"/>
<stop offset="1" stop-color="#F9DF7B"/>
</linearGradient>
<radialGradient id="paint3_radial_7_1427" cx="0" cy="0" r="1" gradientUnits="userSpaceOnUse" gradientTransform="translate(189.638 206.639) rotate(-33.0325) scale(56.6916 56.6916)">
<stop stop-color="#5C573A"/>
<stop offset="0.85" stop-color="#580043"/>
<stop offset="1" stop-color="#300025"/>
</radialGradient>
<linearGradient id="paint4_linear_7_1427" x1="144.762" y1="197.13" x2="233.253" y2="215.887" gradientUnits="userSpaceOnUse">
<stop stop-color="#F9DF7B"/>
<stop offset="0.2" stop-color="#B57E10"/>
<stop offset="0.26" stop-color="#B78114"/>
<stop offset="0.32" stop-color="#BF8C1F"/>
<stop offset="0.38" stop-color="#CB9E33"/>
<stop offset="0.44" stop-color="#DDB64E"/>
<stop offset="0.49" stop-color="#F3D671"/>
<stop offset="0.51" stop-color="#F9DF7B"/>
<stop offset="0.52" stop-color="#FFF3A6"/>
<stop offset="0.59" stop-color="#F9DF7B"/>
<stop offset="0.84" stop-color="#B57E10"/>
<stop offset="0.95" stop-color="#E5C35C"/>
<stop offset="1" stop-color="#F9DF7B"/>
</linearGradient>
<radialGradient id="paint5_radial_7_1427" cx="0" cy="0" r="1" gradientUnits="userSpaceOnUse" gradientTransform="translate(189.638 206.639) rotate(-33.0325) scale(52.3749 52.3749)">
<stop stop-color="#5C573A"/>
<stop offset="0.85" stop-color="#580043"/>
<stop offset="1" stop-color="#5C573A"/>
</radialGradient>
<linearGradient id="paint6_linear_7_1427" x1="152.447" y1="230.821" x2="226.825" y2="182.459" gradientUnits="userSpaceOnUse">
<stop stop-color="#F9DF7B"/>
<stop offset="0.2" stop-color="#B57E10"/>
<stop offset="0.26" stop-color="#B78114"/>
<stop offset="0.32" stop-color="#BF8C1F"/>
<stop offset="0.38" stop-color="#CB9E33"/>
<stop offset="0.44" stop-color="#DDB64E"/>
<stop offset="0.49" stop-color="#F3D671"/>
<stop offset="0.51" stop-color="#F9DF7B"/>
<stop offset="0.52" stop-color="#FFF3A6"/>
<stop offset="0.59" stop-color="#F9DF7B"/>
<stop offset="0.84" stop-color="#B57E10"/>
<stop offset="0.95" stop-color="#E5C35C"/>
<stop offset="1" stop-color="#F9DF7B"/>
</linearGradient>
<radialGradient id="paint7_radial_7_1427" cx="0" cy="0" r="1" gradientUnits="userSpaceOnUse" gradientTransform="translate(189.489 206.345) rotate(-33.0325) scale(56.2663 56.2663)">
<stop stop-color="#F5D919"/>
<stop offset="0.85" stop-color="#F16922"/>
<stop offset="1" stop-color="#F5D919"/>
</radialGradient>
<radialGradient id="paint8_radial_7_1427" cx="0" cy="0" r="1" gradientUnits="userSpaceOnUse" gradientTransform="translate(189.489 206.345) rotate(-33.0325) scale(56.2663 56.2663)">
<stop stop-color="#F5D919"/>
<stop offset="0.85" stop-color="#F16922"/>
<stop offset="1" stop-color="#F5D919"/>
</radialGradient>
<radialGradient id="paint9_radial_7_1427" cx="0" cy="0" r="1" gradientUnits="userSpaceOnUse" gradientTransform="translate(189.46 206.364) rotate(-33.0325) scale(56.3582 56.3582)">
<stop stop-color="#F5D919"/>
<stop offset="0.85" stop-color="#F16922"/>
<stop offset="1" stop-color="#F5D919"/>
</radialGradient>
<radialGradient id="paint10_radial_7_1427" cx="0" cy="0" r="1" gradientUnits="userSpaceOnUse" gradientTransform="translate(189.455 206.367) rotate(-33.0325) scale(56.2835 56.2835)">
<stop stop-color="#F5D919"/>
<stop offset="0.85" stop-color="#F16922"/>
<stop offset="1" stop-color="#F5D919"/>
</radialGradient>
<radialGradient id="paint11_radial_7_1427" cx="0" cy="0" r="1" gradientUnits="userSpaceOnUse" gradientTransform="translate(141.838 185.672) rotate(-67.04) scale(2.71065)">
<stop stop-color="#F5D919"/>
<stop offset="0.85" stop-color="#F16922"/>
<stop offset="1" stop-color="#F5D919"/>
</radialGradient>
<radialGradient id="paint12_radial_7_1427" cx="0" cy="0" r="1" gradientUnits="userSpaceOnUse" gradientTransform="translate(137.778 203.158) rotate(-89.502) scale(2.6956)">
<stop stop-color="#F5D919"/>
<stop offset="0.85" stop-color="#F16922"/>
<stop offset="1" stop-color="#F5D919"/>
</radialGradient>
<radialGradient id="paint13_radial_7_1427" cx="0" cy="0" r="1" gradientUnits="userSpaceOnUse" gradientTransform="translate(142.335 224.115) rotate(-112.06) scale(2.70252)">
<stop stop-color="#F5D919"/>
<stop offset="0.85" stop-color="#F16922"/>
<stop offset="1" stop-color="#F5D919"/>
</radialGradient>
<radialGradient id="paint14_radial_7_1427" cx="0" cy="0" r="1" gradientUnits="userSpaceOnUse" gradientTransform="translate(228.211 169.812) rotate(45.6575) scale(2.70726 2.70727)">
<stop stop-color="#F5D919"/>
<stop offset="0.85" stop-color="#F16922"/>
<stop offset="1" stop-color="#F5D919"/>
</radialGradient>
<radialGradient id="paint15_radial_7_1427" cx="0" cy="0" r="1" gradientUnits="userSpaceOnUse" gradientTransform="translate(210.687 155.79) rotate(22.9601) scale(2.71065)">
<stop stop-color="#F5D919"/>
<stop offset="0.85" stop-color="#F16922"/>
<stop offset="1" stop-color="#F5D919"/>
</radialGradient>
<radialGradient id="paint16_radial_7_1427" cx="0" cy="0" r="1" gradientUnits="userSpaceOnUse" gradientTransform="translate(189.066 153.69) rotate(0.497996) scale(2.6956)">
<stop stop-color="#F5D919"/>
<stop offset="0.85" stop-color="#F16922"/>
<stop offset="1" stop-color="#F5D919"/>
</radialGradient>
<radialGradient id="paint17_radial_7_1427" cx="0" cy="0" r="1" gradientUnits="userSpaceOnUse" gradientTransform="translate(169.795 156.807) rotate(-22.0602) scale(2.70252 2.70252)">
<stop stop-color="#F5D919"/>
<stop offset="0.85" stop-color="#F16922"/>
<stop offset="1" stop-color="#F5D919"/>
</radialGradient>
<radialGradient id="paint18_radial_7_1427" cx="0" cy="0" r="1" gradientUnits="userSpaceOnUse" gradientTransform="translate(152.816 168.048) rotate(-44.3425) scale(2.70726)">
<stop stop-color="#F5D919"/>
<stop offset="0.85" stop-color="#F16922"/>
<stop offset="1" stop-color="#F5D919"/>
</radialGradient>
<radialGradient id="paint19_radial_7_1427" cx="0" cy="0" r="1" gradientUnits="userSpaceOnUse" gradientTransform="translate(189.64 206.638) rotate(-33.0325) scale(50.3919)">
<stop offset="0.92" stop-color="#5C573A"/>
<stop offset="1" stop-color="#4D4D4D"/>
</radialGradient>
<radialGradient id="paint20_radial_7_1427" cx="0" cy="0" r="1" gradientUnits="userSpaceOnUse" gradientTransform="translate(168.724 173.808) rotate(-33.0325) scale(15.3067 15.3067)">
<stop stop-color="#5C573A"/>
<stop offset="0.85" stop-color="#580043"/>
<stop offset="1" stop-color="#300025"/>
</radialGradient>
<radialGradient id="paint21_radial_7_1427" cx="0" cy="0" r="1" gradientUnits="userSpaceOnUse" gradientTransform="translate(189.732 208.217) rotate(-33.0325) scale(5.81113)">
<stop offset="0.59" stop-color="#5F3E41"/>
<stop offset="0.74" stop-color="#A39092"/>
<stop offset="0.86" stop-color="#D4CCCD"/>
<stop offset="0.95" stop-color="#F3F1F1"/>
<stop offset="1" stop-color="white"/>
</radialGradient>
<linearGradient id="paint22_linear_7_1427" x1="186.166" y1="205.907" x2="194.286" y2="207.628" gradientUnits="userSpaceOnUse">
<stop stop-color="#F9DF7B"/>
<stop offset="0.2" stop-color="#B57E10"/>
<stop offset="0.26" stop-color="#B78114"/>
<stop offset="0.32" stop-color="#BF8C1F"/>
<stop offset="0.38" stop-color="#CB9E33"/>
<stop offset="0.44" stop-color="#DDB64E"/>
<stop offset="0.49" stop-color="#F3D671"/>
<stop offset="0.51" stop-color="#F9DF7B"/>
<stop offset="0.52" stop-color="#FFF3A6"/>
<stop offset="0.59" stop-color="#F9DF7B"/>
<stop offset="0.84" stop-color="#B57E10"/>
<stop offset="0.95" stop-color="#E5C35C"/>
<stop offset="1" stop-color="#F9DF7B"/>
</linearGradient>
<radialGradient id="paint23_radial_7_1427" cx="0" cy="0" r="1" gradientUnits="userSpaceOnUse" gradientTransform="translate(189.638 206.639) rotate(-33.0325) scale(3.09237)">
<stop stop-color="#5C573A"/>
<stop offset="0.85" stop-color="#580043"/>
<stop offset="1" stop-color="#300025"/>
</radialGradient>
<linearGradient id="paint24_linear_7_1427" x1="46.5" y1="120" x2="46.5" y2="225" gradientUnits="userSpaceOnUse">
<stop stop-color="white" stop-opacity="0"/>
<stop offset="1" stop-color="#C5B097"/>
</linearGradient>
<linearGradient id="paint25_linear_7_1427" x1="58.6354" y1="151.206" x2="49.6737" y2="134.564" gradientUnits="userSpaceOnUse">
<stop stop-color="#42210B"/>
<stop offset="0.99" stop-color="#C5B097"/>
</linearGradient>
<linearGradient id="paint26_linear_7_1427" x1="58.6354" y1="151.206" x2="49.6738" y2="134.564" gradientUnits="userSpaceOnUse">
<stop stop-color="#42210B"/>
<stop offset="0.99" stop-color="#C5B097"/>
</linearGradient>
<linearGradient id="paint27_linear_7_1427" x1="48.2142" y1="205.029" x2="78.4684" y2="149.736" gradientUnits="userSpaceOnUse">
<stop stop-color="#42210B"/>
<stop offset="0.99" stop-color="#C5B097"/>
</linearGradient>
<linearGradient id="paint28_linear_7_1427" x1="49.5291" y1="201.966" x2="71.7266" y2="161.72" gradientUnits="userSpaceOnUse">
<stop stop-color="#42210B"/>
<stop offset="0.99" stop-color="#C5B097"/>
</linearGradient>
<radialGradient id="paint29_radial_7_1427" cx="0" cy="0" r="1" gradientUnits="userSpaceOnUse" gradientTransform="translate(22.5395 134.817) rotate(90) scale(12.3354)">
<stop stop-color="#FFB629"/>
<stop offset="1" stop-color="#FF2929" stop-opacity="0.5"/>
</radialGradient>
<linearGradient id="paint30_linear_7_1427" x1="112.5" y1="14" x2="112.5" y2="119" gradientUnits="userSpaceOnUse">
<stop stop-color="white" stop-opacity="0"/>
<stop offset="1" stop-color="#FF3434"/>
</linearGradient>
<radialGradient id="paint31_radial_7_1427" cx="0" cy="0" r="1" gradientUnits="userSpaceOnUse" gradientTransform="translate(74.95 7.85497) rotate(-20.9941) scale(93.1703 93.1703)">
<stop offset="0.62" stop-color="white"/>
<stop offset="0.79" stop-color="#FDFDFD"/>
<stop offset="0.85" stop-color="#F6F6F6"/>
<stop offset="0.9" stop-color="#EAEAEA"/>
<stop offset="0.94" stop-color="#D9D9D9"/>
<stop offset="0.97" stop-color="#C3C3C3"/>
<stop offset="1" stop-color="#ABABAB"/>
</radialGradient>
<radialGradient id="paint32_radial_7_1427" cx="0" cy="0" r="1" gradientUnits="userSpaceOnUse" gradientTransform="translate(104.983 83.5424) rotate(-20.9941) scale(66.7616 66.7615)">
<stop offset="0.62" stop-color="white"/>
<stop offset="0.75" stop-color="#FDFDFD"/>
<stop offset="0.82" stop-color="#F5F5F5"/>
<stop offset="0.88" stop-color="#E7E7E7"/>
<stop offset="0.93" stop-color="#D3D3D3"/>
<stop offset="0.98" stop-color="#BABABA"/>
<stop offset="1" stop-color="#ABABAB"/>
</radialGradient>
<radialGradient id="paint33_radial_7_1427" cx="0" cy="0" r="1" gradientUnits="userSpaceOnUse" gradientTransform="translate(60.1524 37.0289) rotate(-20.9941) scale(74.1283 74.1284)">
<stop offset="0.1" stop-color="white"/>
<stop offset="1" stop-color="#ABABAB"/>
</radialGradient>
<radialGradient id="paint34_radial_7_1427" cx="0" cy="0" r="1" gradientUnits="userSpaceOnUse" gradientTransform="translate(80.4556 49.3545) rotate(-20.9941) scale(63.1373 63.1373)">
<stop stop-color="white"/>
<stop offset="0.14" stop-color="white"/>
<stop offset="1" stop-color="white"/>
</radialGradient>
<radialGradient id="paint35_radial_7_1427" cx="0" cy="0" r="1" gradientUnits="userSpaceOnUse" gradientTransform="translate(106.783 19.1348) rotate(159.006) scale(74.1228)">
<stop offset="0.1" stop-color="white"/>
<stop offset="1" stop-color="#ABABAB"/>
</radialGradient>
<radialGradient id="paint36_radial_7_1427" cx="0" cy="0" r="1" gradientUnits="userSpaceOnUse" gradientTransform="translate(139.961 -8.80618) rotate(6.00568) scale(104.85 104.202)">
<stop offset="0.62" stop-color="white"/>
<stop offset="0.79" stop-color="#FDFDFD"/>
<stop offset="0.85" stop-color="#F6F6F6"/>
<stop offset="0.9" stop-color="#EAEAEA"/>
<stop offset="0.94" stop-color="#D9D9D9"/>
<stop offset="0.97" stop-color="#C3C3C3"/>
<stop offset="1" stop-color="#ABABAB"/>
</radialGradient>
<radialGradient id="paint37_radial_7_1427" cx="0" cy="0" r="1" gradientUnits="userSpaceOnUse" gradientTransform="translate(131.466 81.8682) rotate(6.00568) scale(75.1322 74.6677)">
<stop offset="0.62" stop-color="white"/>
<stop offset="0.75" stop-color="#FDFDFD"/>
<stop offset="0.82" stop-color="#F5F5F5"/>
<stop offset="0.88" stop-color="#E7E7E7"/>
<stop offset="0.93" stop-color="#D3D3D3"/>
<stop offset="0.98" stop-color="#BABABA"/>
<stop offset="1" stop-color="#ABABAB"/>
</radialGradient>
<radialGradient id="paint38_radial_7_1427" cx="0" cy="0" r="1" gradientUnits="userSpaceOnUse" gradientTransform="translate(110.234 12.7354) rotate(6.00568) scale(83.4227 82.9069)">
<stop offset="0.1" stop-color="white"/>
<stop offset="1" stop-color="#ABABAB"/>
</radialGradient>
<radialGradient id="paint39_radial_7_1427" cx="0" cy="0" r="1" gradientUnits="userSpaceOnUse" gradientTransform="translate(124.309 35.3375) rotate(6.00568) scale(71.0536 70.6143)">
<stop stop-color="white"/>
<stop offset="0.14" stop-color="white"/>
<stop offset="1" stop-color="white"/>
</radialGradient>
<radialGradient id="paint40_radial_7_1427" cx="0" cy="0" r="1" gradientUnits="userSpaceOnUse" gradientTransform="translate(166.134 18.6162) rotate(-173.994) scale(83.4165 82.9007)">
<stop offset="0.1" stop-color="white"/>
<stop offset="1" stop-color="#ABABAB"/>
</radialGradient>
<linearGradient id="paint41_linear_7_1427" x1="112.5" y1="-16.4634" x2="112.5" y2="225" gradientUnits="userSpaceOnUse">
<stop stop-color="white" stop-opacity="0.6"/>
<stop offset="1" stop-color="white" stop-opacity="0"/>
</linearGradient>
</defs>
</svg>
