<svg width="225" height="200" viewBox="0 0 225 200" fill="none" xmlns="http://www.w3.org/2000/svg">
<g filter="url(#filter0_b_7_374)">
<g clip-path="url(#clip0_7_374)">
<rect width="225" height="200" rx="6" fill="url(#paint0_linear_7_374)"/>
<g filter="url(#filter1_f_7_374)">
<rect y="95" width="225" height="105" fill="url(#paint1_linear_7_374)"/>
</g>
<path d="M114.227 87.1155L44.91 113.716C44.91 113.716 42.0301 114.911 43.5059 118.757L80.8572 216.09C82.3342 219.939 85.2701 218.899 85.2701 218.899L154.59 192.297C154.59 192.297 157.467 191.103 155.991 187.258L118.64 89.9242C117.164 86.0785 114.227 87.1155 114.227 87.1155Z" fill="white"/>
<path style="mix-blend-mode:multiply" d="M108.086 154.601L63.7906 171.616L80.8572 216.09C82.3342 219.939 85.2701 218.899 85.2701 218.899L154.59 192.297C154.59 192.297 157.467 191.103 155.991 187.258L138.918 142.766L108.086 154.601Z" fill="url(#paint2_radial_7_374)"/>
<path style="mix-blend-mode:multiply" d="M62.1387 167.312L81.1049 160.033C99.3321 153.053 117.556 146.065 135.775 139.071L137.285 138.492L118.646 89.9219C117.169 86.0731 114.233 87.1132 114.233 87.1132L44.91 113.716C44.91 113.716 42.0301 114.911 43.5059 118.757L62.1387 167.312Z" fill="url(#paint3_radial_7_374)"/>
<path d="M118.489 89.9822L155.789 187.183C157.264 191.025 154.382 192.225 154.382 192.225L84.9957 218.852C84.5224 218.993 84.0224 219.02 83.5367 218.93C84.1081 219.087 84.7119 219.083 85.2812 218.919L154.598 192.318C154.598 192.318 157.475 191.124 155.999 187.279L118.64 89.9243C117.163 86.0755 114.227 87.1156 114.227 87.1156L114.07 87.1758C114.07 87.1758 117.013 86.1364 118.489 89.9822Z" fill="url(#paint4_radial_7_374)"/>
<path style="mix-blend-mode:screen" d="M81.0135 216.037L43.7178 118.849C42.2431 115.006 45.1218 113.808 45.1218 113.808L114.505 87.1819C114.981 87.0423 115.482 87.016 115.969 87.1052C115.402 86.9501 114.805 86.952 114.239 87.1109L44.91 113.716C44.91 113.716 42.0301 114.911 43.5059 118.757L80.8572 216.09C82.3342 219.939 85.2701 218.899 85.2701 218.899L85.424 218.84C85.424 218.84 82.4881 219.88 81.0135 216.037Z" fill="url(#paint5_radial_7_374)"/>
<path d="M44.9168 122.433L79.7208 213.129L79.6609 212.521L45.6991 124.021C45.4369 123.491 45.179 122.963 44.9168 122.433Z" fill="url(#paint6_radial_7_374)"/>
<path d="M55.9897 133.446C56.3359 134.691 56.3392 136.006 55.9991 137.252L58.5409 136.277C57.4512 135.58 56.5698 134.602 55.9897 133.446Z" fill="black"/>
<path d="M56.976 130.529C56.7322 130.623 56.5098 130.765 56.3222 130.947L56.3002 130.934C56.5203 130.58 56.6221 130.166 56.5909 129.75C56.5596 129.335 56.3969 128.94 56.1263 128.623C55.8557 128.306 55.4913 128.084 55.0858 127.988C54.6803 127.892 54.2548 127.927 53.8708 128.089C53.4869 128.251 53.1645 128.531 52.9503 128.889C52.7361 129.246 52.6413 129.662 52.6794 130.077C52.7176 130.492 52.8869 130.884 53.1628 131.197C53.4386 131.509 53.8067 131.725 54.2138 131.815C53.7915 131.773 53.3672 131.869 53.0041 132.088C52.641 132.308 52.3586 132.639 52.1992 133.032C52.0397 133.425 52.0118 133.86 52.1194 134.27C52.2271 134.68 52.4647 135.045 52.7966 135.309C53.1286 135.573 53.5371 135.723 53.9612 135.736C54.3853 135.749 54.8021 135.624 55.1495 135.38C55.4969 135.137 55.7561 134.787 55.8885 134.384C56.021 133.981 56.0194 133.546 55.8841 133.144C56.0379 133.497 56.2921 133.797 56.615 134.007C56.9379 134.217 57.3154 134.328 57.7005 134.325C58.0857 134.322 58.4615 134.206 58.7814 133.992C59.1012 133.777 59.351 133.473 59.4997 133.118C59.6485 132.763 59.6895 132.372 59.6179 131.993C59.5462 131.615 59.365 131.266 59.0967 130.989C58.8284 130.713 58.4848 130.522 58.1087 130.439C57.7325 130.356 57.3403 130.386 56.9809 130.524L56.976 130.529Z" fill="black"/>
<path d="M54.2815 125.728L54.1576 125.405C54.3144 125.312 54.4587 125.2 54.5868 125.071C54.6709 124.984 54.7264 124.873 54.7456 124.753C54.7574 124.613 54.7342 124.472 54.6781 124.343C54.6136 124.179 54.5325 124.022 54.4361 123.875C54.3187 123.686 54.191 123.504 54.0535 123.329L53.4918 122.578L50.3977 123.766L50.4215 124.505C50.4259 124.782 50.4454 125.059 50.4801 125.334C50.5063 125.497 50.5481 125.657 50.6049 125.813C50.6362 125.923 50.6905 126.025 50.7641 126.112C50.8377 126.2 50.9289 126.271 51.0319 126.321C51.2645 126.394 51.5137 126.396 51.7475 126.326L51.8726 126.652L49.0321 127.742L48.9081 127.419C49.0298 127.344 49.1353 127.245 49.2183 127.128C49.3012 127.011 49.3601 126.879 49.3915 126.739C49.4904 126.318 49.5321 125.886 49.5153 125.455L49.4673 117.054L50.5178 116.651L55.6173 123.189C55.7983 123.429 55.9944 123.657 56.2045 123.871C56.336 124.006 56.4946 124.112 56.6697 124.181C56.8504 124.239 57.0422 124.253 57.2294 124.223L57.3545 124.549L54.2815 125.728ZM50.3546 123.121L53.1317 122.055L50.2383 118.251L50.3546 123.121Z" fill="black"/>
<path d="M143.197 172.372C142.851 171.127 142.849 169.811 143.19 168.565L140.658 169.537C141.745 170.235 142.622 171.215 143.197 172.372Z" fill="black"/>
<path d="M142.214 175.288C142.457 175.194 142.679 175.053 142.869 174.874L142.889 174.883C142.668 175.237 142.565 175.652 142.595 176.069C142.626 176.485 142.788 176.881 143.058 177.199C143.329 177.517 143.694 177.741 144.1 177.838C144.506 177.935 144.932 177.9 145.317 177.738C145.702 177.576 146.026 177.296 146.241 176.938C146.456 176.58 146.551 176.163 146.514 175.747C146.476 175.331 146.306 174.938 146.03 174.625C145.754 174.312 145.385 174.095 144.977 174.006C145.399 174.047 145.823 173.951 146.186 173.732C146.549 173.512 146.832 173.182 146.991 172.789C147.151 172.396 147.179 171.962 147.071 171.551C146.964 171.141 146.727 170.776 146.395 170.512C146.064 170.248 145.655 170.098 145.231 170.084C144.807 170.071 144.391 170.195 144.043 170.438C143.695 170.681 143.436 171.03 143.303 171.433C143.17 171.836 143.171 172.271 143.305 172.673C143.152 172.32 142.898 172.02 142.575 171.81C142.252 171.6 141.874 171.49 141.489 171.492C141.104 171.495 140.728 171.611 140.408 171.826C140.088 172.04 139.839 172.344 139.69 172.699C139.541 173.054 139.5 173.445 139.572 173.824C139.643 174.202 139.825 174.551 140.093 174.828C140.361 175.104 140.705 175.295 141.081 175.378C141.457 175.461 141.849 175.431 142.209 175.293L142.214 175.288Z" fill="black"/>
<path d="M144.905 180.09L145.03 180.416C144.873 180.511 144.726 180.623 144.594 180.75C144.51 180.837 144.454 180.948 144.435 181.067C144.424 181.209 144.447 181.35 144.504 181.481C144.568 181.644 144.649 181.799 144.744 181.946C144.86 182.129 144.986 182.307 145.121 182.477L145.695 183.24L148.792 182.052L148.768 181.313C148.766 181.035 148.745 180.759 148.706 180.484C148.683 180.321 148.642 180.16 148.585 180.005C148.554 179.895 148.5 179.793 148.426 179.706C148.353 179.619 148.262 179.549 148.159 179.5C147.927 179.423 147.676 179.42 147.442 179.491L147.317 179.165L150.155 178.076L150.28 178.402C150.158 178.478 150.052 178.577 149.969 178.694C149.887 178.81 149.828 178.943 149.796 179.083C149.697 179.497 149.655 179.924 149.67 180.35L149.723 188.766L148.673 189.169L143.573 182.631C143.391 182.393 143.194 182.165 142.986 181.949C142.855 181.814 142.696 181.708 142.521 181.639C142.342 181.578 142.15 181.562 141.963 181.593L141.838 181.267L144.905 180.09ZM148.832 182.698L146.058 183.762L148.965 187.564L148.832 182.698Z" fill="black"/>
<path d="M100.487 154.968C101.176 157.441 101.183 160.054 100.508 162.53L105.531 160.603C103.372 159.214 101.629 157.267 100.487 154.968Z" fill="black"/>
<path d="M102.442 149.179C101.959 149.364 101.518 149.644 101.144 150.002C101.128 149.998 101.113 149.991 101.098 149.982C101.534 149.279 101.735 148.455 101.673 147.631C101.61 146.806 101.286 146.022 100.749 145.393C100.211 144.765 99.4878 144.323 98.6828 144.132C97.8779 143.942 97.0332 144.012 96.2709 144.333C95.5085 144.654 94.8681 145.21 94.4421 145.919C94.016 146.628 93.8266 147.454 93.901 148.278C93.9755 149.102 94.31 149.88 94.8562 150.502C95.4024 151.123 96.132 151.554 96.9396 151.734C96.1024 151.652 95.2612 151.842 94.5414 152.278C93.8216 152.713 93.2618 153.369 92.9457 154.149C92.6296 154.928 92.574 155.789 92.7873 156.603C93.0005 157.417 93.4712 158.14 94.1291 158.664C94.7869 159.188 95.5967 159.485 96.4374 159.512C97.2782 159.538 98.1049 159.292 98.7942 158.81C99.4835 158.327 99.9984 157.635 100.262 156.836C100.526 156.038 100.524 155.175 100.257 154.377C100.563 155.078 101.067 155.673 101.709 156.09C102.35 156.506 103.099 156.724 103.864 156.718C104.628 156.712 105.374 156.481 106.008 156.054C106.642 155.627 107.137 155.023 107.431 154.318C107.725 153.612 107.805 152.836 107.661 152.085C107.517 151.334 107.156 150.642 106.622 150.095C106.088 149.548 105.405 149.17 104.658 149.008C103.911 148.846 103.133 148.907 102.42 149.184L102.442 149.179Z" fill="black"/>
<path d="M216.771 83.1091L133.674 74.367C133.674 74.367 130.176 74.0935 129.694 78.6752L117.495 194.635C117.012 199.221 120.487 199.677 120.487 199.677L203.587 208.42C203.587 208.42 207.082 208.693 207.564 204.111L219.764 88.151C220.246 83.5692 216.771 83.1091 216.771 83.1091Z" fill="white"/>
<path style="mix-blend-mode:multiply" d="M176.179 147.22L123.069 141.651L117.495 194.635C117.012 199.221 120.488 199.677 120.488 199.677L203.588 208.42C203.588 208.42 207.082 208.693 207.564 204.111L213.141 151.105L176.179 147.22Z" fill="url(#paint7_radial_7_374)"/>
<path style="mix-blend-mode:multiply" d="M123.608 136.522L146.345 138.914C168.188 141.227 190.031 143.531 211.874 145.826L213.683 146.017L219.771 88.1517C220.253 83.5664 216.778 83.1099 216.778 83.1099L133.674 74.367C133.674 74.367 130.176 74.0935 129.694 78.6752L123.608 136.522Z" fill="url(#paint8_radial_7_374)"/>
<path d="M219.583 88.1319L207.4 203.934C206.918 208.512 203.416 208.242 203.416 208.242L120.236 199.491C119.69 199.391 119.174 199.163 118.733 198.827C119.226 199.274 119.833 199.578 120.488 199.703L203.585 208.445C203.585 208.445 207.08 208.718 207.562 204.136L219.764 88.151C220.246 83.5656 216.771 83.1091 216.771 83.1091L216.583 83.0893C216.583 83.0893 220.065 83.5502 219.583 88.1319Z" fill="url(#paint9_radial_7_374)"/>
<path style="mix-blend-mode:screen" d="M117.678 194.662L129.86 78.8745C130.341 74.2963 133.84 74.5662 133.84 74.5662L217.016 83.3167C217.564 83.4191 218.08 83.6478 218.523 83.9843C218.034 83.5418 217.433 83.2397 216.785 83.1106L133.674 74.367C133.674 74.367 130.176 74.0935 129.694 78.6752L117.495 194.635C117.012 199.221 120.487 199.677 120.487 199.677L120.672 199.697C120.672 199.697 117.197 199.24 117.678 194.662Z" fill="url(#paint10_radial_7_374)"/>
<path d="M129.233 83.0555L117.866 191.107C117.95 190.895 118.031 190.681 118.115 190.472L129.208 85.031C129.215 84.3736 129.222 83.7162 129.233 83.0555Z" fill="url(#paint11_radial_7_374)"/>
<path d="M138.399 98.5572C136.252 97.0622 134.824 93.065 134.779 92.9366C134.709 93.0528 132.481 96.6655 130.073 97.6812C132.216 99.1793 133.644 103.177 133.689 103.305C133.759 103.189 135.987 99.576 138.399 98.5608L138.399 98.5572Z" fill="#FF2601"/>
<path d="M136.338 89.8426C136.549 89.8675 136.761 89.874 136.973 89.8621C137.112 89.8531 137.248 89.8126 137.369 89.7439C137.476 89.6772 137.565 89.5854 137.628 89.4765C137.695 89.3636 137.786 89.1878 137.896 88.9484L138.572 89.0196L138.195 91.3179L131.642 90.6285L131.682 90.2473C131.995 89.6782 132.364 89.141 132.783 88.6433C133.36 87.9748 133.983 87.3478 134.649 86.767C135.336 86.1556 135.832 85.6903 136.139 85.3711C136.422 85.0891 136.68 84.7828 136.908 84.4557C137.068 84.2219 137.201 83.9713 137.305 83.7084C137.394 83.4732 137.452 83.2275 137.477 82.9775C137.523 82.6197 137.498 82.2563 137.403 81.9079C137.313 81.6037 137.136 81.3322 136.893 81.127C136.61 80.9203 136.273 80.8013 135.922 80.7849C134.927 80.6802 134.204 81.1568 133.741 82.2172L132.779 82.1159L132.94 80.5803C133.549 80.364 134.178 80.2085 134.818 80.1161C135.325 80.0431 135.838 80.0288 136.349 80.0735C137.335 80.1773 138.059 80.4704 138.521 80.9529C138.755 81.2164 138.927 81.5286 139.023 81.8667C139.12 82.2047 139.14 82.5599 139.08 82.9061C139.054 83.1651 138.999 83.4204 138.916 83.667C138.828 83.903 138.713 84.1277 138.571 84.3361C138.405 84.5816 138.218 84.8125 138.012 85.0263C137.782 85.2675 137.529 85.5136 137.258 85.7579C136.987 86.0021 136.516 86.4071 135.849 86.9804C134.923 87.739 134.08 88.5924 133.334 89.5267L136.338 89.8426Z" fill="#FF2601"/>
<path d="M197.953 183.865C200.101 185.36 201.524 189.357 201.573 189.485C201.644 189.369 203.872 185.757 206.28 184.741C204.136 183.246 202.709 179.249 202.664 179.121C202.589 179.237 200.365 182.85 197.953 183.865Z" fill="#FF2601"/>
<path d="M200.033 192.581C199.822 192.556 199.61 192.55 199.398 192.562C199.259 192.571 199.123 192.611 199.002 192.68C198.895 192.747 198.806 192.839 198.743 192.947C198.676 193.06 198.585 193.236 198.475 193.476L197.798 193.404L198.176 191.106L204.729 191.795L204.689 192.177C204.375 192.746 204.006 193.283 203.587 193.781C203.011 194.449 202.387 195.076 201.721 195.657C201.036 196.265 200.54 196.733 200.232 197.053C199.948 197.334 199.69 197.64 199.462 197.968C199.302 198.202 199.169 198.452 199.065 198.716C198.977 198.951 198.919 199.196 198.893 199.446C198.848 199.805 198.875 200.169 198.975 200.517C199.062 200.821 199.238 201.093 199.482 201.297C199.76 201.51 200.096 201.637 200.446 201.661C201.437 201.765 202.165 201.287 202.627 200.228L203.59 200.33L203.43 201.847C202.821 202.064 202.192 202.219 201.552 202.311C201.045 202.384 200.532 202.399 200.022 202.354C199.035 202.25 198.311 201.956 197.85 201.471C197.616 201.208 197.444 200.897 197.347 200.559C197.25 200.222 197.231 199.867 197.29 199.521C197.316 199.262 197.371 199.007 197.454 198.761C197.54 198.525 197.653 198.3 197.792 198.091C197.958 197.845 198.145 197.614 198.351 197.4C198.582 197.159 198.831 196.913 199.105 196.669C199.38 196.425 199.847 196.02 200.515 195.443C201.441 194.686 202.284 193.834 203.029 192.9L200.033 192.581Z" fill="#FF2601"/>
<path d="M172.94 179.852C168.679 176.883 165.851 168.947 165.761 168.693C165.62 168.922 161.202 176.097 156.417 178.113C160.678 181.081 163.505 189.018 163.596 189.272C163.737 189.043 168.154 181.868 172.94 179.852Z" fill="#FF2601"/>
<path d="M180.848 104.677C176.587 101.709 173.76 93.7723 173.669 93.5192C173.528 93.7479 169.111 100.923 164.325 102.939C168.587 105.907 171.414 113.844 171.504 114.097C171.646 113.869 176.063 106.694 180.848 104.677Z" fill="#FF2601"/>
</g>
<rect x="0.5" y="0.5" width="224" height="199" rx="5.5" stroke="url(#paint12_linear_7_374)"/>
</g>
<defs>
<filter id="filter0_b_7_374" x="-15" y="-15" width="255" height="230" filterUnits="userSpaceOnUse" color-interpolation-filters="sRGB">
<feFlood flood-opacity="0" result="BackgroundImageFix"/>
<feGaussianBlur in="BackgroundImageFix" stdDeviation="7.5"/>
<feComposite in2="SourceAlpha" operator="in" result="effect1_backgroundBlur_7_374"/>
<feBlend mode="normal" in="SourceGraphic" in2="effect1_backgroundBlur_7_374" result="shape"/>
</filter>
<filter id="filter1_f_7_374" x="-50" y="45" width="325" height="205" filterUnits="userSpaceOnUse" color-interpolation-filters="sRGB">
<feFlood flood-opacity="0" result="BackgroundImageFix"/>
<feBlend mode="normal" in="SourceGraphic" in2="BackgroundImageFix" result="shape"/>
<feGaussianBlur stdDeviation="25" result="effect1_foregroundBlur_7_374"/>
</filter>
<linearGradient id="paint0_linear_7_374" x1="112.5" y1="-21.9512" x2="112.5" y2="200" gradientUnits="userSpaceOnUse">
<stop stop-color="#3D3737" stop-opacity="0.25"/>
<stop offset="1" stop-color="#404550" stop-opacity="0.1"/>
</linearGradient>
<linearGradient id="paint1_linear_7_374" x1="112.5" y1="95" x2="112.5" y2="200" gradientUnits="userSpaceOnUse">
<stop stop-color="white" stop-opacity="0"/>
<stop offset="1" stop-color="#FF3434"/>
</linearGradient>
<radialGradient id="paint2_radial_7_374" cx="0" cy="0" r="1" gradientUnits="userSpaceOnUse" gradientTransform="translate(64.6443 65.0037) rotate(-20.9941) scale(162.915 162.915)">
<stop offset="0.62" stop-color="white"/>
<stop offset="0.79" stop-color="#FDFDFD"/>
<stop offset="0.85" stop-color="#F6F6F6"/>
<stop offset="0.9" stop-color="#EAEAEA"/>
<stop offset="0.94" stop-color="#D9D9D9"/>
<stop offset="0.97" stop-color="#C3C3C3"/>
<stop offset="1" stop-color="#ABABAB"/>
</radialGradient>
<radialGradient id="paint3_radial_7_374" cx="0" cy="0" r="1" gradientUnits="userSpaceOnUse" gradientTransform="translate(117.159 197.349) rotate(-20.9941) scale(116.738 116.738)">
<stop offset="0.62" stop-color="white"/>
<stop offset="0.75" stop-color="#FDFDFD"/>
<stop offset="0.82" stop-color="#F5F5F5"/>
<stop offset="0.88" stop-color="#E7E7E7"/>
<stop offset="0.93" stop-color="#D3D3D3"/>
<stop offset="0.98" stop-color="#BABABA"/>
<stop offset="1" stop-color="#ABABAB"/>
</radialGradient>
<radialGradient id="paint4_radial_7_374" cx="0" cy="0" r="1" gradientUnits="userSpaceOnUse" gradientTransform="translate(38.7696 116.017) rotate(-20.9941) scale(129.619 129.619)">
<stop offset="0.1" stop-color="white"/>
<stop offset="1" stop-color="#ABABAB"/>
</radialGradient>
<radialGradient id="paint5_radial_7_374" cx="0" cy="0" r="1" gradientUnits="userSpaceOnUse" gradientTransform="translate(74.2711 137.569) rotate(-20.9941) scale(110.4 110.4)">
<stop stop-color="white"/>
<stop offset="0.14" stop-color="white"/>
<stop offset="1" stop-color="white"/>
</radialGradient>
<radialGradient id="paint6_radial_7_374" cx="0" cy="0" r="1" gradientUnits="userSpaceOnUse" gradientTransform="translate(120.306 84.7273) rotate(159.006) scale(129.609)">
<stop offset="0.1" stop-color="white"/>
<stop offset="1" stop-color="#ABABAB"/>
</radialGradient>
<radialGradient id="paint7_radial_7_374" cx="0" cy="0" r="1" gradientUnits="userSpaceOnUse" gradientTransform="translate(178.322 35.8705) rotate(6.00568) scale(183.338 182.205)">
<stop offset="0.62" stop-color="white"/>
<stop offset="0.79" stop-color="#FDFDFD"/>
<stop offset="0.85" stop-color="#F6F6F6"/>
<stop offset="0.9" stop-color="#EAEAEA"/>
<stop offset="0.94" stop-color="#D9D9D9"/>
<stop offset="0.97" stop-color="#C3C3C3"/>
<stop offset="1" stop-color="#ABABAB"/>
</radialGradient>
<radialGradient id="paint8_radial_7_374" cx="0" cy="0" r="1" gradientUnits="userSpaceOnUse" gradientTransform="translate(163.467 194.421) rotate(6.00568) scale(131.374 130.562)">
<stop offset="0.62" stop-color="white"/>
<stop offset="0.75" stop-color="#FDFDFD"/>
<stop offset="0.82" stop-color="#F5F5F5"/>
<stop offset="0.88" stop-color="#E7E7E7"/>
<stop offset="0.93" stop-color="#D3D3D3"/>
<stop offset="0.98" stop-color="#BABABA"/>
<stop offset="1" stop-color="#ABABAB"/>
</radialGradient>
<radialGradient id="paint9_radial_7_374" cx="0" cy="0" r="1" gradientUnits="userSpaceOnUse" gradientTransform="translate(126.342 73.5374) rotate(6.00568) scale(145.871 144.969)">
<stop offset="0.1" stop-color="white"/>
<stop offset="1" stop-color="#ABABAB"/>
</radialGradient>
<radialGradient id="paint10_radial_7_374" cx="0" cy="0" r="1" gradientUnits="userSpaceOnUse" gradientTransform="translate(150.953 113.059) rotate(6.00568) scale(124.243 123.475)">
<stop stop-color="white"/>
<stop offset="0.14" stop-color="white"/>
<stop offset="1" stop-color="white"/>
</radialGradient>
<radialGradient id="paint11_radial_7_374" cx="0" cy="0" r="1" gradientUnits="userSpaceOnUse" gradientTransform="translate(224.087 83.8206) rotate(-173.994) scale(145.86 144.958)">
<stop offset="0.1" stop-color="white"/>
<stop offset="1" stop-color="#ABABAB"/>
</radialGradient>
<linearGradient id="paint12_linear_7_374" x1="112.5" y1="-14.6341" x2="112.5" y2="200" gradientUnits="userSpaceOnUse">
<stop stop-color="white" stop-opacity="0.6"/>
<stop offset="1" stop-color="white" stop-opacity="0"/>
</linearGradient>
<clipPath id="clip0_7_374">
<rect width="225" height="200" rx="6" fill="white"/>
</clipPath>
</defs>
</svg>
