<svg width="225" height="200" viewBox="0 0 225 200" fill="none" xmlns="http://www.w3.org/2000/svg">
<g filter="url(#filter0_b_7_148)">
<g clip-path="url(#clip0_7_148)">
<rect width="225" height="200" rx="6" fill="url(#paint0_linear_7_148)"/>
<g opacity="0.7" filter="url(#filter1_f_7_148)">
<rect x="-23" y="94" width="271" height="106" fill="url(#paint1_linear_7_148)"/>
</g>
<g clip-path="url(#clip1_7_148)">
<path d="M153.031 30.7861C153.031 30.7861 155.4 35.794 157.058 40.1531L157.067 40.1723C158.056 42.764 158.776 45.1313 158.612 46.1697C158.154 49.0977 154.76 58.829 136.598 69.2555C122.202 77.5181 110.874 79.2137 105.461 78.9898C105.401 78.9936 105.352 78.9885 105.323 78.9904C103.756 78.9265 102.7 78.6905 102.279 78.4112C98.4927 75.9016 90.9922 65.6335 90.9922 65.6335L153.031 30.7861Z" fill="url(#paint2_linear_7_148)"/>
<path d="M90.9892 65.6273C93.1323 71.944 114.205 66.2163 130.679 56.6074C145.412 47.993 157.094 35.4929 152.086 29.0547C141.503 15.3955 86.1292 51.2491 90.9892 65.6273Z" fill="url(#paint3_linear_7_148)"/>
<path d="M144.596 36.1583C145.416 45.9076 109.417 65.0073 100.954 62.2614C100.561 62.174 100.197 61.9864 99.8979 61.7168C99.5988 61.4473 99.3744 61.105 99.2467 60.7231C95.9677 50.2082 135.85 24.4555 143.728 34.058C144.228 34.651 144.532 35.3851 144.596 36.1583Z" fill="url(#paint4_linear_7_148)"/>
<path d="M144.596 36.1583C145.416 45.9076 109.417 65.0073 100.954 62.2614C100.256 51.6729 135.729 28.9115 144.596 36.1583Z" fill="#FFB300"/>
<g style="mix-blend-mode:multiply" opacity="0.2">
<path d="M101.006 67.9735C98.8898 68.3956 106.66 77.2389 108.715 77.9786C110.771 78.7183 121.391 76.4605 125.841 74.0466C130.29 71.6328 124.862 61.501 123.769 61.1395C122.676 60.7779 115.554 65.0441 101.006 67.9735Z" fill="#BA40A4"/>
</g>
<path d="M150.248 59.3259C149.008 60.4836 145.89 48.4893 145.788 46.9396C145.687 45.3899 151.485 40.985 153.112 34.1708C153.112 34.1708 157.279 44.1288 157.256 48.0679C157.221 51.9202 151.36 58.287 150.248 59.3259Z" fill="#FF9000"/>
<path style="mix-blend-mode:soft-light" d="M96.6722 53.3626C92.0799 59.5082 108.536 46.3587 110.681 44.24C112.826 42.1214 105.416 41.6387 96.6722 53.3626Z" fill="url(#paint5_linear_7_148)"/>
<g style="mix-blend-mode:multiply" opacity="0.5">
<path d="M125.714 35.4103C122.104 37.0926 116.385 44.322 115.812 44.7568C115.238 45.1916 128.931 35.7768 141.57 34.9099C141.557 34.9156 140.083 28.7015 125.714 35.4103Z" fill="#D340A4"/>
</g>
<g style="mix-blend-mode:multiply" opacity="0.5">
<path d="M157.054 40.178C158.043 42.7698 158.763 45.137 158.6 46.1754C158.141 49.1035 154.747 58.8347 136.585 69.2613C122.202 77.5181 110.874 79.2137 105.461 78.9898C107.259 78.9031 122.378 77.8423 139.444 66.2679C157.851 53.7895 157.278 43.1528 157.054 40.178Z" fill="#D340A4"/>
</g>
<path style="mix-blend-mode:soft-light" d="M144.781 46.7699C143.269 48.646 148.085 58.0656 148.553 58.8739C149.02 59.6823 151.749 55.5131 152.897 53.7319C154.044 51.9506 150.809 42.754 150.072 41.963C149.336 41.1719 145.682 45.6455 144.781 46.7699Z" fill="url(#paint6_linear_7_148)"/>
<path style="mix-blend-mode:soft-light" d="M93.5197 68.9517C93.5197 68.9517 95.7489 70.1551 99.3428 73.1778C102.851 76.139 103.097 78.5466 101.911 78.1499C100.725 77.7532 95.3513 71.4412 93.5197 68.9517Z" fill="url(#paint7_linear_7_148)"/>
</g>
<g clip-path="url(#clip2_7_148)">
<path d="M201.109 149.48C201.109 149.48 196.597 154.891 192.454 159.135L192.436 159.155C189.975 161.683 187.628 163.779 186.342 164.146C182.718 165.183 169.675 166.47 147.932 151.088C130.7 138.894 122.687 126.73 120.05 120.363C120.014 120.296 119.994 120.238 119.976 120.204C119.212 118.362 118.92 117.018 119.016 116.382C119.888 110.672 127.726 96.5263 127.726 96.5263L201.109 149.48Z" fill="url(#paint8_linear_7_148)"/>
<path d="M127.731 96.5196C121.589 102.37 139.466 123.623 159.362 137.494C177.18 149.889 197.85 156.685 202.602 147.464C212.704 127.948 141.724 83.2235 127.731 96.5196Z" fill="url(#paint9_linear_7_148)"/>
<path d="M190.4 142.619C179.588 148.778 138.3 117.452 136.943 106.218C136.834 105.718 136.856 105.198 137.007 104.708C137.158 104.219 137.433 103.777 137.806 103.425C148.185 94.0195 199.227 126.27 192.359 140.494C191.942 141.389 191.257 142.131 190.4 142.619Z" fill="url(#paint10_linear_7_148)"/>
<path d="M190.4 142.619C179.588 148.778 138.3 117.452 136.943 106.218C148.788 99.7509 194.021 128.513 190.4 142.619Z" fill="#FFB300"/>
<g style="mix-blend-mode:multiply" opacity="0.2">
<path d="M130.38 109.333C128.761 107.116 122.712 120.811 122.957 123.578C123.203 126.345 131.487 137.393 136.652 141.237C141.816 145.08 150.605 133.399 150.437 131.944C150.27 130.49 141.539 124.553 130.38 109.333Z" fill="#BA40A4"/>
</g>
<path d="M166.688 161.528C164.69 160.717 176.863 150.705 178.596 149.76C180.33 148.814 188.514 153.149 197.247 151.384C197.247 151.384 187.984 161.516 183.427 163.596C178.963 165.616 168.482 162.257 166.688 161.528Z" fill="#FF9000"/>
<path style="mix-blend-mode:soft-light" d="M144.922 96.5191C135.375 94.5061 159.348 106.464 162.94 107.806C166.531 109.149 163.126 100.34 144.922 96.5191Z" fill="url(#paint11_linear_7_148)"/>
<g style="mix-blend-mode:multiply" opacity="0.5">
<path d="M181.166 120.431C177.295 117.165 165.895 114.431 165.087 114.002C164.278 113.574 182.464 124.34 190.222 138.46C190.209 138.448 196.591 133.424 181.166 120.431Z" fill="#D340A4"/>
</g>
<g style="mix-blend-mode:multiply" opacity="0.5">
<path d="M192.423 159.144C189.961 161.671 187.614 163.767 186.329 164.134C182.705 165.171 169.661 166.458 147.918 151.076C130.7 138.894 122.687 126.73 120.05 120.363C121.112 122.392 130.42 139.271 152.901 152.774C177.143 167.342 189.11 160.993 192.423 159.144Z" fill="#D340A4"/>
</g>
<path style="mix-blend-mode:soft-light" d="M178.254 148.507C175.281 147.765 166.986 158.359 166.304 159.331C165.621 160.303 171.891 161.223 174.56 161.594C177.229 161.966 186.111 153.315 186.63 152.042C187.149 150.769 180.033 148.946 178.254 148.507Z" fill="url(#paint12_linear_7_148)"/>
<path style="mix-blend-mode:soft-light" d="M125.248 101.217C125.248 101.217 125.052 104.433 123.485 110.196C121.945 115.828 119.298 117.399 119.121 115.818C118.945 114.238 123.355 104.662 125.248 101.217Z" fill="url(#paint13_linear_7_148)"/>
</g>
</g>
<rect x="0.5" y="0.5" width="224" height="199" rx="5.5" stroke="url(#paint14_linear_7_148)"/>
</g>
<defs>
<filter id="filter0_b_7_148" x="-15" y="-15" width="255" height="230" filterUnits="userSpaceOnUse" color-interpolation-filters="sRGB">
<feFlood flood-opacity="0" result="BackgroundImageFix"/>
<feGaussianBlur in="BackgroundImageFix" stdDeviation="7.5"/>
<feComposite in2="SourceAlpha" operator="in" result="effect1_backgroundBlur_7_148"/>
<feBlend mode="normal" in="SourceGraphic" in2="effect1_backgroundBlur_7_148" result="shape"/>
</filter>
<filter id="filter1_f_7_148" x="-73" y="44" width="371" height="206" filterUnits="userSpaceOnUse" color-interpolation-filters="sRGB">
<feFlood flood-opacity="0" result="BackgroundImageFix"/>
<feBlend mode="normal" in="SourceGraphic" in2="BackgroundImageFix" result="shape"/>
<feGaussianBlur stdDeviation="25" result="effect1_foregroundBlur_7_148"/>
</filter>
<linearGradient id="paint0_linear_7_148" x1="112.5" y1="-21.9512" x2="112.5" y2="200" gradientUnits="userSpaceOnUse">
<stop stop-color="#3D3737" stop-opacity="0.25"/>
<stop offset="1" stop-color="#404550" stop-opacity="0.1"/>
</linearGradient>
<linearGradient id="paint1_linear_7_148" x1="112.5" y1="94" x2="112.5" y2="200" gradientUnits="userSpaceOnUse">
<stop stop-color="white" stop-opacity="0"/>
<stop offset="1" stop-color="#FF9D2B"/>
</linearGradient>
<linearGradient id="paint2_linear_7_148" x1="98.6904" y1="77.4032" x2="158.103" y2="38.5545" gradientUnits="userSpaceOnUse">
<stop stop-color="#FF5900"/>
<stop offset="1" stop-color="#FF9019"/>
</linearGradient>
<linearGradient id="paint3_linear_7_148" x1="128.541" y1="58.1067" x2="114.94" y2="37.3067" gradientUnits="userSpaceOnUse">
<stop stop-color="#FFCA00"/>
<stop offset="1" stop-color="#FFCE19"/>
</linearGradient>
<linearGradient id="paint4_linear_7_148" x1="125.967" y1="54.3109" x2="116.727" y2="40.1802" gradientUnits="userSpaceOnUse">
<stop stop-color="#FF5900"/>
<stop offset="1" stop-color="#FF9019"/>
</linearGradient>
<linearGradient id="paint5_linear_7_148" x1="95.1207" y1="53.7386" x2="110.994" y2="43.3593" gradientUnits="userSpaceOnUse">
<stop stop-color="#FFCA00"/>
<stop offset="1" stop-color="#FFCE19"/>
</linearGradient>
<linearGradient id="paint6_linear_7_148" x1="153.079" y1="56.186" x2="145.474" y2="44.5551" gradientUnits="userSpaceOnUse">
<stop stop-color="#FFCA00"/>
<stop offset="1" stop-color="#FFCE19"/>
</linearGradient>
<linearGradient id="paint7_linear_7_148" x1="101.695" y1="78.5715" x2="94.8345" y2="68.0791" gradientUnits="userSpaceOnUse">
<stop stop-color="#FFCA00"/>
<stop offset="1" stop-color="#FFCE19"/>
</linearGradient>
<linearGradient id="paint8_linear_7_148" x1="118.261" y1="111.703" x2="194.857" y2="159.487" gradientUnits="userSpaceOnUse">
<stop stop-color="#FF5900"/>
<stop offset="1" stop-color="#FF9019"/>
</linearGradient>
<linearGradient id="paint9_linear_7_148" x1="156.489" y1="135.829" x2="173.218" y2="109.014" gradientUnits="userSpaceOnUse">
<stop stop-color="#FFCA00"/>
<stop offset="1" stop-color="#FFCE19"/>
</linearGradient>
<linearGradient id="paint10_linear_7_148" x1="159.492" y1="130.83" x2="170.857" y2="112.612" gradientUnits="userSpaceOnUse">
<stop stop-color="#FF5900"/>
<stop offset="1" stop-color="#FF9019"/>
</linearGradient>
<linearGradient id="paint11_linear_7_148" x1="143.659" y1="94.9299" x2="164.123" y2="107.697" gradientUnits="userSpaceOnUse">
<stop stop-color="#FFCA00"/>
<stop offset="1" stop-color="#FFCE19"/>
</linearGradient>
<linearGradient id="paint12_linear_7_148" x1="171.825" y1="163.117" x2="181.18" y2="148.122" gradientUnits="userSpaceOnUse">
<stop stop-color="#FFCA00"/>
<stop offset="1" stop-color="#FFCE19"/>
</linearGradient>
<linearGradient id="paint13_linear_7_148" x1="118.519" y1="115.795" x2="126.958" y2="102.268" gradientUnits="userSpaceOnUse">
<stop stop-color="#FFCA00"/>
<stop offset="1" stop-color="#FFCE19"/>
</linearGradient>
<linearGradient id="paint14_linear_7_148" x1="112.5" y1="-14.6341" x2="112.5" y2="200" gradientUnits="userSpaceOnUse">
<stop stop-color="white" stop-opacity="0.6"/>
<stop offset="1" stop-color="white" stop-opacity="0"/>
</linearGradient>
<clipPath id="clip0_7_148">
<rect width="225" height="200" rx="6" fill="white"/>
</clipPath>
<clipPath id="clip1_7_148">
<rect width="70.8992" height="39.5092" fill="white" transform="translate(84 50.0967) rotate(-24.2297)"/>
</clipPath>
<clipPath id="clip2_7_148">
<rect width="90.1677" height="50.2467" fill="white" transform="translate(141.915 80.1503) rotate(40.9077)"/>
</clipPath>
</defs>
</svg>
