<svg width="225" height="200" viewBox="0 0 225 200" fill="none" xmlns="http://www.w3.org/2000/svg">
<g filter="url(#filter0_b_7_402)">
<g clip-path="url(#clip0_7_402)">
<rect width="225" height="200" rx="6" fill="url(#paint0_linear_7_402)"/>
<g filter="url(#filter1_f_7_402)">
<rect y="95" width="225" height="105" fill="url(#paint1_linear_7_402)"/>
</g>
<path d="M79.8881 137.172C80.4713 137.702 81.0216 138.226 81.5235 138.747C84.221 141.576 91.5908 152.359 95.3028 157.852C96.6262 159.825 97.4822 161.104 97.4822 161.104C97.4822 161.104 107.432 171.331 111.041 172.108C113.285 172.591 122.116 165.252 128.352 158.921C132.123 155.079 134.942 151.624 134.785 150.485C134.785 150.485 133.511 140.712 132.817 138.864C132.124 137.015 128.259 134.152 123.231 136.582L123.217 136.546C122.961 136.222 120.897 133.633 119.808 132.935C119.174 132.537 117.52 132.231 115.786 132.291C114.302 132.339 112.772 132.656 111.783 133.411C110.148 134.66 109.764 137.936 109.679 139.413C109.654 139.816 109.646 140.081 109.646 140.145C109.523 139.773 107.095 132.011 106.353 129.473C106.164 128.825 105.994 128.161 105.827 127.507C105.818 127.495 105.812 127.481 105.811 127.466C105.804 127.455 105.8 127.442 105.797 127.43L105.785 127.399C105.31 125.473 104.938 123.74 104.64 123.253C104.28 122.671 103.498 120.276 102.709 118.141C102.594 117.846 102.482 117.56 102.384 117.272C101.504 114.976 99.9284 109.93 98.7018 107.205C97.4753 104.48 95.04 101.834 94.361 101.753C93.6821 101.672 89.4366 102.604 88.4572 104.596C87.5338 106.484 91.3866 117.286 95.2442 124.634C95.4656 125.059 95.6856 125.474 95.9047 125.873C95.9047 125.873 96.5098 127.615 97.3621 130.118C97.3621 130.118 97.392 130.195 97.4464 130.334L97.5795 130.725L97.7355 131.181C97.7636 131.253 97.7917 131.325 97.8226 131.405C99.9595 137.689 103.143 147.167 103.08 147.991C103.01 149.228 101.901 150.294 100.888 149.873C99.8743 149.453 90.4023 137.047 89.2631 134.972C88.6216 133.803 87.4878 132.436 86.3547 131.163C85.4772 130.169 84.6103 129.223 83.9712 128.457C82.9288 127.204 79.2802 121.803 76.6331 118.564C76.6331 118.564 76.6218 118.535 76.6172 118.523C76.6125 118.511 76.6172 118.523 76.6106 118.506L76.6059 118.494L76.5994 118.478C75.5714 117.219 74.6962 116.302 74.2074 116.091C72.4544 115.392 66.9739 117.016 69.4726 124.164C71.598 130.334 76.2934 133.866 79.8881 137.172Z" fill="url(#paint2_linear_7_402)"/>
<g style="mix-blend-mode:multiply" opacity="0.5">
<path d="M95.5084 147.361L101.655 161.772L123.424 161.301L128.347 158.929C132.123 155.079 134.942 151.624 134.785 150.485C134.785 150.485 133.511 140.712 132.817 138.864L130.793 141.092L130.024 138.228L129.418 140.851C129.418 140.851 129.207 142.834 128.898 143.121C128.59 143.407 123.017 145.817 121.177 143.03C121.177 143.03 122.186 138.129 123.231 136.582L123.217 136.546C122.961 136.222 120.897 133.633 119.808 132.935C119.808 132.935 119.493 137.551 119.588 139.708C119.682 141.865 111.775 144.267 109.861 142.908L109.679 139.413L105.821 127.462C105.822 127.477 105.828 127.491 105.837 127.503C106.073 128.656 107.97 138.055 107.673 139.3C107.357 140.615 103.016 142.041 101.822 140.902C100.9 140.022 98.7592 134.074 97.8198 131.397C99.9568 137.682 103.141 147.16 103.078 147.984C103.007 149.221 101.898 150.287 100.885 149.866C99.8715 149.446 90.3995 137.04 89.2603 134.964C88.6188 133.795 87.4851 132.429 86.3519 131.155L95.5084 147.361Z" fill="#D87290"/>
</g>
<g style="mix-blend-mode:multiply" opacity="0.31">
<path d="M79.8881 137.172C80.4714 137.702 81.0216 138.226 81.5236 138.747C84.221 141.576 91.5908 152.359 95.3029 157.852L108.946 152.282L109.679 139.413C109.654 139.816 109.647 140.082 109.646 140.145C109.523 139.773 107.095 132.011 106.354 129.473C106.164 128.825 105.994 128.161 105.827 127.507C105.818 127.495 105.812 127.481 105.811 127.466C105.805 127.455 105.8 127.442 105.797 127.43L105.785 127.399C105.31 125.473 104.938 123.74 104.64 123.253C104.28 122.671 103.498 120.276 102.709 118.141L102.597 118.08C102.597 118.08 103.703 122.844 102.677 124.24C101.65 125.637 98.2447 127.63 95.3218 124.684L95.2496 124.626C95.4709 125.052 95.6909 125.467 95.9101 125.865C95.9101 125.865 96.5152 127.607 97.3674 130.11C97.3674 130.11 97.3974 130.187 97.4518 130.327L97.5849 130.717L97.7408 131.174C97.769 131.246 97.7971 131.318 97.828 131.397C99.9649 137.682 103.149 147.16 103.086 147.984C103.015 149.22 101.907 150.286 100.893 149.866C99.8797 149.445 90.4077 137.04 89.2684 134.964C88.6269 133.795 87.4932 132.428 86.3601 131.155C85.4826 130.161 84.6157 129.216 83.9765 128.45C82.9342 127.197 79.2855 121.795 76.6385 118.556C77.3714 119.726 85.5103 132.593 85.5162 134.218C85.5128 135.641 82.5352 137.752 79.8881 137.172Z" fill="#D87290"/>
</g>
<path d="M95.0263 172.656C95.9034 173.918 98.4487 175.719 100.472 176.423C102.523 177.128 115.799 178.615 118.258 180.649C119.851 181.964 123.602 192.35 126.067 199.577C127.43 203.571 131.796 213.769 131.796 213.769C140.464 214.443 149.496 205.244 149.496 205.244C149.496 205.244 133.931 174.907 133.98 174.273C134.029 173.64 137.457 169.713 137.671 168.091C137.74 167.432 137.759 166.769 137.727 166.108C137.677 164.092 137.375 162.091 136.827 160.151C136.383 158.714 135.819 155.966 135.386 153.764C135.038 151.949 134.788 150.514 134.788 150.514C133.062 153.345 121.009 159.919 121.009 159.919C118.853 159.117 114.876 158.68 111.225 158.406C110.397 158.341 109.587 158.284 108.819 158.238C108.8 158.245 108.782 158.236 108.761 158.238C105.732 158.056 103.395 157.958 103.299 157.833C103.108 157.52 101.727 154.462 101.727 154.462C101.727 154.462 106.302 153.247 108.216 152.19C110.13 151.133 114.63 145.012 114.114 143.47C113.715 142.284 112.648 140.706 111.744 140.112L111.679 140.066C111.483 139.93 111.246 139.866 111.008 139.885C110.06 140.056 106.798 142.609 102.25 144.531C97.7019 146.452 94.8041 147.619 93.8191 148.186C92.8341 148.753 91.5148 151.044 91.5475 151.482C91.5802 151.92 93.5273 158.293 94.0009 161.314C94.3141 163.322 94.2854 167.113 94.49 169.799C94.5728 171.153 94.7326 172.236 95.0263 172.656Z" fill="url(#paint3_linear_7_402)"/>
<g style="mix-blend-mode:multiply" opacity="0.31">
<path d="M121.009 159.919C118.853 159.117 114.876 158.68 111.225 158.406C117.172 159.153 122.476 162.127 122.476 162.127C129.924 161.901 135.168 164.464 137.721 166.093C137.672 164.078 137.369 162.077 136.822 160.137C136.377 158.7 135.814 155.951 135.381 153.749C135.032 151.935 134.782 150.5 134.782 150.5C133.062 153.345 121.009 159.919 121.009 159.919Z" fill="#D87290"/>
</g>
<g style="mix-blend-mode:multiply" opacity="0.31">
<path d="M111.227 158.405C110.429 158.303 109.626 158.247 108.821 158.237C109.582 158.286 110.4 158.34 111.227 158.405Z" fill="#D87290"/>
</g>
<g style="mix-blend-mode:multiply" opacity="0.31">
<path d="M94.4718 169.796C98.4369 166.989 103.442 159.141 103.442 159.141C105.141 158.502 106.947 158.195 108.762 158.235C105.734 158.053 103.397 157.955 103.301 157.829C103.109 157.517 101.728 154.459 101.728 154.459C101.728 154.459 106.303 153.244 108.217 152.187C110.132 151.13 114.632 145.009 114.116 143.467C113.717 142.281 112.65 140.702 111.746 140.109C112.146 140.426 113.994 142.012 112.921 144.539C111.726 147.368 101.625 153.373 99.4809 153.408C97.3364 153.442 91.5322 151.471 91.5322 151.471C91.563 151.905 93.512 158.282 93.9856 161.304C94.2959 163.318 94.2672 167.109 94.4718 169.796Z" fill="#D87290"/>
</g>
<g style="mix-blend-mode:multiply" opacity="0.5">
<path d="M101.728 154.459L97.9196 155.171L102.195 155.536L101.728 154.459Z" fill="#D87290"/>
</g>
<g style="mix-blend-mode:multiply" opacity="0.5">
<path d="M101.726 154.46L103.298 157.83C103.298 157.83 110.546 154.972 121.009 159.919C121.009 159.919 127.389 156.658 130.722 154.012L131.68 150.086L130.781 141.097L130.012 138.232L129.678 142.297C129.678 142.297 130.084 146.075 130.065 147.294C130.045 148.514 128.373 151.141 127.506 151.527C126.638 151.913 123.689 151.713 123.14 151.272C122.591 150.83 121.176 143.027 121.176 143.027C121.176 143.027 122.308 138.236 123.243 136.577C123.243 136.577 120.466 140.306 120.192 141.278C119.919 142.251 121.113 149.692 120.227 150.926C119.342 152.159 116.345 152.795 115.337 152.574C114.33 152.353 111.717 148.528 111.717 148.528C111.717 148.528 109.191 151.605 108.234 152.18C107.277 152.756 101.726 154.46 101.726 154.46Z" fill="#D87290"/>
</g>
<g style="mix-blend-mode:soft-light" opacity="0.97">
<path d="M110.418 140.101C110.969 139.82 112.477 141.932 111.771 142.91C111.065 143.888 104.873 146.501 102.868 145.952C100.864 145.404 104.337 143.207 110.418 140.101Z" fill="#F5AF8F"/>
</g>
<path d="M111.578 143.11C111.578 143.11 110.265 144.411 107.163 145.516C104.062 146.621 101.567 146.361 101.186 145.887C100.804 145.413 103.973 143.728 103.973 143.728C103.973 143.728 102.088 145.045 102.479 145.67C102.869 146.295 108.48 145.536 111.578 143.11Z" fill="#E86C7C"/>
<g style="mix-blend-mode:soft-light" opacity="0.97">
<path d="M109.725 140.433C110.419 141.306 110.917 142.319 111.185 143.401C111.44 143.245 111.662 143.04 111.838 142.798C112.08 142.441 111.761 140.388 110.421 140.095L109.725 140.433Z" fill="#F5D3D2"/>
</g>
<g style="mix-blend-mode:soft-light" opacity="0.97">
<path d="M103.973 143.728C103.973 143.728 104.676 143.836 104.766 144.299C104.855 144.762 103.114 145.865 103.114 145.865C103.114 145.865 102.487 145.932 102.431 145.448C102.375 144.964 103.973 143.728 103.973 143.728Z" fill="#F5D3D2"/>
</g>
<g style="mix-blend-mode:soft-light" opacity="0.97">
<path d="M123.345 150.926C123.345 150.926 124.178 152.195 127.186 151.444C127.319 151.409 127.381 151.235 127.406 150.96C127.471 150.105 127.039 148.395 126.341 147.464L126.257 147.364C126.22 147.312 126.179 147.262 126.136 147.215C126.136 147.215 126.127 147.193 126.11 147.191C125.45 146.558 124.074 146.83 123.405 147.904C123.036 148.496 122.883 149.33 123.175 150.39C123.179 150.395 123.182 150.402 123.182 150.409C123.226 150.584 123.281 150.757 123.345 150.926Z" fill="#F5AF8F"/>
</g>
<g style="mix-blend-mode:soft-light" opacity="0.97">
<path d="M114.911 152.09C114.987 152.179 115.077 152.256 115.177 152.318C115.712 152.621 117.994 152.851 119.283 151.15C119.318 151.104 119.347 151.054 119.368 151.001C119.469 150.689 119.476 150.354 119.389 150.038L119.382 150.021C119.12 148.782 118.054 147.029 116.956 146.165C116.653 145.91 116.29 145.735 115.902 145.655C114.446 145.468 113.408 146.545 113.171 147.689C113.166 147.704 113.163 147.72 113.165 147.736C113.125 147.93 113.109 148.129 113.118 148.327C113.119 148.377 113.123 148.427 113.132 148.476C113.273 149.666 114.285 151.429 114.911 152.09Z" fill="#F5AF8F"/>
</g>
<g style="mix-blend-mode:multiply" opacity="0.5">
<path d="M113.162 147.693L113.141 148.08C113.363 147.083 114.786 145.341 116.459 146.232C118.239 147.198 119.222 149.619 119.37 150.018C119.021 148.381 117.269 145.833 115.89 145.652C114.443 145.469 113.399 146.549 113.162 147.693Z" fill="#D87290"/>
</g>
<g style="mix-blend-mode:multiply" opacity="0.5">
<path d="M113.12 148.481L113.141 148.08C113.116 148.161 113.104 148.246 113.106 148.332C113.107 148.382 113.111 148.432 113.12 148.481Z" fill="#D87290"/>
</g>
<g style="mix-blend-mode:multiply" opacity="0.5">
<path d="M123.175 150.39C123.11 149.889 122.9 147.608 124.892 147.387C127.091 147.146 127.397 150.836 127.394 150.965C127.466 150.035 126.945 148.055 126.124 147.219C125.132 146.187 122.338 147.374 123.175 150.39Z" fill="#D87290"/>
</g>
<g style="mix-blend-mode:soft-light" opacity="0.97">
<path d="M123.345 150.926C123.345 150.926 124.178 152.195 127.186 151.444C127.319 151.409 127.381 151.235 127.406 150.96C127.406 150.96 125.192 151.758 123.345 150.926Z" fill="#F5D3D2"/>
</g>
<g style="mix-blend-mode:soft-light" opacity="0.97">
<path d="M114.911 152.09C114.987 152.179 115.077 152.256 115.177 152.318C115.712 152.621 117.994 152.851 119.283 151.15C119.318 151.104 119.347 151.054 119.368 151.001C118.768 151.34 116.791 152.35 114.911 152.09Z" fill="#F5D3D2"/>
</g>
<path d="M111.7 148.535C111.7 148.535 109.392 152.113 108.351 152.84C107.309 153.568 102.299 154.632 103.301 157.829L101.728 154.459C101.728 154.459 106.695 153.044 108.217 152.187C109.739 151.33 111.7 148.535 111.7 148.535Z" fill="#AB3D52"/>
<path d="M115.179 152.53C115.179 152.53 115.568 153.001 119.245 152.62C122.923 152.239 126.915 152.203 127.819 151.812C128.723 151.42 130.017 147.711 130.017 147.711C130.017 147.711 128.316 151.371 127.506 151.527C126.695 151.683 123.844 151.686 123.14 151.272C122.436 150.858 121.615 145.321 121.615 145.321C121.615 145.321 121.407 148.609 120.437 150.301C119.468 151.994 116.45 153.086 115.179 152.53Z" fill="#AB3D52"/>
<path d="M114.116 143.467C114.116 143.467 114.434 145.409 112.206 149.25L110.468 150.086C110.468 150.086 113.268 147.109 114.116 143.467Z" fill="#AB3D52"/>
<g style="mix-blend-mode:multiply" opacity="0.6">
<path d="M126.072 199.553C125.936 198.552 122.867 177.287 118.698 176.231C114.528 175.174 100.891 176.348 100.48 176.423C102.531 177.128 115.807 178.615 118.267 180.648C119.86 181.966 123.601 192.328 126.072 199.553Z" fill="#F3BAC0"/>
</g>
<g style="mix-blend-mode:multiply" opacity="0.6">
<path d="M126.078 199.583C127.441 203.578 131.807 213.776 131.807 213.776C140.475 214.449 149.507 205.251 149.507 205.251C149.507 205.251 133.931 174.907 133.98 174.273C134.029 173.64 137.457 169.713 137.671 168.091C137.671 168.091 134.493 170.632 127.61 172.958C120.727 175.284 100.481 176.425 100.481 176.425C102.532 177.13 115.808 178.617 118.267 180.651C119.86 181.966 123.611 192.352 126.077 199.579L126.078 199.583Z" fill="#F3BAC0"/>
</g>
<g style="mix-blend-mode:multiply" opacity="0.5">
<path d="M100.481 176.425C102.532 177.13 115.808 178.617 118.267 180.651L118.698 176.231C114.486 175.165 100.891 176.348 100.481 176.425Z" fill="#D87290"/>
</g>
<path style="mix-blend-mode:screen" d="M127.86 167.324C129.242 169.349 113.26 175.193 104.61 173.677C98.5778 172.625 97.2674 170.359 96.962 169.123C96.6566 167.886 100.945 161.285 105.793 159.693C110.641 158.1 123.903 161.537 127.86 167.324Z" fill="url(#paint4_linear_7_402)"/>
<g style="mix-blend-mode:multiply" opacity="0.3">
<path d="M128.51 143.331C127.377 144.241 126.05 144.88 124.632 145.198C122.258 145.737 121.386 143.302 121.386 143.302C121.386 143.302 123.643 145.401 128.51 143.331Z" fill="#D87290"/>
</g>
<g style="mix-blend-mode:multiply" opacity="0.3">
<path d="M118.858 140.936C118.858 140.936 116.112 143.365 114.107 144.118C114.098 143.75 114.029 143.386 113.903 143.041C113.903 143.041 115.13 142.897 118.858 140.936Z" fill="#D87290"/>
</g>
<g style="mix-blend-mode:soft-light" opacity="0.97">
<path d="M129.193 144.104L128.883 149.236C128.883 149.236 129.828 147.539 129.744 147.146C129.66 146.752 129.193 144.104 129.193 144.104Z" fill="#F5A995"/>
</g>
<g style="mix-blend-mode:soft-light" opacity="0.97">
<path d="M106.407 174.758C106.407 174.758 102.07 175.819 100.944 175.442C99.8178 175.066 95.9376 173.658 95.2655 172.319C94.5934 170.979 94.3705 162.772 94.3705 162.772C94.3705 162.772 95.1065 170.018 96.5261 171.713C97.9456 173.409 102.238 175.12 106.407 174.758Z" fill="#F5FFFF"/>
</g>
<g style="mix-blend-mode:soft-light" opacity="0.97">
<path d="M144.084 208.717C144.084 208.717 147.656 205.683 148.073 204.463C148.491 203.243 133.685 175.722 133.685 175.722C133.685 175.722 146.527 202.25 146.149 204.381C145.772 206.512 144.084 208.717 144.084 208.717Z" fill="#F5FFFF"/>
</g>
<g style="mix-blend-mode:soft-light" opacity="0.97">
<path d="M134.373 153.484C134.373 153.484 137.272 162.545 137.286 165.821C137.3 169.096 133.96 172.782 133.96 172.782C135.353 170.431 136.07 167.74 136.03 165.007C135.93 160.51 134.373 153.484 134.373 153.484Z" fill="#F5FFFF"/>
</g>
<g style="mix-blend-mode:soft-light" opacity="0.97">
<path d="M94.9619 102.86C94.9619 102.86 96.6278 104.294 98.3021 108.117C99.9765 111.94 104.144 123.712 104.144 123.712C104.144 123.712 95.5459 103.974 94.9619 102.86Z" fill="#F5FFFF"/>
</g>
<g style="mix-blend-mode:soft-light" opacity="0.97">
<path d="M70.0391 123.439C70.0391 123.439 75.9936 133.098 81.0193 136.916C81.0193 136.916 76.1523 133.915 73.0893 129.774C70.0263 125.632 70.0391 123.439 70.0391 123.439Z" fill="#F5FFFF"/>
</g>
<g style="mix-blend-mode:soft-light" opacity="0.97">
<path d="M120.341 182.149C120.341 182.149 130.788 207.335 132.226 212.835C132.226 212.835 126.246 192.029 120.341 182.149Z" fill="#F5FFFF"/>
</g>
<g style="mix-blend-mode:soft-light" opacity="0.97">
<path d="M100.746 145.284C100.746 145.284 97.8752 147.364 96.1705 147.916C94.4658 148.467 93.8039 148.175 93.8039 148.175L100.746 145.284Z" fill="#F5FFFF"/>
</g>
<g style="mix-blend-mode:soft-light" opacity="0.97">
<path d="M91.5322 151.471C91.5322 151.471 93.1798 151.163 94.0709 150.221C94.9619 149.278 93.8039 148.175 93.8039 148.175C93.8039 148.175 92.526 149.247 91.5322 151.471Z" fill="#F5AF8F"/>
</g>
<g style="mix-blend-mode:multiply" opacity="0.5">
<path d="M114.116 143.467L113.34 142.804C113.34 142.804 112.317 140.332 110.993 139.874C110.993 139.874 112.618 139.699 114.116 143.467Z" fill="#D87290"/>
</g>
<path d="M210.553 130.182L210.539 130.179C208.406 132.961 206.298 135.901 205.621 137.724C204.093 141.862 201.331 153.478 198.042 157.491C197.991 157.553 197.94 157.612 197.884 157.672L197.88 157.685L197.706 157.859C197.645 157.915 197.583 157.974 197.52 158.026C197.452 158.083 197.382 158.14 197.31 158.193C197.238 158.246 197.164 158.304 197.086 158.359C196.759 158.582 196.415 158.781 196.058 158.952C195.964 159 195.87 159.047 195.772 159.09C195.593 159.175 195.406 159.256 195.211 159.334C194.884 159.472 194.523 159.598 194.158 159.718C193.974 159.778 193.788 159.836 193.599 159.892C193.41 159.949 193.181 160.015 192.971 160.074C192.799 160.121 192.625 160.164 192.444 160.223L191.831 160.348L191.524 160.414C191.422 160.439 191.318 160.46 191.217 160.479C191.116 160.499 191.012 160.52 190.911 160.542C190.498 160.623 190.081 160.699 189.66 160.766C189.558 160.782 189.452 160.797 189.357 160.818C189.261 160.839 189.142 160.853 189.034 160.867C188.829 160.896 188.621 160.928 188.43 160.958C188.327 160.974 188.223 160.986 188.128 161.004L187.827 161.045C187.731 161.057 187.633 161.068 187.528 161.081C187.423 161.093 187.277 161.109 187.155 161.123C186.779 161.164 186.407 161.212 186.05 161.238C185.868 161.256 185.69 161.272 185.512 161.288L185.34 161.303C185.18 161.318 185.02 161.33 184.864 161.34L184.16 161.395L183.842 161.414L183.688 161.425L183.098 161.464C181.8 161.533 180.824 161.552 180.423 161.558L180.35 161.561L180.217 161.561C179.718 162.593 179.322 163.671 179.033 164.78L178.974 164.999C178.954 165.072 178.933 165.15 178.912 165.228L178.846 165.477C178.803 165.636 178.758 165.804 178.737 165.989L178.611 166.688L178.532 167.157C178.492 167.413 178.45 167.679 178.411 167.953L178.308 168.684C178.247 169.14 178.189 169.614 178.133 170.103L178.102 170.384C178.079 170.578 178.055 170.774 178.037 170.972L177.937 171.895L177.852 172.741L177.835 172.806C177.76 173.247 174.866 195.938 174.821 196.345C174.76 196.984 174.705 197.618 174.656 198.248L174.629 198.562L174.562 199.375L174.531 199.781C174.511 200.019 174.492 200.252 174.479 200.485L174.452 200.811L174.432 201.07L174.359 202.11L174.354 202.184L174.321 202.653L174.27 203.459L174.235 203.925L174.221 203.976L174.201 204.289L174.195 204.389L174.193 204.472L174.176 204.535L174.165 204.575L174.103 205.587L174.084 205.894L174.062 206.291L174.054 206.393L174.003 207.277L174.003 207.341L173.995 207.458C170.732 210.23 160.713 209.086 154.346 204.701C155.089 199.768 155.973 194.727 156.804 190.362C158.209 183.162 162.266 155.514 162.266 155.514L156.271 147.145C155.974 143.737 157.739 135.874 159.355 129.605C159.401 129.432 159.444 129.272 159.484 129.124C160.697 124.424 161.802 120.731 161.802 120.731L165.47 107.163C165.47 107.163 164.972 103.843 165.827 100.826C166.682 97.8079 167.998 93.7263 168.507 92.985C169.637 91.3502 176.08 92.2193 175.812 93.3379L174.075 99.8236L169.126 118.118L172.284 119.175L172.301 119.113L178.209 100.555C178.198 98.4945 178.428 96.44 178.893 94.4328C178.907 94.4364 178.907 94.4365 178.899 94.4112C179.219 93.0548 179.608 91.7157 180.064 90.399C180.076 90.3563 180.094 90.3154 180.117 90.2771C180.12 90.2434 180.129 90.2106 180.143 90.1798C181.81 85.4941 183.668 82.6465 183.668 82.6465C184.8 80.6792 188.012 81.6297 188.864 82.3967C189.52 80.8577 191.617 78.5755 191.617 78.5755C193.255 77.6848 197.088 78.9871 196.919 80.7318C196.319 85.8773 193.945 93.6029 192.355 101.742C190.131 113.189 187.812 123.985 187.812 123.985L189.126 124.398L194.015 109.395C194.015 109.395 194.035 109.137 194.055 108.694C194.176 106.814 194.561 101.681 195.511 99.6936C196.676 97.2483 200.039 89.9702 200.914 88.9419C202.187 87.435 206.884 89.5913 206.605 90.4811C206.297 92.959 205.142 98.0457 203.673 104.018C203.673 104.018 203.65 104.102 203.607 104.264C203.582 104.336 203.562 104.41 203.547 104.486C201.657 112.219 199.209 121.347 197.338 128.264C196.603 130.943 195.966 133.298 195.465 135.101L194.417 138.895L197.978 139.517L200.104 135.635C200.104 135.635 199.504 128.667 200.091 127.339C200.679 126.01 205.894 120.396 209.25 120.582C212.606 120.769 215.555 122.541 215.47 123.309C215.42 123.745 213.271 126.665 210.553 130.182Z" fill="url(#paint5_linear_7_402)"/>
<path d="M210.553 130.182L210.539 130.179C208.406 132.961 206.298 135.901 205.621 137.724C204.307 141.279 202.085 150.349 199.398 155.381C199.421 148.584 194.433 138.9 194.433 138.9L197.978 139.517L200.104 135.635C200.104 135.635 199.504 128.667 200.091 127.339C200.679 126.01 205.894 120.395 209.25 120.582C212.606 120.769 215.555 122.541 215.47 123.309C215.42 123.745 213.271 126.665 210.553 130.182Z" fill="url(#paint6_linear_7_402)"/>
<path d="M169.125 118.132L161.799 120.731L165.467 107.162C165.467 107.162 164.969 103.843 165.824 100.825C166.679 97.8071 168.086 93.776 168.504 92.9842C170.035 90.1129 176.446 91.0833 175.81 93.3372C175.343 94.9933 174.749 97.2961 174.072 99.8228L169.125 118.132Z" fill="url(#paint7_linear_7_402)"/>
<path d="M178.899 94.4111C179.219 93.0548 179.608 91.7156 180.064 90.399C180.076 90.3563 180.094 90.3153 180.117 90.277C180.12 90.2434 180.129 90.2105 180.143 90.1797C181.81 85.494 183.668 82.6465 183.668 82.6465C184.8 80.6792 188.012 81.6297 188.864 82.3966C189.501 80.8641 189.547 79.1242 192.812 78.1048C196.046 77.0917 198.286 78.9142 198.121 80.6569C197.518 85.8017 193.949 93.5893 192.359 101.728C190.135 113.175 187.815 123.971 187.815 123.971L172.319 119.109L178.209 100.555C178.198 98.4944 178.428 96.4399 178.893 94.4328C178.921 94.4285 178.921 94.4285 178.899 94.4111Z" fill="url(#paint8_linear_7_402)"/>
<path d="M194.039 108.698C193.315 106.546 196.512 90.0242 200.719 88.5592C204.199 87.3514 206.884 89.5913 206.605 90.4811C206.297 92.959 205.143 98.0456 203.673 104.018C203.673 104.018 203.65 104.102 203.607 104.264C203.582 104.336 203.562 104.41 203.547 104.486L203.532 104.542C201.651 112.255 199.194 121.36 197.344 128.265L189.11 124.402L193.999 109.4C194.058 109.293 194.092 109.175 194.099 109.053C194.106 108.932 194.086 108.81 194.039 108.698Z" fill="url(#paint9_linear_7_402)"/>
<g style="mix-blend-mode:multiply" opacity="0.6">
<path fill-rule="evenodd" clip-rule="evenodd" d="M175.265 143.797C175.265 143.797 185.339 138.369 194.419 138.908L195.47 135.117C195.47 135.117 176.222 125.403 168.373 127.946C168.373 127.946 166.895 135.081 167.957 137.917C169.019 140.753 175.265 143.797 175.265 143.797Z" fill="#F3BAC0"/>
</g>
<path style="mix-blend-mode:multiply" opacity="0.6" fill-rule="evenodd" clip-rule="evenodd" d="M203.607 104.264C203.65 104.102 203.673 104.018 203.673 104.018L203.547 104.485C203.562 104.41 203.582 104.336 203.607 104.264Z" fill="url(#paint10_linear_7_402)"/>
<g style="mix-blend-mode:multiply" opacity="0.2">
<path fill-rule="evenodd" clip-rule="evenodd" d="M197.271 128.17L190.28 124.878L189.064 124.303L193.021 112.132L193.942 109.298C193.942 109.298 193.96 109.039 193.98 108.595C194.243 108.758 197.6 110.747 199.642 111.019C201.396 111.251 202.998 106.125 203.475 104.44L197.271 128.17Z" fill="#F3BAC0"/>
</g>
<g style="mix-blend-mode:multiply" opacity="0.2">
<path fill-rule="evenodd" clip-rule="evenodd" d="M187.744 123.88L172.249 119.015L177.951 101.083L178.149 100.455C178.141 98.395 178.376 96.3415 178.847 94.3364C178.665 95.8638 178.883 97.4121 179.479 98.8301L184.075 99.0479C184.075 99.0479 187.173 84.8168 188.822 82.2929C188.822 82.2929 185.741 92.8617 185.235 99.4108C185.235 99.4108 188.607 104.639 192.296 101.639C191.844 103.965 191.388 106.261 190.948 108.452C189.214 117.033 187.744 123.88 187.744 123.88Z" fill="#D87290"/>
</g>
<path style="mix-blend-mode:multiply" opacity="0.6" fill-rule="evenodd" clip-rule="evenodd" d="M180.164 90.1767C180.131 90.246 180.103 90.3182 180.083 90.3925C180.164 90.2201 180.224 90.103 180.255 90.0533L180.164 90.1767Z" fill="url(#paint11_linear_7_402)"/>
<g style="mix-blend-mode:multiply" opacity="0.2">
<path fill-rule="evenodd" clip-rule="evenodd" d="M169.125 118.132L167.592 118.677L161.799 120.731L165.467 107.162L168.876 108.212L174.067 99.8302L172.657 105.092C170.862 111.727 169.125 118.132 169.125 118.132Z" fill="#F3BAC0"/>
</g>
<g style="mix-blend-mode:multiply" opacity="0.3">
<path fill-rule="evenodd" clip-rule="evenodd" d="M194.419 138.908C194.419 138.908 184.419 138.053 177.462 142.74C177.462 142.74 183.506 135.76 195.471 135.111L194.419 138.908Z" fill="#D87290"/>
</g>
<g style="mix-blend-mode:multiply" opacity="0.6">
<path d="M178.965 164.785C178.058 168.017 174.517 199.531 174.206 204.392C174.237 202.491 176.405 166.416 178.085 161.508C178.409 160.566 178.821 159.95 179.337 159.816C179.547 159.763 179.768 159.78 179.967 159.866C182.026 160.667 189.359 160.065 195.19 159.357C189.82 161.542 180.147 161.571 180.147 161.571C180.129 161.638 180.081 161.698 180.055 161.763C179.6 162.735 179.235 163.746 178.965 164.785Z" fill="#F3BAC0"/>
</g>
<g style="mix-blend-mode:multiply" opacity="0.5">
<path d="M195.192 159.352C189.822 161.536 180.149 161.565 180.149 161.565C180.131 161.633 179.339 159.81 179.339 159.81C179.548 159.757 179.77 159.775 179.968 159.86C182.027 160.661 189.361 160.057 195.192 159.352Z" fill="#D87290"/>
</g>
<path style="mix-blend-mode:screen" d="M170.176 149.439C169.135 151.032 183.231 155.414 190.531 154.143C195.611 153.26 195.689 151.531 195.864 150.565C196.039 149.598 194.738 143.792 190.467 142.602C186.195 141.411 173.155 144.894 170.176 149.439Z" fill="url(#paint12_linear_7_402)"/>
<path style="mix-blend-mode:screen" d="M186.983 125.457C187.632 124.762 176.225 120.95 170.435 120.195C167.358 119.79 160.953 123.759 163.904 124.55C168.135 125.687 185.111 127.438 186.983 125.457Z" fill="url(#paint13_linear_7_402)"/>
<g style="mix-blend-mode:soft-light" opacity="0.97">
<path d="M185.374 158.885C185.374 158.885 191.217 158.782 192.365 158.507C193.513 158.233 196.653 157.919 197.348 156.732C198.042 155.545 201.974 146.212 201.974 146.212C201.974 146.212 197.656 155.117 196.202 156.587C194.748 158.057 185.374 158.885 185.374 158.885Z" fill="#F5FFFF"/>
</g>
<g style="mix-blend-mode:soft-light" opacity="0.97">
<path d="M161.718 205.173C161.718 205.173 157.316 203.229 156.534 202.223C155.752 201.217 163.422 158.138 163.422 158.138C163.422 158.138 157.347 199.889 158.381 201.727C159.415 203.565 161.718 205.173 161.718 205.173Z" fill="#F5FFFF"/>
</g>
<g style="mix-blend-mode:soft-light" opacity="0.97">
<path d="M160.733 133.27C160.733 133.27 157.748 141.449 157.732 144.472C157.716 147.494 161.1 151.112 161.1 151.112C159.712 148.926 158.985 146.387 159.004 143.799C159.12 139.67 160.733 133.27 160.733 133.27Z" fill="#F5FFFF"/>
</g>
<g style="mix-blend-mode:soft-light" opacity="0.97">
<path d="M198.624 92.5165C198.624 92.5165 195.575 102.416 195.931 108.093C195.931 108.093 195.115 103.029 196.124 98.4532C197.133 93.8778 198.624 92.5165 198.624 92.5165Z" fill="#F5FFFF"/>
</g>
<g style="mix-blend-mode:soft-light" opacity="0.97">
<path d="M169.097 94.4784C169.097 94.4784 166.705 102.237 166.983 106.694C166.983 106.694 166.346 102.723 167.135 99.1314C167.924 95.5398 169.097 94.4784 169.097 94.4784Z" fill="#F5FFFF"/>
</g>
<g style="mix-blend-mode:soft-light" opacity="0.97">
<path d="M184.154 83.6428C184.154 83.6428 180.29 92.2467 179.486 97.627C179.486 97.627 179.794 92.8349 181.479 88.4901C183.165 84.1453 184.154 83.6428 184.154 83.6428Z" fill="#F5FFFF"/>
</g>
<g style="mix-blend-mode:soft-light" opacity="0.97">
<path d="M213.472 124.013C213.472 124.013 208.216 130.136 203.986 132.098C203.986 132.098 208.044 130.724 210.708 128.188C213.371 125.652 213.472 124.013 213.472 124.013Z" fill="#F5FFFF"/>
</g>
<g style="mix-blend-mode:soft-light" opacity="0.97">
<path d="M178.131 161.054C178.131 161.054 172.77 200.896 172.712 206.141C172.712 206.141 174.739 171.021 178.131 161.054Z" fill="#F5FFFF"/>
</g>
<path fill-rule="evenodd" clip-rule="evenodd" d="M183.72 105.507L180.44 121.682L179.294 121.323C181.455 117.302 182.133 111.691 183.72 105.507Z" fill="#B24D61"/>
<g style="mix-blend-mode:multiply" opacity="0.3">
<path fill-rule="evenodd" clip-rule="evenodd" d="M183.72 105.507L180.44 121.682L176.227 120.359C176.709 119.457 179.012 118.864 179.012 118.864L184.798 98.3494L183.72 105.507Z" fill="#D87290"/>
</g>
<g style="mix-blend-mode:multiply" opacity="0.3">
<path fill-rule="evenodd" clip-rule="evenodd" d="M192.868 126.171L190.34 124.981L189.11 124.402L193.999 109.4C192.632 116.425 191.034 123.782 192.868 126.171Z" fill="#D87290"/>
</g>
<g style="mix-blend-mode:multiply" opacity="0.3">
<path fill-rule="evenodd" clip-rule="evenodd" d="M172.651 105.104C170.875 111.731 169.125 118.132 169.125 118.132L167.592 118.677C169.208 115.252 170.918 110.372 172.651 105.104Z" fill="#D87290"/>
</g>
<g style="mix-blend-mode:multiply" opacity="0.3">
<path fill-rule="evenodd" clip-rule="evenodd" d="M174.415 119.793L172.278 119.122L177.981 101.189C176.362 107.3 175.17 113.516 174.415 119.793Z" fill="#D87290"/>
</g>
<g style="mix-blend-mode:multiply" opacity="0.31">
<path fill-rule="evenodd" clip-rule="evenodd" d="M205.605 137.731C204.076 141.869 201.314 153.485 198.026 157.499C197.975 157.56 197.924 157.619 197.867 157.679L197.864 157.693L197.69 157.866C197.629 157.922 197.566 157.981 197.503 158.033C197.436 158.091 197.366 158.147 197.293 158.2C197.221 158.253 197.148 158.312 197.069 158.366C196.742 158.59 196.399 158.788 196.041 158.959C195.948 159.007 195.854 159.054 195.755 159.097C195.576 159.182 195.39 159.263 195.195 159.341C194.868 159.479 194.507 159.606 194.142 159.725C193.958 159.786 193.771 159.843 193.583 159.899C193.394 159.956 193.164 160.022 192.954 160.082L192.428 160.23L191.815 160.356L191.508 160.421C191.406 160.446 191.302 160.467 191.201 160.486C191.1 160.506 190.996 160.527 190.894 160.549C190.482 160.63 190.064 160.706 189.644 160.773C189.541 160.789 189.436 160.804 189.34 160.825C189.245 160.846 189.125 160.86 189.017 160.874C188.812 160.904 188.604 160.935 188.414 160.965C188.311 160.981 188.206 160.993 188.112 161.011L187.811 161.052C187.715 161.064 187.617 161.076 187.512 161.088C187.407 161.101 187.261 161.116 187.139 161.13C186.763 161.171 186.391 161.219 186.033 161.245C185.852 161.263 185.674 161.279 185.496 161.295L185.324 161.31C185.163 161.325 185.003 161.337 184.847 161.347L184.143 161.402L183.825 161.421L183.672 161.432L183.082 161.471C181.783 161.54 180.808 161.56 180.407 161.565L180.333 161.569L180.2 161.568C179.702 162.6 179.305 163.678 179.016 164.787L178.958 165.006C178.938 165.079 178.917 165.157 178.896 165.235L178.829 165.484C178.787 165.644 178.742 165.811 178.721 165.997L178.595 166.696L178.515 167.164C178.476 167.42 178.433 167.686 178.395 167.96L178.292 168.691C178.23 169.147 178.173 169.621 178.117 170.11L178.085 170.391L178.02 170.979L177.921 171.902L177.836 172.748L177.818 172.813C177.76 173.247 174.866 195.938 174.821 196.345C174.76 196.984 174.705 197.618 174.656 198.248L174.629 198.562L174.562 199.375L174.531 199.781C174.511 200.019 174.492 200.252 174.479 200.485L174.452 200.811L174.432 201.07L174.359 202.11L174.354 202.184L174.321 202.653L174.27 203.459L174.235 203.925L174.221 203.976L174.201 204.289L174.195 204.389L174.193 204.472L174.176 204.535L174.165 204.575L174.103 205.587L174.084 205.894L174.062 206.291L174.054 206.393L174.003 207.277L174.003 207.341L173.995 207.458C170.732 210.23 160.713 209.086 154.346 204.701C155.089 199.768 155.973 194.727 156.804 190.362C158.209 183.162 162.266 155.514 162.266 155.514L156.271 147.145C155.974 143.737 157.739 135.874 159.355 129.605C158.26 134.177 157.694 143.112 157.694 143.112C157.694 143.112 162.231 148.878 172.524 152.534C182.817 156.189 195.36 154.531 195.36 154.531C199.239 147.75 194.417 138.907 194.417 138.907L197.978 139.517L200.105 135.635C200.105 135.635 199.504 128.667 200.091 127.339C200.133 129.777 203.166 132.898 203.965 133.127C204.764 133.355 210.203 130.384 210.545 130.192C208.404 132.972 206.301 135.913 205.605 137.731Z" fill="#D87290"/>
</g>
<g style="mix-blend-mode:multiply" opacity="0.3">
<path fill-rule="evenodd" clip-rule="evenodd" d="M187.744 123.88L181.62 121.949C181.926 121.672 185.234 121.759 185.234 121.759L187.791 117.433L190.942 108.43C189.214 117.033 187.744 123.88 187.744 123.88Z" fill="#D87290"/>
</g>
</g>
<rect x="0.5" y="0.5" width="224" height="199" rx="5.5" stroke="url(#paint14_linear_7_402)"/>
</g>
<defs>
<filter id="filter0_b_7_402" x="-15" y="-15" width="255" height="230" filterUnits="userSpaceOnUse" color-interpolation-filters="sRGB">
<feFlood flood-opacity="0" result="BackgroundImageFix"/>
<feGaussianBlur in="BackgroundImageFix" stdDeviation="7.5"/>
<feComposite in2="SourceAlpha" operator="in" result="effect1_backgroundBlur_7_402"/>
<feBlend mode="normal" in="SourceGraphic" in2="effect1_backgroundBlur_7_402" result="shape"/>
</filter>
<filter id="filter1_f_7_402" x="-50" y="45" width="325" height="205" filterUnits="userSpaceOnUse" color-interpolation-filters="sRGB">
<feFlood flood-opacity="0" result="BackgroundImageFix"/>
<feBlend mode="normal" in="SourceGraphic" in2="BackgroundImageFix" result="shape"/>
<feGaussianBlur stdDeviation="25" result="effect1_foregroundBlur_7_402"/>
</filter>
<linearGradient id="paint0_linear_7_402" x1="112.5" y1="-21.9512" x2="112.5" y2="200" gradientUnits="userSpaceOnUse">
<stop stop-color="#3D3737" stop-opacity="0.25"/>
<stop offset="1" stop-color="#404550" stop-opacity="0.1"/>
</linearGradient>
<linearGradient id="paint1_linear_7_402" x1="112.5" y1="95" x2="112.5" y2="200" gradientUnits="userSpaceOnUse">
<stop stop-color="white" stop-opacity="0"/>
<stop offset="1" stop-color="#D87290"/>
</linearGradient>
<linearGradient id="paint2_linear_7_402" x1="126.423" y1="171.444" x2="95.0174" y2="106.738" gradientUnits="userSpaceOnUse">
<stop stop-color="#FF8777"/>
<stop offset="0.98" stop-color="#FFB880"/>
</linearGradient>
<linearGradient id="paint3_linear_7_402" x1="146.973" y1="215.128" x2="112.98" y2="145.091" gradientUnits="userSpaceOnUse">
<stop offset="0.02" stop-color="#FFB880"/>
<stop offset="1" stop-color="#FF8777"/>
</linearGradient>
<linearGradient id="paint4_linear_7_402" x1="131.952" y1="163.07" x2="106.054" y2="175.64" gradientUnits="userSpaceOnUse">
<stop/>
<stop offset="0.04" stop-color="#0C0300"/>
<stop offset="0.4" stop-color="#6B1F00"/>
<stop offset="0.69" stop-color="#B03300"/>
<stop offset="0.89" stop-color="#DB3F00"/>
<stop offset="1" stop-color="#EC4400"/>
</linearGradient>
<linearGradient id="paint5_linear_7_402" x1="155.437" y1="224.308" x2="200.581" y2="80.4289" gradientUnits="userSpaceOnUse">
<stop offset="0.02" stop-color="#FFB880"/>
<stop offset="1" stop-color="#FF8777"/>
</linearGradient>
<linearGradient id="paint6_linear_7_402" x1="183.769" y1="148.429" x2="211.919" y2="133.725" gradientUnits="userSpaceOnUse">
<stop stop-color="#FF8777"/>
<stop offset="0.98" stop-color="#FFB880"/>
</linearGradient>
<linearGradient id="paint7_linear_7_402" x1="163.761" y1="121.365" x2="173.226" y2="91.1981" gradientUnits="userSpaceOnUse">
<stop stop-color="#FF8777"/>
<stop offset="0.98" stop-color="#FFB880"/>
</linearGradient>
<linearGradient id="paint8_linear_7_402" x1="179.507" y1="121.409" x2="193.375" y2="77.2118" gradientUnits="userSpaceOnUse">
<stop stop-color="#FF8777"/>
<stop offset="0.98" stop-color="#FFB880"/>
</linearGradient>
<linearGradient id="paint9_linear_7_402" x1="192.244" y1="126.698" x2="204.249" y2="88.4381" gradientUnits="userSpaceOnUse">
<stop stop-color="#FF8777"/>
<stop offset="0.98" stop-color="#FFB880"/>
</linearGradient>
<linearGradient id="paint10_linear_7_402" x1="203.563" y1="104.511" x2="203.708" y2="104.049" gradientUnits="userSpaceOnUse">
<stop offset="0.01" stop-color="#B060F4"/>
<stop offset="1" stop-color="#FFEADB"/>
</linearGradient>
<linearGradient id="paint11_linear_7_402" x1="179.738" y1="87.4332" x2="179.849" y2="87.0749" gradientUnits="userSpaceOnUse">
<stop stop-color="#FFEADB"/>
<stop offset="0.99" stop-color="#B060F4"/>
</linearGradient>
<linearGradient id="paint12_linear_7_402" x1="172.794" y1="143.275" x2="195.145" y2="152.712" gradientUnits="userSpaceOnUse">
<stop/>
<stop offset="0.04" stop-color="#0C0300"/>
<stop offset="0.4" stop-color="#6B1F00"/>
<stop offset="0.69" stop-color="#B03300"/>
<stop offset="0.89" stop-color="#DB3F00"/>
<stop offset="1" stop-color="#EC4400"/>
</linearGradient>
<linearGradient id="paint13_linear_7_402" x1="197.745" y1="135.697" x2="176.965" y2="126.674" gradientUnits="userSpaceOnUse">
<stop/>
<stop offset="0.04" stop-color="#0C0300"/>
<stop offset="0.4" stop-color="#6B1F00"/>
<stop offset="0.69" stop-color="#B03300"/>
<stop offset="0.89" stop-color="#DB3F00"/>
<stop offset="1" stop-color="#EC4400"/>
</linearGradient>
<linearGradient id="paint14_linear_7_402" x1="112.5" y1="-14.6341" x2="112.5" y2="200" gradientUnits="userSpaceOnUse">
<stop stop-color="white" stop-opacity="0.6"/>
<stop offset="1" stop-color="white" stop-opacity="0"/>
</linearGradient>
<clipPath id="clip0_7_402">
<rect width="225" height="200" rx="6" fill="white"/>
</clipPath>
</defs>
</svg>
